<?xml version="1.0" encoding="utf-8"?>
<!-- Generator: Adobe Illustrator 24.0.2, SVG Export Plug-In . SVG Version: 6.00 Build 0)  -->
<svg version="1.1" id="Capa_1" xmlns="http://www.w3.org/2000/svg" xmlns:xlink="http://www.w3.org/1999/xlink" x="0px" y="0px"
	 viewBox="0 0 640 480" style="enable-background:new 0 0 640 480;" xml:space="preserve">
<style type="text/css">
	.st0{fill:#94CDAD;}
	.st1{fill:#5C9971;}
	.st2{fill:#E7E6E6;}
	.st3{clip-path:url(#SVGID_2_);}
	.st4{fill:#D0D1D1;}
	.st5{fill:#EF0F44;}
	.st6{fill:#FBAA3E;}
	.st7{fill:#524938;}
	.st8{opacity:0.4;fill:url(#SVGID_3_);}
	.st9{fill:#961C45;}
	.st10{fill:#600B2C;}
	.st11{opacity:0.4;fill:url(#SVGID_4_);}
	.st12{fill:#E3496F;}
	.st13{fill:#AD274D;}
	.st14{opacity:0.4;fill:url(#SVGID_5_);}
</style>
<g>
	<path class="st0" d="M519.33,240.1c0,110.19-89.37,199.52-199.61,199.52c-110.24,0-199.6-89.33-199.6-199.52
		c0-110.19,89.37-199.52,199.6-199.52C429.95,40.58,519.33,129.91,519.33,240.1z"/>
	<path class="st1" d="M493.19,338.86c16.63-29.12,26.14-62.83,26.14-98.76c0-7.71-0.46-15.32-1.31-22.8l-88.63-74.41l-95.96,189.69
		L218.5,382.87l101.21,56.76c0,0,13.61,0.39,32.62-2.66c36.5-5.86,73.08-23.56,100.78-48.44L493.19,338.86z"/>
	<g>
		<g>
			<path class="st2" d="M428.37,339.15c0,0-9.12,17.76,1.04,37.75H219.55l-1.05-40.37L428.37,339.15z"/>
			<g>
				<defs>
					<path id="SVGID_1_" d="M428.37,339.15c0,0-9.12,17.76,1.04,37.75H219.55l-1.05-40.37L428.37,339.15z"/>
				</defs>
				<clipPath id="SVGID_2_">
					<use xlink:href="#SVGID_1_"  style="overflow:visible;"/>
				</clipPath>
				<g class="st3">
					<g>
						<g>
							<g>
								<rect x="218.5" y="341.23" class="st4" width="209.44" height="1.65"/>
							</g>
							<g>
								<rect x="218.5" y="344.52" class="st4" width="209.44" height="1.64"/>
							</g>
						</g>
						<g>
							<g>
								<rect x="218.5" y="349.46" class="st4" width="209.44" height="1.65"/>
							</g>
							<g>
								<rect x="218.5" y="354.4" class="st4" width="209.44" height="1.65"/>
							</g>
						</g>
					</g>
					<g>
						<g>
							<g>
								<rect x="218.5" y="357.69" class="st4" width="209.44" height="1.65"/>
							</g>
						</g>
						<g>
							<g>
								<rect x="218.5" y="360.98" class="st4" width="209.44" height="1.65"/>
							</g>
							<g>
								<rect x="218.5" y="365.92" class="st4" width="209.44" height="1.65"/>
							</g>
						</g>
						<g>
							<g>
								<rect x="218.5" y="370.86" class="st4" width="209.44" height="1.65"/>
							</g>
						</g>
					</g>
				</g>
			</g>
			<path class="st5" d="M221.3,353.25c0-1.6,0-3.4,0-5.36c0-9.51,7.71-8.74,7.71-8.74h203.56v-10.93H226.91
				c-4.32,0-7.32,1.25-9.4,3.06v0l-0.01,0.01c-0.18,0.16-0.35,0.32-0.52,0.49c-0.02,0.02-0.04,0.04-0.05,0.05
				c-0.1,0.09-0.2,0.18-0.28,0.28c-3.89,3.93-18.95,21.76-1.62,46.97c1.91,3.29,5.42,6.07,11.88,6.07h205.66v-10.93H229.01
				c0,0-7.71,0.77-7.71-8.74c0-1.96,0-3.75,0-5.36C221.3,360.13,221.3,357.38,221.3,353.25z"/>
		</g>
		<g>
			<g>
				<g>
					<path class="st6" d="M209.95,312.67l44.7,16.19l78.78-217.33c0,0-17.91-20.34-44.84-15.8L209.95,312.67z"/>
					<g>
						<path class="st7" d="M299.36,179.46l-28.02-10.15l22.6-62.36l28.02,10.15L299.36,179.46z M275.66,167.3l21.68,7.85l20.3-56.02
							l-21.67-7.85L275.66,167.3z"/>
					</g>
				</g>
				
					<rect x="247.03" y="240.08" transform="matrix(0.3406 -0.9402 0.9402 0.3406 -81.3002 411.7737)" class="st7" width="11.8" height="47.53"/>
				
					<rect x="241.28" y="255.94" transform="matrix(0.3406 -0.9402 0.9402 0.3406 -99.9803 416.861)" class="st7" width="11.8" height="47.54"/>
			</g>
			
				<linearGradient id="SVGID_3_" gradientUnits="userSpaceOnUse" x1="328.8298" y1="364.744" x2="328.8298" y2="128.0036" gradientTransform="matrix(0.934 0.3572 -0.3572 0.934 39.044 -142.9636)">
				<stop  offset="0" style="stop-color:#FFFFFF"/>
				<stop  offset="1" style="stop-color:#FFFFFF"/>
			</linearGradient>
			<path class="st8" d="M225.67,318.91l-15.73-6.01l78.64-217.17c0,0,1.34-0.45,8.07-0.66c3.58-0.11,8.82,0.9,8.82,0.9
				L225.67,318.91z"/>
		</g>
		<g>
			<g>
				<g>
					<path class="st9" d="M375.01,328.22h-54.38V142.47c0,0,27.19-13.29,54.38,0.42V328.22z"/>
					<g>
						<rect x="320.62" y="275.63" class="st10" width="54.38" height="13.5"/>
						<rect x="320.62" y="294.92" class="st10" width="54.38" height="13.5"/>
					</g>
					<g>
						<rect x="320.62" y="159.9" class="st10" width="54.38" height="13.5"/>
						<rect x="320.62" y="179.19" class="st10" width="54.38" height="13.5"/>
					</g>
				</g>
				<linearGradient id="SVGID_4_" gradientUnits="userSpaceOnUse" x1="330.7375" y1="328.2202" x2="330.7375" y2="137.109">
					<stop  offset="0" style="stop-color:#FFFFFF"/>
					<stop  offset="1" style="stop-color:#FFFFFF"/>
				</linearGradient>
				<path class="st11" d="M340.85,328.22h-20.23V142.47c0,0,0.79-0.75,9.51-3.34c4.09-1.22,10.72-2.03,10.72-2.03V328.22z"/>
			</g>
			<g>
				<g>
					<path class="st12" d="M429.38,328.22h-54.38V142.47c0,0,27.19-13.29,54.38,0.42V328.22z"/>
					<rect x="387.24" y="159.9" class="st13" width="29.91" height="35.2"/>
				</g>
				<linearGradient id="SVGID_5_" gradientUnits="userSpaceOnUse" x1="385.1215" y1="328.2202" x2="385.1215" y2="137.109">
					<stop  offset="0" style="stop-color:#FFFFFF"/>
					<stop  offset="1" style="stop-color:#FFFFFF"/>
				</linearGradient>
				<path class="st14" d="M395.24,328.22h-20.23V142.47c0,0,0.8-0.75,9.51-3.34c4.09-1.22,10.72-2.03,10.72-2.03V328.22z"/>
			</g>
		</g>
	</g>
</g>
</svg>
