<?xml version="1.0" encoding="utf-8"?>
<!-- Generator: Adobe Illustrator 24.0.2, SVG Export Plug-In . SVG Version: 6.00 Build 0)  -->
<svg version="1.1" id="Capa_1" xmlns="http://www.w3.org/2000/svg" xmlns:xlink="http://www.w3.org/1999/xlink" x="0px" y="0px"
	 viewBox="0 0 640 480" style="enable-background:new 0 0 640 480;" xml:space="preserve">
<style type="text/css">
	.st0{fill:#3A8789;}
	.st1{fill:#1D5656;}
	.st2{fill:#EAF4EF;}
	.st3{fill:#48C18D;}
	.st4{fill:#2F8E63;}
	.st5{fill:#30B277;}
	.st6{fill:#83E2BE;}
	.st7{fill:#4FC696;}
</style>
<g>
	<path class="st0" d="M531.21,245.67c0,108.81-89.03,197.01-198.85,197.01s-198.84-88.21-198.84-197.01
		c0-108.81,89.02-197.02,198.84-197.02S531.21,136.86,531.21,245.67z"/>
	<path class="st1" d="M531.21,245.67c0-17.53-2.32-34.52-6.66-50.7l-63.03-58.05L203.22,306.93L366,439.86l0,0
		C459.8,424.02,531.21,343.12,531.21,245.67z"/>
	<g>
		<path class="st2" d="M210.9,138.91c0,0,123.1-19.35,123.1,25.44h-24.7L210.9,138.91z"/>
		<path class="st2" d="M457.1,138.91c0,0-123.1-19.35-123.1,25.44h24.69L457.1,138.91z"/>
		<path class="st3" d="M309.3,164.34c0,0,22.14,8.68,46.13,0v185.54c0,0-20.76,15.08-46.13,0V164.34z"/>
		<path class="st4" d="M355.43,164.34H309.3C309.3,164.34,331.44,173.02,355.43,164.34z"/>
		<path class="st5" d="M309.3,172.11c0,0,23.16,10.72,46.13,0v22.83c0,0-19.98,15.91-46.13,0V172.11z"/>
		<path class="st5" d="M309.3,316.7c0,0,23.16,10.72,46.13,0v22.83c0,0-19.98,15.91-46.13,0V316.7z"/>
		<g>
			<polygon class="st6" points="203.22,136.92 203.22,306.93 309.3,349.88 309.3,164.34 			"/>
			<g>
				<path class="st7" d="M305.87,342.44l-99.22-40.18V144.57l1.32,0.34l97.91,25.3V342.44z M208.74,300.87l95.03,38.48V171.82
					l-95.03-24.56V300.87z"/>
			</g>
		</g>
		<g>
			<polygon class="st6" points="452.67,136.92 452.67,306.93 346.59,349.88 346.59,164.34 			"/>
			<g>
				<path class="st7" d="M350.02,170.22l97.91-25.3l1.31-0.34v157.69l-99.22,40.18V170.22z M447.14,147.26l-95.03,24.56v167.53
					l95.03-38.48V147.26z"/>
			</g>
		</g>
	</g>
</g>
</svg>
