<?xml version="1.0" encoding="utf-8"?>
<!-- Generator: Adobe Illustrator 24.0.2, SVG Export Plug-In . SVG Version: 6.00 Build 0)  -->
<svg version="1.1" xmlns="http://www.w3.org/2000/svg" xmlns:xlink="http://www.w3.org/1999/xlink" x="0px" y="0px"
	 viewBox="0 0 800 800" style="enable-background:new 0 0 800 800;" xml:space="preserve">
<style type="text/css">
	.st0{display:none;}
	.st1{display:inline;}
	.st2{fill:#F4ECE6;}
	.st3{fill:#BC9D88;}
</style>
<g id="Background" class="st0">
	<g class="st1">
		<rect class="st2" width="800" height="800"/>
		<g>
			<g>
				<g>
					<path class="st3" d="M288.49,775.67v-0.26c-0.35,0.4-0.69,0.72-1.03,0.97s-0.71,0.44-1.1,0.57c-0.4,0.13-0.83,0.2-1.3,0.2
						c-0.62,0-1.2-0.13-1.72-0.39c-0.53-0.26-0.99-0.64-1.37-1.13c-0.39-0.49-0.68-1.06-0.88-1.72c-0.2-0.66-0.3-1.37-0.3-2.14
						c0-1.62,0.4-2.89,1.19-3.79c0.79-0.9,1.83-1.36,3.13-1.36c0.75,0,1.38,0.13,1.89,0.38c0.51,0.26,1.01,0.65,1.5,1.18v-3.83
						c0-0.53,0.11-0.93,0.32-1.21c0.21-0.27,0.51-0.41,0.91-0.41c0.39,0,0.69,0.13,0.91,0.38c0.21,0.25,0.32,0.62,0.32,1.11v11.44
						c0,0.49-0.11,0.87-0.34,1.11c-0.23,0.25-0.52,0.37-0.88,0.37c-0.35,0-0.65-0.13-0.88-0.38
						C288.61,776.51,288.49,776.14,288.49,775.67z M283.39,771.86c0,0.7,0.11,1.3,0.33,1.79c0.22,0.49,0.52,0.87,0.9,1.12
						c0.38,0.25,0.79,0.38,1.24,0.38c0.46,0,0.87-0.12,1.25-0.36c0.38-0.24,0.68-0.6,0.9-1.09c0.22-0.49,0.34-1.11,0.34-1.84
						c0-0.69-0.11-1.28-0.34-1.78c-0.22-0.5-0.53-0.88-0.91-1.14c-0.38-0.26-0.8-0.39-1.26-0.39c-0.47,0-0.9,0.13-1.27,0.4
						c-0.37,0.27-0.66,0.65-0.87,1.16C283.49,770.61,283.39,771.2,283.39,771.86z"/>
					<path class="st3" d="M299.93,772.52h-5.07c0.01,0.59,0.13,1.11,0.36,1.56c0.23,0.45,0.54,0.79,0.92,1.02
						c0.38,0.23,0.81,0.34,1.27,0.34c0.31,0,0.59-0.04,0.85-0.11c0.26-0.07,0.5-0.19,0.75-0.34c0.24-0.15,0.46-0.32,0.67-0.5
						c0.2-0.18,0.46-0.42,0.79-0.72c0.13-0.11,0.32-0.17,0.57-0.17c0.27,0,0.48,0.07,0.64,0.22c0.17,0.15,0.25,0.35,0.25,0.62
						c0,0.23-0.09,0.51-0.28,0.82c-0.18,0.31-0.46,0.61-0.83,0.9c-0.37,0.29-0.84,0.53-1.4,0.72c-0.56,0.19-1.2,0.29-1.93,0.29
						c-1.66,0-2.96-0.48-3.88-1.43c-0.92-0.95-1.39-2.24-1.39-3.87c0-0.77,0.11-1.48,0.34-2.13c0.23-0.66,0.56-1.22,1-1.69
						c0.44-0.47,0.97-0.83,1.62-1.08c0.64-0.25,1.35-0.38,2.13-0.38c1.01,0,1.88,0.21,2.61,0.64c0.73,0.43,1.27,0.98,1.63,1.66
						c0.36,0.68,0.54,1.37,0.54,2.07c0,0.65-0.19,1.07-0.56,1.27C301.13,772.42,300.6,772.52,299.93,772.52z M294.85,771.04h4.7
						c-0.06-0.89-0.3-1.55-0.72-1.99c-0.42-0.44-0.96-0.66-1.64-0.66c-0.65,0-1.18,0.22-1.59,0.67
						C295.2,769.51,294.94,770.17,294.85,771.04z"/>
					<path class="st3" d="M311.74,773.76c0,0.72-0.17,1.33-0.52,1.84c-0.35,0.51-0.86,0.9-1.54,1.16c-0.68,0.26-1.51,0.39-2.48,0.39
						c-0.93,0-1.73-0.14-2.39-0.43c-0.66-0.29-1.16-0.64-1.47-1.07c-0.32-0.43-0.47-0.86-0.47-1.29c0-0.29,0.1-0.53,0.3-0.73
						c0.2-0.2,0.46-0.3,0.77-0.3c0.27,0,0.48,0.07,0.63,0.2c0.15,0.13,0.29,0.32,0.42,0.56c0.27,0.46,0.58,0.81,0.96,1.04
						c0.37,0.23,0.88,0.34,1.52,0.34c0.52,0,0.94-0.12,1.28-0.35c0.33-0.23,0.5-0.5,0.5-0.79c0-0.46-0.17-0.79-0.52-1
						c-0.35-0.21-0.91-0.41-1.71-0.6c-0.89-0.22-1.62-0.45-2.18-0.7c-0.56-0.24-1.01-0.56-1.34-0.96c-0.34-0.4-0.5-0.89-0.5-1.47
						c0-0.52,0.16-1.01,0.47-1.47c0.31-0.46,0.77-0.83,1.37-1.11c0.6-0.28,1.33-0.41,2.19-0.41c0.67,0,1.27,0.07,1.81,0.21
						c0.54,0.14,0.98,0.33,1.34,0.56c0.36,0.23,0.63,0.49,0.82,0.78c0.19,0.29,0.28,0.56,0.28,0.84c0,0.3-0.1,0.54-0.3,0.73
						c-0.2,0.19-0.48,0.29-0.85,0.29c-0.27,0-0.49-0.08-0.68-0.23c-0.19-0.15-0.4-0.38-0.64-0.68c-0.2-0.25-0.43-0.46-0.69-0.61
						c-0.27-0.15-0.63-0.23-1.08-0.23c-0.47,0-0.86,0.1-1.17,0.3c-0.31,0.2-0.47,0.45-0.47,0.74c0,0.27,0.11,0.5,0.34,0.67
						c0.23,0.18,0.54,0.32,0.92,0.43c0.39,0.11,0.92,0.25,1.6,0.42c0.8,0.2,1.46,0.43,1.97,0.7c0.51,0.27,0.9,0.59,1.16,0.96
						C311.61,772.86,311.74,773.29,311.74,773.76z"/>
					<path class="st3" d="M314.39,765.4c-0.36,0-0.67-0.11-0.93-0.33c-0.26-0.22-0.38-0.54-0.38-0.94c0-0.37,0.13-0.67,0.39-0.91
						c0.26-0.24,0.57-0.36,0.92-0.36c0.34,0,0.63,0.11,0.89,0.32c0.26,0.21,0.39,0.53,0.39,0.94c0,0.4-0.13,0.71-0.38,0.94
						C315.04,765.29,314.74,765.4,314.39,765.4z M315.67,768.08v7.49c0,0.52-0.12,0.91-0.37,1.18c-0.25,0.27-0.56,0.4-0.94,0.4
						c-0.38,0-0.69-0.14-0.93-0.41c-0.24-0.27-0.36-0.66-0.36-1.17v-7.42c0-0.51,0.12-0.9,0.36-1.16c0.24-0.26,0.55-0.39,0.93-0.39
						c0.38,0,0.69,0.13,0.94,0.39C315.55,767.26,315.67,767.62,315.67,768.08z"/>
					<path class="st3" d="M327.03,768.51v7.53c0,0.86-0.09,1.6-0.28,2.22c-0.18,0.62-0.48,1.13-0.88,1.54
						c-0.41,0.4-0.94,0.71-1.59,0.9c-0.66,0.2-1.47,0.29-2.45,0.29c-0.89,0-1.69-0.13-2.39-0.38c-0.7-0.25-1.24-0.57-1.62-0.97
						c-0.38-0.39-0.57-0.8-0.57-1.22c0-0.32,0.11-0.57,0.32-0.77c0.21-0.2,0.47-0.3,0.78-0.3c0.38,0,0.71,0.17,1,0.5
						c0.14,0.17,0.28,0.35,0.43,0.52c0.15,0.17,0.31,0.32,0.49,0.45c0.18,0.12,0.4,0.21,0.65,0.27c0.25,0.06,0.55,0.09,0.87,0.09
						c0.67,0,1.19-0.09,1.56-0.28c0.37-0.19,0.63-0.45,0.78-0.79c0.15-0.33,0.24-0.69,0.26-1.08c0.03-0.38,0.04-1,0.06-1.85
						c-0.4,0.56-0.86,0.98-1.38,1.28c-0.52,0.29-1.14,0.44-1.87,0.44c-0.87,0-1.63-0.22-2.28-0.66c-0.65-0.44-1.15-1.06-1.5-1.86
						c-0.35-0.8-0.52-1.72-0.52-2.76c0-0.78,0.11-1.48,0.32-2.11c0.21-0.63,0.52-1.16,0.91-1.59c0.39-0.43,0.85-0.75,1.36-0.97
						s1.08-0.33,1.69-0.33c0.73,0,1.37,0.14,1.91,0.42c0.54,0.28,1.04,0.72,1.5,1.33v-0.35c0-0.45,0.11-0.8,0.33-1.04
						c0.22-0.25,0.51-0.37,0.86-0.37c0.5,0,0.83,0.16,1,0.49C326.95,767.42,327.03,767.89,327.03,768.51z M319.52,771.79
						c0,1.05,0.23,1.85,0.69,2.38c0.46,0.54,1.05,0.81,1.78,0.81c0.43,0,0.84-0.12,1.22-0.35c0.38-0.23,0.7-0.58,0.94-1.04
						c0.24-0.47,0.36-1.03,0.36-1.7c0-1.06-0.23-1.88-0.7-2.47c-0.47-0.59-1.08-0.88-1.84-0.88c-0.74,0-1.33,0.28-1.78,0.85
						C319.74,769.96,319.52,770.76,319.52,771.79z"/>
					<path class="st3" d="M331.15,768.04v0.31c0.46-0.6,0.95-1.04,1.5-1.32c0.54-0.28,1.16-0.42,1.87-0.42
						c0.68,0,1.29,0.15,1.83,0.45c0.54,0.3,0.94,0.72,1.21,1.26c0.17,0.32,0.28,0.66,0.33,1.03c0.05,0.37,0.08,0.84,0.08,1.41v4.82
						c0,0.52-0.12,0.91-0.36,1.18c-0.24,0.27-0.55,0.4-0.93,0.4c-0.39,0-0.7-0.14-0.94-0.41c-0.24-0.27-0.36-0.66-0.36-1.17v-4.32
						c0-0.86-0.12-1.51-0.36-1.96c-0.24-0.45-0.71-0.68-1.42-0.68c-0.46,0-0.88,0.14-1.26,0.41s-0.66,0.65-0.84,1.13
						c-0.13,0.39-0.19,1.11-0.19,2.17v3.25c0,0.53-0.12,0.92-0.37,1.18c-0.24,0.26-0.56,0.39-0.95,0.39c-0.37,0-0.68-0.14-0.92-0.41
						c-0.24-0.27-0.36-0.66-0.36-1.17v-7.49c0-0.49,0.11-0.86,0.32-1.11c0.22-0.24,0.51-0.37,0.88-0.37c0.23,0,0.43,0.05,0.62,0.16
						c0.18,0.11,0.33,0.27,0.44,0.48C331.1,767.47,331.15,767.73,331.15,768.04z"/>
					<path class="st3" d="M346.93,772.52h-5.07c0.01,0.59,0.12,1.11,0.36,1.56c0.23,0.45,0.54,0.79,0.92,1.02
						c0.38,0.23,0.81,0.34,1.27,0.34c0.31,0,0.59-0.04,0.85-0.11c0.26-0.07,0.5-0.19,0.75-0.34c0.24-0.15,0.46-0.32,0.66-0.5
						c0.2-0.18,0.46-0.42,0.79-0.72c0.13-0.11,0.32-0.17,0.57-0.17c0.27,0,0.48,0.07,0.65,0.22c0.17,0.15,0.25,0.35,0.25,0.62
						c0,0.23-0.09,0.51-0.28,0.82c-0.18,0.31-0.46,0.61-0.83,0.9c-0.37,0.29-0.83,0.53-1.4,0.72c-0.56,0.19-1.21,0.29-1.93,0.29
						c-1.67,0-2.96-0.48-3.89-1.43c-0.92-0.95-1.39-2.24-1.39-3.87c0-0.77,0.11-1.48,0.34-2.13c0.23-0.66,0.56-1.22,1-1.69
						c0.44-0.47,0.97-0.83,1.61-1.08c0.64-0.25,1.35-0.38,2.13-0.38c1.01,0,1.88,0.21,2.61,0.64c0.73,0.43,1.27,0.98,1.63,1.66
						c0.36,0.68,0.54,1.37,0.54,2.07c0,0.65-0.19,1.07-0.56,1.27C348.13,772.42,347.6,772.52,346.93,772.52z M341.86,771.04h4.7
						c-0.06-0.89-0.3-1.55-0.72-1.99c-0.41-0.44-0.96-0.66-1.64-0.66c-0.65,0-1.18,0.22-1.59,0.67
						C342.19,769.51,341.94,770.17,341.86,771.04z"/>
					<path class="st3" d="M357.5,775.67v-0.26c-0.35,0.4-0.69,0.72-1.03,0.97c-0.34,0.25-0.71,0.44-1.1,0.57
						c-0.4,0.13-0.83,0.2-1.3,0.2c-0.62,0-1.2-0.13-1.72-0.39c-0.53-0.26-0.99-0.64-1.37-1.13c-0.39-0.49-0.68-1.06-0.88-1.72
						c-0.2-0.66-0.3-1.37-0.3-2.14c0-1.62,0.4-2.89,1.19-3.79c0.79-0.9,1.83-1.36,3.13-1.36c0.75,0,1.38,0.13,1.89,0.38
						c0.51,0.26,1.01,0.65,1.5,1.18v-3.83c0-0.53,0.11-0.93,0.32-1.21c0.21-0.27,0.51-0.41,0.91-0.41c0.39,0,0.69,0.13,0.91,0.38
						c0.21,0.25,0.32,0.62,0.32,1.11v11.44c0,0.49-0.11,0.87-0.34,1.11c-0.23,0.25-0.52,0.37-0.88,0.37c-0.35,0-0.65-0.13-0.88-0.38
						C357.61,776.51,357.5,776.14,357.5,775.67z M352.4,771.86c0,0.7,0.11,1.3,0.33,1.79c0.22,0.49,0.52,0.87,0.9,1.12
						c0.38,0.25,0.79,0.38,1.24,0.38c0.46,0,0.87-0.12,1.25-0.36c0.38-0.24,0.68-0.6,0.9-1.09c0.22-0.49,0.34-1.11,0.34-1.84
						c0-0.69-0.11-1.28-0.34-1.78c-0.22-0.5-0.53-0.88-0.91-1.14c-0.38-0.26-0.8-0.39-1.26-0.39c-0.47,0-0.9,0.13-1.27,0.4
						c-0.37,0.27-0.66,0.65-0.87,1.16C352.5,770.61,352.4,771.2,352.4,771.86z"/>
					<path class="st3" d="M368.09,764.23v3.96c0.49-0.51,0.98-0.89,1.49-1.16c0.51-0.27,1.13-0.4,1.88-0.4
						c0.86,0,1.62,0.2,2.27,0.61c0.65,0.41,1.15,1,1.51,1.78c0.36,0.78,0.54,1.7,0.54,2.76c0,0.79-0.1,1.5-0.3,2.16
						c-0.2,0.65-0.49,1.22-0.87,1.7c-0.38,0.48-0.84,0.86-1.38,1.12c-0.54,0.26-1.14,0.39-1.79,0.39c-0.4,0-0.77-0.05-1.13-0.14
						c-0.35-0.1-0.65-0.22-0.9-0.38c-0.25-0.15-0.46-0.31-0.63-0.48c-0.17-0.16-0.4-0.41-0.69-0.74v0.26c0,0.49-0.12,0.86-0.35,1.11
						c-0.23,0.25-0.53,0.38-0.89,0.38c-0.37,0-0.66-0.13-0.88-0.38c-0.22-0.25-0.33-0.62-0.33-1.11v-11.32
						c0-0.53,0.11-0.92,0.32-1.19c0.21-0.27,0.51-0.4,0.89-0.4c0.4,0,0.71,0.13,0.92,0.38
						C367.99,763.39,368.09,763.76,368.09,764.23z M368.22,771.94c0,1.03,0.24,1.82,0.71,2.38c0.47,0.55,1.09,0.83,1.86,0.83
						c0.65,0,1.21-0.28,1.69-0.85c0.47-0.57,0.71-1.38,0.71-2.44c0-0.68-0.1-1.27-0.29-1.77c-0.2-0.49-0.47-0.88-0.83-1.14
						c-0.36-0.27-0.78-0.4-1.26-0.4c-0.49,0-0.94,0.13-1.32,0.4c-0.39,0.27-0.69,0.66-0.91,1.17
						C368.33,770.63,368.22,771.23,368.22,771.94z"/>
					<path class="st3" d="M379.14,777.47l0.24-0.58l-3.19-8.04c-0.2-0.46-0.29-0.8-0.29-1.01c0-0.22,0.06-0.43,0.17-0.62
						c0.12-0.19,0.27-0.34,0.47-0.46c0.2-0.12,0.41-0.17,0.62-0.17c0.37,0,0.66,0.12,0.85,0.36c0.19,0.24,0.36,0.58,0.5,1.02
						l2.19,6.38l2.08-5.94c0.16-0.48,0.31-0.86,0.45-1.13c0.13-0.27,0.27-0.46,0.42-0.55c0.15-0.1,0.36-0.14,0.63-0.14
						c0.2,0,0.38,0.05,0.56,0.16c0.18,0.1,0.32,0.24,0.42,0.42c0.1,0.18,0.15,0.36,0.15,0.56c-0.03,0.12-0.07,0.29-0.13,0.51
						c-0.06,0.22-0.13,0.45-0.21,0.67l-3.38,8.85c-0.29,0.78-0.58,1.39-0.86,1.83c-0.28,0.44-0.65,0.79-1.11,1.02
						c-0.46,0.24-1.08,0.36-1.86,0.36c-0.76,0-1.33-0.08-1.71-0.25c-0.38-0.17-0.57-0.47-0.57-0.9c0-0.3,0.09-0.53,0.27-0.69
						c0.18-0.16,0.45-0.24,0.8-0.24c0.14,0,0.28,0.02,0.41,0.06c0.16,0.04,0.31,0.06,0.43,0.06c0.3,0,0.53-0.04,0.7-0.13
						c0.17-0.09,0.32-0.24,0.46-0.46C378.81,778.22,378.96,777.9,379.14,777.47z"/>
				</g>
				<g>
					<path class="st3" d="M416.7,766.83h0.62v-0.78c0-0.81,0.1-1.46,0.31-1.94c0.2-0.48,0.55-0.83,1.05-1.04
						c0.49-0.22,1.16-0.33,2.02-0.33c1.52,0,2.27,0.37,2.27,1.11c0,0.24-0.08,0.45-0.24,0.62c-0.15,0.17-0.34,0.26-0.56,0.26
						c-0.1,0-0.28-0.02-0.53-0.06c-0.24-0.03-0.45-0.06-0.62-0.06c-0.47,0-0.77,0.14-0.9,0.42c-0.13,0.28-0.2,0.67-0.2,1.18v0.62
						h0.63c0.99,0,1.48,0.3,1.48,0.9c0,0.42-0.13,0.69-0.39,0.8c-0.26,0.11-0.62,0.17-1.09,0.17h-0.63v6.87
						c0,0.51-0.12,0.9-0.37,1.17c-0.24,0.27-0.55,0.41-0.94,0.41c-0.37,0-0.67-0.13-0.92-0.41c-0.24-0.27-0.36-0.66-0.36-1.17v-6.87
						h-0.71c-0.39,0-0.68-0.08-0.89-0.26c-0.21-0.17-0.31-0.4-0.31-0.68C415.4,767.14,415.83,766.83,416.7,766.83"/>
					<path class="st3" d="M425.19,773.41v2.17c0,0.52-0.13,0.92-0.38,1.18c-0.25,0.27-0.56,0.39-0.94,0.39
						c-0.38,0-0.69-0.13-0.93-0.4c-0.24-0.26-0.36-0.66-0.36-1.17v-7.22c0-1.17,0.42-1.75,1.26-1.75c0.43,0,0.74,0.13,0.93,0.41
						c0.19,0.27,0.29,0.67,0.32,1.21c0.31-0.53,0.63-0.93,0.95-1.21c0.33-0.27,0.76-0.41,1.31-0.41c0.55,0,1.07,0.13,1.59,0.41
						c0.52,0.27,0.77,0.64,0.77,1.08c0,0.31-0.11,0.58-0.33,0.78c-0.22,0.21-0.46,0.31-0.71,0.31c-0.1,0-0.33-0.06-0.69-0.18
						c-0.37-0.11-0.69-0.17-0.96-0.17c-0.38,0-0.69,0.1-0.93,0.3c-0.24,0.2-0.43,0.5-0.56,0.89c-0.13,0.39-0.22,0.87-0.27,1.4
						C425.21,771.97,425.19,772.63,425.19,773.41"/>
					<path class="st3" d="M437.11,772.52h-5.07c0.01,0.59,0.13,1.11,0.36,1.56c0.23,0.45,0.54,0.79,0.92,1.02
						c0.38,0.23,0.8,0.34,1.27,0.34c0.31,0,0.59-0.03,0.85-0.11c0.25-0.07,0.5-0.19,0.74-0.34c0.24-0.15,0.46-0.32,0.66-0.5
						c0.2-0.18,0.47-0.42,0.79-0.72c0.13-0.11,0.32-0.17,0.57-0.17c0.27,0,0.48,0.07,0.65,0.22c0.17,0.15,0.24,0.35,0.24,0.62
						c0,0.24-0.09,0.51-0.27,0.82c-0.19,0.32-0.46,0.62-0.84,0.91c-0.38,0.29-0.84,0.53-1.4,0.71c-0.56,0.19-1.21,0.29-1.93,0.29
						c-1.67,0-2.96-0.47-3.89-1.42c-0.92-0.95-1.39-2.24-1.39-3.87c0-0.77,0.12-1.48,0.35-2.13c0.22-0.66,0.56-1.22,1-1.69
						c0.44-0.47,0.97-0.83,1.61-1.08c0.64-0.25,1.35-0.38,2.13-0.38c1.01,0,1.88,0.21,2.61,0.65c0.72,0.42,1.27,0.98,1.63,1.65
						c0.36,0.68,0.54,1.37,0.54,2.07c0,0.65-0.19,1.07-0.56,1.27C438.32,772.42,437.79,772.52,437.11,772.52 M432.04,771.04h4.7
						c-0.06-0.89-0.3-1.55-0.71-1.99c-0.42-0.44-0.96-0.66-1.64-0.66c-0.65,0-1.18,0.22-1.59,0.67
						C432.38,769.51,432.13,770.17,432.04,771.04"/>
					<path class="st3" d="M447.9,772.52h-5.07c0.01,0.59,0.13,1.11,0.35,1.56c0.23,0.45,0.54,0.79,0.92,1.02
						c0.38,0.23,0.8,0.34,1.27,0.34c0.31,0,0.59-0.03,0.84-0.11c0.26-0.07,0.51-0.19,0.75-0.34c0.24-0.15,0.46-0.32,0.66-0.5
						c0.2-0.18,0.46-0.42,0.79-0.72c0.13-0.11,0.33-0.17,0.57-0.17c0.27,0,0.48,0.07,0.65,0.22c0.16,0.15,0.24,0.35,0.24,0.62
						c0,0.24-0.09,0.51-0.27,0.82c-0.18,0.32-0.46,0.62-0.83,0.91c-0.37,0.29-0.84,0.53-1.4,0.71c-0.56,0.19-1.21,0.29-1.93,0.29
						c-1.67,0-2.96-0.47-3.89-1.42c-0.92-0.95-1.39-2.24-1.39-3.87c0-0.77,0.12-1.48,0.35-2.13c0.23-0.66,0.56-1.22,1-1.69
						c0.44-0.47,0.97-0.83,1.61-1.08c0.64-0.25,1.35-0.38,2.13-0.38c1.01,0,1.88,0.21,2.61,0.65c0.72,0.42,1.27,0.98,1.62,1.65
						c0.36,0.68,0.54,1.37,0.54,2.07c0,0.65-0.19,1.07-0.56,1.27C449.1,772.42,448.58,772.52,447.9,772.52 M442.83,771.04h4.7
						c-0.06-0.89-0.3-1.55-0.71-1.99c-0.42-0.44-0.96-0.66-1.64-0.66c-0.65,0-1.18,0.22-1.59,0.67
						C443.17,769.51,442.91,770.17,442.83,771.04"/>
					<path class="st3" d="M453.58,768.06v0.31c0.49-0.6,0.99-1.04,1.53-1.32c0.52-0.29,1.12-0.43,1.78-0.43
						c0.79,0,1.54,0.21,2.21,0.62c0.67,0.41,1.2,1.02,1.59,1.81c0.39,0.79,0.59,1.73,0.59,2.81c0,0.8-0.11,1.53-0.34,2.2
						c-0.22,0.67-0.54,1.23-0.93,1.68c-0.39,0.45-0.86,0.8-1.39,1.05c-0.54,0.24-1.11,0.36-1.73,0.36c-0.74,0-1.36-0.15-1.87-0.45
						c-0.5-0.29-0.98-0.73-1.44-1.31v3.89c0,1.14-0.42,1.71-1.24,1.71c-0.49,0-0.81-0.15-0.97-0.44c-0.15-0.3-0.23-0.72-0.23-1.29
						v-11.2c0-0.49,0.11-0.86,0.32-1.11c0.21-0.24,0.51-0.36,0.88-0.36c0.37,0,0.67,0.13,0.9,0.37
						C453.47,767.23,453.58,767.59,453.58,768.06 M458.66,771.83c0-0.68-0.11-1.27-0.31-1.76c-0.21-0.49-0.5-0.87-0.87-1.13
						c-0.37-0.26-0.78-0.4-1.23-0.4c-0.71,0-1.32,0.28-1.81,0.84c-0.49,0.57-0.74,1.4-0.74,2.49c0,1.03,0.24,1.83,0.74,2.41
						c0.49,0.57,1.09,0.86,1.81,0.86c0.43,0,0.83-0.13,1.2-0.37c0.37-0.25,0.66-0.63,0.88-1.13
						C458.55,773.14,458.66,772.54,458.66,771.83"/>
					<path class="st3" d="M463.88,765.4c-0.36,0-0.67-0.12-0.92-0.34c-0.26-0.22-0.39-0.53-0.39-0.94c0-0.37,0.13-0.67,0.4-0.91
						c0.26-0.23,0.57-0.36,0.91-0.36c0.34,0,0.63,0.11,0.89,0.32c0.26,0.22,0.39,0.54,0.39,0.95c0,0.4-0.13,0.71-0.38,0.94
						C464.53,765.28,464.23,765.4,463.88,765.4 M465.16,768.07v7.5c0,0.52-0.12,0.91-0.37,1.17c-0.25,0.27-0.56,0.4-0.94,0.4
						c-0.38,0-0.69-0.13-0.93-0.41c-0.23-0.28-0.36-0.67-0.36-1.17v-7.43c0-0.51,0.12-0.89,0.36-1.15c0.24-0.26,0.55-0.39,0.93-0.39
						c0.38,0,0.69,0.13,0.94,0.39C465.04,767.25,465.16,767.62,465.16,768.07"/>
					<path class="st3" d="M473.52,775.97l-2.28-3.77l-1.41,1.33v2.06c0,0.5-0.13,0.88-0.4,1.15c-0.26,0.27-0.57,0.41-0.91,0.41
						c-0.4,0-0.71-0.13-0.94-0.4c-0.23-0.26-0.34-0.66-0.34-1.17v-11.06c0-0.57,0.12-1.01,0.33-1.31c0.22-0.3,0.54-0.45,0.95-0.45
						c0.4,0,0.71,0.14,0.95,0.41c0.23,0.27,0.35,0.67,0.35,1.2v6.29l2.92-3.06c0.36-0.38,0.63-0.64,0.83-0.78
						c0.19-0.14,0.42-0.21,0.69-0.21c0.33,0,0.59,0.1,0.82,0.31c0.21,0.21,0.32,0.46,0.32,0.77c0,0.38-0.35,0.89-1.05,1.52
						l-1.38,1.26l2.66,4.18c0.19,0.31,0.34,0.55,0.42,0.71c0.08,0.16,0.13,0.32,0.13,0.46c0,0.41-0.12,0.73-0.34,0.98
						c-0.22,0.24-0.52,0.35-0.88,0.35c-0.32,0-0.56-0.08-0.73-0.26C474.05,776.72,473.81,776.41,473.52,775.97"/>
					<path class="st3" d="M479.16,777.15c-0.39,0-0.73-0.13-1.01-0.38c-0.29-0.25-0.43-0.61-0.43-1.06c0-0.39,0.14-0.72,0.41-1
						c0.28-0.28,0.61-0.42,1.01-0.42c0.4,0,0.74,0.14,1.02,0.41c0.28,0.28,0.42,0.61,0.42,1c0,0.45-0.14,0.81-0.42,1.06
						C479.87,777.02,479.54,777.15,479.16,777.15"/>
					<path class="st3" d="M492.06,773.94c0,0.32-0.1,0.67-0.29,1.04c-0.19,0.37-0.49,0.72-0.89,1.05c-0.39,0.33-0.89,0.6-1.49,0.8
						c-0.6,0.2-1.28,0.31-2.03,0.31c-1.61,0-2.86-0.47-3.76-1.4c-0.89-0.94-1.35-2.19-1.35-3.76c0-1.07,0.2-2.01,0.62-2.82
						c0.41-0.81,1-1.45,1.78-1.89c0.78-0.45,1.72-0.67,2.8-0.67c0.67,0,1.29,0.1,1.85,0.29c0.56,0.2,1.03,0.45,1.43,0.76
						c0.39,0.31,0.69,0.64,0.89,0.99c0.21,0.35,0.31,0.68,0.31,0.99c0,0.31-0.11,0.57-0.34,0.79c-0.23,0.22-0.52,0.33-0.84,0.33
						c-0.22,0-0.4-0.06-0.54-0.17c-0.14-0.11-0.3-0.29-0.48-0.54c-0.32-0.48-0.65-0.84-1-1.08c-0.34-0.24-0.78-0.36-1.31-0.36
						c-0.76,0-1.38,0.3-1.85,0.9c-0.47,0.6-0.7,1.42-0.7,2.45c0,0.49,0.06,0.94,0.18,1.35c0.12,0.41,0.29,0.76,0.52,1.04
						c0.23,0.29,0.5,0.5,0.83,0.65c0.32,0.15,0.68,0.22,1.06,0.22c0.52,0,0.97-0.12,1.34-0.36c0.38-0.24,0.7-0.61,0.99-1.1
						c0.16-0.29,0.33-0.52,0.51-0.68c0.18-0.16,0.41-0.25,0.68-0.25c0.32,0,0.58,0.12,0.79,0.36
						C491.95,773.41,492.06,773.67,492.06,773.94"/>
					<path class="st3" d="M503.25,771.88c0,0.77-0.12,1.48-0.36,2.14c-0.25,0.65-0.59,1.21-1.05,1.68c-0.46,0.47-1,0.83-1.63,1.08
						c-0.64,0.25-1.35,0.38-2.14,0.38c-0.79,0-1.49-0.13-2.12-0.38c-0.62-0.25-1.17-0.62-1.63-1.08c-0.46-0.48-0.81-1.04-1.05-1.68
						c-0.23-0.64-0.35-1.35-0.35-2.13c0-0.79,0.12-1.51,0.36-2.16c0.24-0.65,0.59-1.21,1.04-1.67c0.45-0.46,0.99-0.82,1.63-1.07
						c0.64-0.25,1.35-0.37,2.12-0.37c0.79,0,1.5,0.13,2.14,0.38c0.64,0.25,1.18,0.62,1.64,1.08c0.46,0.47,0.8,1.03,1.04,1.67
						C503.13,770.39,503.25,771.1,503.25,771.88 M500.64,771.88c0-1.06-0.23-1.88-0.7-2.47c-0.46-0.6-1.09-0.89-1.88-0.89
						c-0.51,0-0.96,0.13-1.34,0.39c-0.39,0.26-0.68,0.65-0.89,1.16c-0.21,0.51-0.31,1.11-0.31,1.8c0,0.68,0.1,1.27,0.31,1.77
						c0.21,0.51,0.5,0.9,0.89,1.17c0.38,0.27,0.83,0.4,1.35,0.4c0.79,0,1.41-0.3,1.88-0.89
						C500.41,773.74,500.64,772.92,500.64,771.88"/>
					<path class="st3" d="M513.14,772.07v3.45c0,0.55-0.12,0.95-0.37,1.23c-0.25,0.27-0.57,0.41-0.98,0.41
						c-0.39,0-0.71-0.14-0.95-0.41c-0.25-0.28-0.37-0.68-0.37-1.23v-4.13c0-0.65-0.02-1.16-0.06-1.53
						c-0.04-0.35-0.17-0.65-0.36-0.88c-0.2-0.23-0.51-0.35-0.93-0.35c-0.85,0-1.41,0.29-1.68,0.88c-0.27,0.58-0.41,1.41-0.41,2.51
						v3.5c0,0.54-0.12,0.95-0.36,1.22c-0.25,0.27-0.57,0.41-0.96,0.41c-0.4,0-0.72-0.14-0.97-0.41c-0.25-0.28-0.38-0.69-0.38-1.22
						v-7.42c0-0.49,0.11-0.86,0.34-1.11c0.23-0.26,0.53-0.38,0.89-0.38c0.36,0,0.65,0.12,0.89,0.36c0.24,0.24,0.35,0.57,0.35,0.98
						v0.24c0.45-0.54,0.94-0.93,1.45-1.18c0.52-0.26,1.08-0.39,1.71-0.39c0.65,0,1.21,0.13,1.68,0.39c0.47,0.26,0.85,0.65,1.16,1.18
						c0.44-0.53,0.91-0.92,1.41-1.18c0.5-0.26,1.05-0.39,1.66-0.39c0.71,0,1.32,0.14,1.83,0.42c0.51,0.28,0.89,0.68,1.15,1.2
						c0.22,0.47,0.33,1.21,0.33,2.22v5.06c0,0.55-0.12,0.95-0.37,1.23c-0.25,0.27-0.57,0.41-0.98,0.41c-0.39,0-0.71-0.14-0.96-0.41
						c-0.25-0.28-0.38-0.69-0.38-1.22v-4.36c0-0.56-0.02-1-0.07-1.34c-0.05-0.34-0.18-0.62-0.38-0.85
						c-0.21-0.23-0.53-0.34-0.95-0.34c-0.34,0-0.67,0.11-0.97,0.31c-0.31,0.2-0.55,0.48-0.72,0.81
						C513.24,770.18,513.14,770.96,513.14,772.07"/>
				</g>
				<g>
					<path class="st3" d="M392.44,771.25c0-0.01,0-0.01,0-0.02C392.43,771.24,392.43,771.25,392.44,771.25z"/>
					<path class="st3" d="M392.57,772.08C392.57,772.08,392.57,772.08,392.57,772.08c-0.05-0.24-0.09-0.47-0.12-0.7
						C392.48,771.61,392.52,771.85,392.57,772.08z"/>
					<path class="st3" d="M393.42,774.49c-0.01-0.01-0.01-0.02-0.02-0.03C393.41,774.46,393.42,774.48,393.42,774.49z"/>
					<path class="st3" d="M393.34,774.33c-0.02-0.04-0.04-0.09-0.07-0.13C393.3,774.24,393.32,774.28,393.34,774.33z"/>
					<path class="st3" d="M392.81,773.01c0.13,0.4,0.28,0.79,0.46,1.16C393.08,773.79,392.93,773.4,392.81,773.01
						C392.81,773.01,392.81,773.01,392.81,773.01z"/>
					<path class="st3" d="M402.47,761.31c0.5,0,0.87,0.04,1.29,0.11l0.12-0.76c0,0-1.17-0.36-2.71-0.23l-0.12-0.41
						c0.48-0.1,0.84-0.53,0.84-1.04c0-0.58-0.47-1.05-1.06-1.05c-0.58,0-1.06,0.47-1.06,1.05c0,0.51,0.36,0.93,0.84,1.04l0.13,0.46
						c-1.63,0.22-2.94,0.86-2.94,0.86l0.23,0.71c0.99-0.33,1.85-0.53,2.62-0.61C401.43,761.35,402.01,761.31,402.47,761.31z"/>
					<path class="st3" d="M393.41,765.17L393.41,765.17c0.04-0.06,0.08-0.1,0.12-0.15l-0.31-0.22l-0.49-0.36
						c-0.03,0.04-0.79,0.74-1.4,2.05c-0.03-0.04-0.06-0.08-0.09-0.12c-0.18-0.2-0.44-0.3-0.76-0.29c0,0-0.01,0-0.02,0
						c-0.2,0-0.34-0.07-0.43-0.15c0.09-0.11,0.14-0.26,0.14-0.41c0-0.37-0.3-0.67-0.67-0.67c-0.37,0-0.67,0.3-0.67,0.67
						c0,0.37,0.3,0.67,0.67,0.67c0.06,0,0.11-0.01,0.17-0.02c0.16,0.18,0.42,0.34,0.81,0.33c0.2,0,0.34,0.05,0.44,0.16
						c0.11,0.12,0.15,0.3,0.16,0.43c0,0,0,0,0,0c-0.44,1.19-0.31,2.67-0.31,2.67l1.06,0.04c0.02-0.54,0.1-1.48,0.37-2.23
						C392.72,766.12,393.38,765.21,393.41,765.17z"/>
					<path class="st3" d="M411.67,762.2c-0.37,0-0.67,0.3-0.67,0.67c0,0.06,0.01,0.11,0.02,0.16c-0.18,0.17-0.34,0.43-0.34,0.81
						c0,0.2-0.05,0.34-0.15,0.44c-0.08,0.07-0.19,0.12-0.29,0.14c-0.79-1.1-1.76-1.78-1.76-1.78l-0.76,0.81
						c0.57,0.52,1.16,1.18,1.73,1.99c0.39,0.56,0.8,1.29,1.14,2.02l1.02-0.49c0,0-0.47-1.16-1.13-2.19c0.11-0.04,0.23-0.1,0.33-0.19
						c0.2-0.18,0.3-0.44,0.29-0.76c0-0.21,0.07-0.35,0.15-0.44c0.12,0.09,0.26,0.14,0.41,0.14c0.37,0,0.67-0.3,0.67-0.67
						C412.34,762.5,412.04,762.2,411.67,762.2z"/>
					<path class="st3" d="M409.02,771.4c-1.41,0.69-3.73,1.59-6.78,2.02c-1.2,0.17-2.36,0.23-3.43,0.23c-1.39,0-2.62-0.1-3.56-0.22
						c-1.08-0.14-1.92-0.3-2.43-0.42c0.12,0.39,0.27,0.78,0.45,1.16c0,0.01,0.01,0.02,0.01,0.03c0.02,0.04,0.04,0.09,0.07,0.13
						c0.02,0.04,0.04,0.09,0.07,0.13c0.01,0.01,0.01,0.02,0.02,0.03c0.3,0.57,0.67,1.1,1.08,1.55c1.44,1.58,2.91,1.82,2.92,1.83
						l0.02,0l0.02,0.01c0.01,0,1.31,0.42,3.29,0.42c1.95,0,3.86-0.39,5.67-1.17c1.35-0.69,2.62-1.74,3.25-2.67
						c0.49-0.72,0.84-1.49,1.05-2.29c0.11-0.43,0.2-1.11,0.15-1.83C410.49,770.61,409.86,770.99,409.02,771.4z"/>
					<path class="st3" d="M393.86,765.51c-0.04,0.06-0.65,0.93-1.13,2.25c-0.36,0.99-0.35,2.44-0.35,2.46v0
						c0,0.34,0.02,0.68,0.06,1.01c0,0.01,0,0.01,0,0.02c0,0.04,0.01,0.08,0.02,0.13c0.03,0.23,0.07,0.46,0.12,0.7
						c0.7,0.18,4.88,1.15,9.55,0.5c2.93-0.41,5.15-1.27,6.5-1.93c1.12-0.54,1.84-1.04,2.12-1.24c-0.28-1.03-1.04-2.64-1.74-3.65
						c-2.01-2.87-4.17-3.6-5.28-3.78c-0.42-0.07-0.76-0.11-1.24-0.11c-0.45,0-1,0.04-1.74,0.12c-0.74,0.08-1.57,0.27-2.53,0.6
						c-1.35,0.45-2.57,1.16-3.53,2.05l-0.03,0.03C394.5,764.8,394.2,765.07,393.86,765.51z M406.13,764.84
						c0.96,0,1.74,0.78,1.74,1.74c0,0.96-0.78,1.74-1.74,1.74c-0.96,0-1.74-0.78-1.74-1.74
						C404.38,765.62,405.17,764.84,406.13,764.84z M397.89,764.77c1.56,0,2.82,1.26,2.82,2.82c0,1.55-1.26,2.81-2.82,2.81
						c-1.55,0-2.82-1.26-2.82-2.81C395.07,766.03,396.33,764.77,397.89,764.77z"/>
				</g>
			</g>
		</g>
	</g>
</g>
<g id="Objects">
	<g>
	</g>
</g>
</svg>
