<?xml version="1.0" encoding="utf-8"?>
<!-- Generator: Adobe Illustrator 24.0.2, SVG Export Plug-In . SVG Version: 6.00 Build 0)  -->
<svg version="1.1" id="Capa_1" xmlns="http://www.w3.org/2000/svg" xmlns:xlink="http://www.w3.org/1999/xlink" x="0px" y="0px"
	 viewBox="0 0 640 480" style="enable-background:new 0 0 640 480;" xml:space="preserve">
<style type="text/css">
	.st0{fill:#FFC907;}
	.st1{fill:#BF8F08;}
	.st2{fill:#EF5E25;}
	.st3{fill:#E3DECA;}
	.st4{fill:#FCF8DD;}
	.st5{fill:#C4BFAB;}
	.st6{fill:#DD4212;}
</style>
<g>
	<g>
		<path class="st0" d="M529.69,245.2c0,109.16-89.34,197.65-199.54,197.65c-110.21,0-199.55-88.49-199.55-197.65
			c0-109.16,89.34-197.65,199.55-197.65C440.35,47.55,529.69,136.04,529.69,245.2z"/>
		<path class="st1" d="M195.64,346.43l134.51,96.42c117.79-2.99,199.54-95.54,199.54-197.65c0-3.33-1.7-23.74-1.86-27.04
			l-63.18-60.62L195.64,346.43z"/>
		<g>
			<g>
				<g>
					<path class="st2" d="M330.14,157.55c-79.71-30.54-134.51,0-134.51,0v188.88c52.98-26.09,134.51,0,134.51,0
						s81.53-26.09,134.51,0V157.55C464.65,157.55,409.86,127,330.14,157.55z"/>
				</g>
				<g>
					<path class="st3" d="M330.14,167.52v167.4c0,0-74.4-23.12-122.75,0v-167.4C207.39,167.52,257.4,140.45,330.14,167.52z"/>
					<path class="st4" d="M330.14,167.52v167.4c0,0,74.4-23.12,122.75,0v-167.4C452.89,167.52,402.88,140.45,330.14,167.52z"/>
				</g>
			</g>
			<g>
				<g>
					<path class="st5" d="M318.28,186.93c-54.7-19.75-98.33-0.27-98.77-0.07l-1.77-3.78c0.45-0.21,45.59-20.43,101.98-0.07
						L318.28,186.93z"/>
				</g>
				<g>
					<path class="st5" d="M318.28,197.34c-54.7-19.74-98.33-0.26-98.77-0.07l-1.77-3.78c0.45-0.21,45.59-20.43,101.98-0.07
						L318.28,197.34z"/>
				</g>
				<g>
					<path class="st5" d="M318.28,207.76c-54.7-19.74-98.33-0.27-98.77-0.07l-1.77-3.78c0.45-0.21,45.59-20.43,101.98-0.07
						L318.28,207.76z"/>
				</g>
				<g>
					<path class="st5" d="M218.54,217.35l-1.59-3.85c0.82-0.33,20.49-8.16,51.84-7.82l-0.04,4.16
						C238.34,209.53,218.73,217.28,218.54,217.35z"/>
				</g>
				<g>
					<path class="st5" d="M318.28,251.48c-54.7-19.75-98.33-0.27-98.77-0.07l-1.77-3.78c0.45-0.21,45.59-20.43,101.98-0.07
						L318.28,251.48z"/>
				</g>
				<g>
					<path class="st5" d="M318.28,261.89c-54.7-19.75-98.33-0.27-98.77-0.07l-1.77-3.78c0.45-0.21,45.59-20.43,101.98-0.07
						L318.28,261.89z"/>
				</g>
				<g>
					<path class="st5" d="M318.28,297.29c-54.7-19.75-98.33-0.27-98.77-0.07l-1.77-3.78c0.45-0.21,45.59-20.43,101.98-0.07
						L318.28,297.29z"/>
				</g>
				<g>
					<path class="st5" d="M318.28,307.7c-54.7-19.75-98.33-0.27-98.77-0.07l-1.77-3.78c0.45-0.21,45.59-20.43,101.98-0.07
						L318.28,307.7z"/>
				</g>
				<g>
					<path class="st5" d="M318.28,318.11c-54.7-19.75-98.33-0.27-98.77-0.07l-1.77-3.78c0.45-0.21,45.59-20.42,101.98-0.07
						L318.28,318.11z"/>
				</g>
			</g>
			<g>
				<g>
					<path class="st5" d="M441.07,186.93c-54.7-19.75-98.33-0.27-98.77-0.07l-1.76-3.78c0.45-0.21,45.58-20.43,101.97-0.07
						L441.07,186.93z"/>
				</g>
				<g>
					<path class="st5" d="M441.07,197.34c-54.7-19.75-98.33-0.26-98.77-0.07l-1.76-3.78c0.45-0.21,45.58-20.43,101.97-0.07
						L441.07,197.34z"/>
				</g>
				<g>
					<path class="st5" d="M441.07,207.76c-54.7-19.75-98.33-0.27-98.77-0.07l-1.76-3.78c0.45-0.21,45.58-20.43,101.97-0.07
						L441.07,207.76z"/>
				</g>
				<g>
					<path class="st5" d="M441.07,218.17c-54.7-19.75-98.33-0.27-98.77-0.07l-1.76-3.78c0.45-0.21,45.58-20.43,101.97-0.07
						L441.07,218.17z"/>
				</g>
				<g>
					<path class="st5" d="M441.07,228.58c-54.7-19.75-98.33-0.27-98.77-0.07l-1.76-3.78c0.45-0.21,45.58-20.43,101.97-0.07
						L441.07,228.58z"/>
				</g>
				<g>
					<path class="st5" d="M441.07,238.99c-54.7-19.75-98.33-0.26-98.77-0.06l-1.76-3.78c0.45-0.21,45.58-20.43,101.97-0.07
						L441.07,238.99z"/>
				</g>
				<g>
					<path class="st5" d="M441.77,248.96l1.59-3.86c-0.83-0.33-20.49-8.16-51.84-7.83l0.04,4.16
						C421.97,241.14,441.57,248.89,441.77,248.96z"/>
				</g>
				<path class="st5" d="M340.53,269.13v40.04c0,0,31.89-16.18,101.98,0v-40.04C442.51,269.13,402.76,249.45,340.53,269.13z"/>
			</g>
			<path class="st6" d="M357.19,241.58v-82.02c-6.75,1.46-13.76,3.38-21.02,5.83v76.19l10.51-10.45L357.19,241.58z"/>
		</g>
	</g>
</g>
</svg>
