<?xml version="1.0" encoding="utf-8"?>
<!-- Generator: Adobe Illustrator 24.0.2, SVG Export Plug-In . SVG Version: 6.00 Build 0)  -->
<svg version="1.1" id="Capa_1" xmlns="http://www.w3.org/2000/svg" xmlns:xlink="http://www.w3.org/1999/xlink" x="0px" y="0px"
	 viewBox="0 0 640 480" style="enable-background:new 0 0 640 480;" xml:space="preserve">
<style type="text/css">
	.st0{fill:#3A8789;}
	.st1{fill:#1D5656;}
	.st2{fill:#E7E6E6;}
	.st3{clip-path:url(#SVGID_2_);}
	.st4{fill:#D0D1D1;}
	.st5{fill:#FF4200;}
	.st6{clip-path:url(#SVGID_4_);}
	.st7{fill:#EF0F44;}
	.st8{fill:#F49AB8;}
	.st9{fill:#EF6C9E;}
	.st10{opacity:0.4;fill:#FFFFFF;}
	.st11{fill:#83E2BE;}
	.st12{fill:#22AF7C;}
	.st13{opacity:0.4;fill:#FFFEFD;}
</style>
<g>
	
		<ellipse transform="matrix(1.299515e-03 -1 1 1.299515e-03 79.0067 559.7036)" class="st0" cx="319.72" cy="240.3" rx="199.53" ry="199.61"/>
	<path class="st1" d="M207.6,360.52l138.54,77.56c97.75-12.92,173.19-96.54,173.19-197.79c0-13.77-1.39-27.21-4.05-40.19
		l-103.56-80.03L207.6,360.52z"/>
	<g>
		<g>
			<path class="st2" d="M448.71,307.74c0,0-10.47,20.37,1.2,43.31H208.8l-1.2-46.32L448.71,307.74z"/>
			<g>
				<defs>
					<path id="SVGID_1_" d="M448.71,307.74c0,0-10.47,20.37,1.2,43.31H208.8l-1.2-46.32L448.71,307.74z"/>
				</defs>
				<clipPath id="SVGID_2_">
					<use xlink:href="#SVGID_1_"  style="overflow:visible;"/>
				</clipPath>
				<g class="st3">
					<g>
						<g>
							<g>
								<rect x="207.6" y="310.13" class="st4" width="240.62" height="1.89"/>
							</g>
							<g>
								<rect x="207.6" y="313.9" class="st4" width="240.62" height="1.89"/>
							</g>
						</g>
						<g>
							<g>
								<rect x="207.6" y="319.57" class="st4" width="240.62" height="1.89"/>
							</g>
							<g>
								<rect x="207.6" y="325.23" class="st4" width="240.62" height="1.89"/>
							</g>
						</g>
					</g>
					<g>
						<g>
							<g>
								<rect x="207.6" y="329.01" class="st4" width="240.62" height="1.89"/>
							</g>
						</g>
						<g>
							<g>
								<rect x="207.6" y="332.79" class="st4" width="240.62" height="1.89"/>
							</g>
							<g>
								<rect x="207.6" y="338.45" class="st4" width="240.62" height="1.89"/>
							</g>
						</g>
						<g>
							<g>
								<rect x="207.6" y="344.12" class="st4" width="240.62" height="1.89"/>
							</g>
						</g>
					</g>
				</g>
			</g>
			<path class="st5" d="M210.82,323.91c0-1.84,0-3.9,0-6.14c0-10.91,8.85-10.03,8.85-10.03h233.87V295.2H217.26
				c-4.96,0-8.4,1.43-10.8,3.51v0c0,0-0.01,0.01-0.01,0.01c-0.21,0.18-0.4,0.37-0.6,0.56c-0.02,0.02-0.04,0.04-0.06,0.06
				c-0.1,0.11-0.22,0.21-0.32,0.32c-4.47,4.51-21.77,24.97-1.85,53.9c2.19,3.77,6.23,6.97,13.65,6.97h236.28v-12.54H219.67
				c0,0-8.85,0.88-8.85-10.03c0-2.24,0-4.3,0-6.14C210.82,331.81,210.82,328.66,210.82,323.91z"/>
		</g>
		<g>
			<path class="st2" d="M438.54,187.44c0,0-10.46,20.37,1.19,43.32H198.95l-1.2-46.32L438.54,187.44z"/>
			<g>
				<defs>
					<path id="SVGID_3_" d="M438.54,187.44c0,0-10.46,20.37,1.19,43.32H198.95l-1.2-46.32L438.54,187.44z"/>
				</defs>
				<clipPath id="SVGID_4_">
					<use xlink:href="#SVGID_3_"  style="overflow:visible;"/>
				</clipPath>
				<g class="st6">
					<g>
						<g>
							<g>
								<rect x="197.75" y="189.83" class="st4" width="240.29" height="1.89"/>
							</g>
							<g>
								<rect x="197.75" y="193.61" class="st4" width="240.29" height="1.89"/>
							</g>
						</g>
						<g>
							<g>
								<rect x="197.75" y="199.28" class="st4" width="240.29" height="1.89"/>
							</g>
							<g>
								<rect x="197.75" y="204.94" class="st4" width="240.29" height="1.89"/>
							</g>
						</g>
					</g>
					<g>
						<g>
							<g>
								<rect x="197.75" y="208.72" class="st4" width="240.29" height="1.89"/>
							</g>
						</g>
						<g>
							<g>
								<rect x="197.75" y="212.5" class="st4" width="240.29" height="1.89"/>
							</g>
							<g>
								<rect x="197.75" y="218.16" class="st4" width="240.29" height="1.89"/>
							</g>
						</g>
						<g>
							<g>
								<rect x="197.75" y="223.83" class="st4" width="240.29" height="1.89"/>
							</g>
						</g>
					</g>
				</g>
			</g>
			<path class="st7" d="M200.97,203.62c0-1.84,0-3.9,0-6.15c0-10.91,8.84-10.03,8.84-10.03h233.55v-12.54H207.4
				c-4.95,0-8.39,1.43-10.79,3.51v0c0,0-0.01,0.01-0.01,0.01c-0.21,0.18-0.41,0.37-0.6,0.56c-0.02,0.02-0.04,0.04-0.06,0.06
				c-0.11,0.11-0.22,0.21-0.32,0.32c-4.46,4.51-21.74,24.97-1.85,53.89c2.18,3.77,6.22,6.97,13.63,6.97h235.96v-12.54H209.81
				c0,0-8.84,0.88-8.84-10.03c0-2.24,0-4.3,0-6.15C200.97,211.52,200.97,208.37,200.97,203.62z"/>
		</g>
		<g>
			<rect x="192.74" y="240.23" class="st8" width="262.29" height="54.97"/>
			<rect x="208.76" y="253.54" class="st9" width="67.46" height="30.12"/>
			<rect x="192.74" y="267.72" class="st10" width="262.29" height="27.49"/>
		</g>
		<g>
			<g>
				<rect x="236.06" y="120.07" class="st11" width="175.65" height="54.97"/>
				<rect x="390.45" y="120.07" class="st12" width="4.59" height="54.97"/>
				<rect x="370.8" y="120.07" class="st12" width="4.58" height="54.97"/>
				<rect x="248.97" y="130.39" class="st12" width="34.75" height="34.74"/>
			</g>
			<rect x="236.06" y="147.56" class="st13" width="175.65" height="27.49"/>
		</g>
	</g>
</g>
</svg>
