<?xml version="1.0" encoding="utf-8"?>
<!-- Generator: Adobe Illustrator 24.0.2, SVG Export Plug-In . SVG Version: 6.00 Build 0)  -->
<svg version="1.1" id="Capa_1" xmlns="http://www.w3.org/2000/svg" xmlns:xlink="http://www.w3.org/1999/xlink" x="0px" y="0px"
	 viewBox="0 0 640 480" style="enable-background:new 0 0 640 480;" xml:space="preserve">
<style type="text/css">
	.st0{fill:#F4973A;}
	.st1{fill:#AF5D14;}
	.st2{fill:#F4F0ED;}
	.st3{fill:#549193;}
</style>
<g>
	<path class="st0" d="M524.28,240c0,110.21-89.44,199.55-199.77,199.55c-110.33,0-199.77-89.34-199.77-199.55
		c0-110.21,89.44-199.55,199.77-199.55C434.84,40.45,524.28,129.79,524.28,240z"/>
	<path class="st1" d="M524.28,240c0-3.5-0.09-6.98-0.27-10.44l-28.06-29.66l-100.57,51.63l-62.08,44.94l-28.46,6.01L226.43,240
		l-73.37-40.11l223.46,232.83C443.78,415.76,524.28,347.94,524.28,240z"/>
	<g>
		<path class="st2" d="M486.81,194.18l-10.36-7.11l-7.89-5.78c-107.85,27.85-137.78,100.28-137.78,100.28l0,0.02
			c-0.86,1.62-1.6,3.22-2.16,4.81c0,0,15.26-85.14,139.95-105.11l-5.79-4.73c0,0-114.82,11.04-137.11,98.8
			c0,0,17.16-93.55,133.43-101.96l-5.26-5.26c0,0-113.3,8.45-129.32,92.39c-16.03-83.94-129.32-92.39-129.32-92.39l-5.26,5.26
			c116.27,8.41,133.43,101.96,133.43,101.96c-22.3-87.77-137.11-98.8-137.11-98.8l-5.79,4.73
			C305.14,201.26,320.4,286.39,320.4,286.39c-0.57-1.59-1.31-3.2-2.16-4.81l0-0.02c0,0-29.93-72.42-137.78-100.28l-7.89,5.78
			l-10.36,7.11l147.67,105.35l13.48,2.7v0.46l1.15-0.23l1.15,0.23v-0.46l13.48-2.7L486.81,194.18z"/>
		<path class="st3" d="M490.07,191.2L337.98,294c0,0-13.54,9.07-26.95,0l-0.04,0.05l0.04-0.06L158.95,191.2l-5.88,8.69
			l151.77,102.59c0.01,0.02,3.45,9.38,20.32,9.38c16.88,0,18.71-9.16,18.71-9.16l152.08-102.8L490.07,191.2z"/>
	</g>
</g>
</svg>
