<?xml version="1.0" encoding="utf-8"?>
<!-- Generator: Adobe Illustrator 23.0.5, SVG Export Plug-In . SVG Version: 6.00 Build 0)  -->
<svg version="1.1" xmlns="http://www.w3.org/2000/svg" xmlns:xlink="http://www.w3.org/1999/xlink" x="0px" y="0px"
	 viewBox="0 0 800 800" style="enable-background:new 0 0 800 800;" xml:space="preserve">
<style type="text/css">
	.st0{fill:#E4B099;}
	.st1{fill:#F4563C;}
	.st2{fill:#FF5D10;}
	.st3{opacity:0.7;fill:#FFD01F;}
	.st4{fill:#5E3027;}
	.st5{fill:#FFFFFF;}
	.st6{fill:#A6D7B2;}
	.st7{fill:#9C2D35;}
	.st8{fill:#FFC0AD;}
	.st9{fill:#FEBD34;}
	.st10{fill:#1EA5B0;}
	.st11{opacity:0.5;fill:#FFECA5;}
	.st12{fill:#FFF6D2;}
	.st13{fill:#454C53;}
</style>
<g id="Background">
</g>
<g id="Objects">
	<g>
		<g>
			<g>
				<path class="st0" d="M-126.51,771.61v-0.26c-0.35,0.4-0.69,0.72-1.03,0.97c-0.34,0.25-0.71,0.44-1.1,0.57
					c-0.4,0.13-0.83,0.2-1.3,0.2c-0.62,0-1.2-0.13-1.72-0.39c-0.53-0.26-0.99-0.64-1.37-1.13c-0.39-0.49-0.68-1.06-0.88-1.72
					c-0.2-0.66-0.3-1.37-0.3-2.14c0-1.62,0.4-2.88,1.19-3.79c0.79-0.9,1.83-1.36,3.13-1.36c0.75,0,1.38,0.13,1.89,0.38
					c0.51,0.26,1.01,0.65,1.5,1.18v-3.83c0-0.53,0.11-0.93,0.32-1.21c0.21-0.27,0.51-0.41,0.91-0.41c0.39,0,0.69,0.13,0.91,0.38
					c0.21,0.25,0.32,0.62,0.32,1.11v11.44c0,0.49-0.11,0.86-0.34,1.11c-0.23,0.25-0.52,0.37-0.88,0.37c-0.35,0-0.65-0.13-0.88-0.38
					C-126.39,772.45-126.51,772.08-126.51,771.61z M-131.61,767.8c0,0.7,0.11,1.3,0.33,1.79c0.22,0.49,0.52,0.87,0.9,1.12
					c0.38,0.25,0.79,0.38,1.24,0.38c0.46,0,0.87-0.12,1.25-0.36c0.38-0.24,0.68-0.6,0.9-1.09c0.23-0.49,0.34-1.11,0.34-1.84
					c0-0.69-0.11-1.29-0.34-1.78c-0.22-0.5-0.53-0.88-0.91-1.14c-0.38-0.26-0.8-0.39-1.26-0.39c-0.47,0-0.9,0.13-1.27,0.4
					c-0.37,0.27-0.66,0.65-0.87,1.16C-131.51,766.55-131.61,767.13-131.61,767.8z"/>
				<path class="st0" d="M-115.07,768.46h-5.07c0.01,0.59,0.12,1.11,0.36,1.56c0.23,0.45,0.54,0.79,0.92,1.02
					c0.38,0.23,0.81,0.34,1.27,0.34c0.31,0,0.59-0.04,0.85-0.11c0.26-0.07,0.5-0.19,0.75-0.34c0.24-0.15,0.46-0.32,0.66-0.5
					c0.2-0.18,0.46-0.42,0.79-0.72c0.13-0.11,0.32-0.17,0.57-0.17c0.27,0,0.48,0.07,0.64,0.22c0.16,0.15,0.25,0.35,0.25,0.62
					c0,0.23-0.09,0.51-0.28,0.82c-0.19,0.31-0.46,0.62-0.83,0.9c-0.37,0.29-0.84,0.53-1.4,0.72c-0.56,0.19-1.2,0.29-1.93,0.29
					c-1.66,0-2.96-0.47-3.88-1.42c-0.92-0.95-1.39-2.24-1.39-3.87c0-0.77,0.11-1.48,0.34-2.13c0.23-0.66,0.56-1.22,1-1.69
					c0.44-0.47,0.98-0.83,1.62-1.08c0.64-0.25,1.35-0.38,2.13-0.38c1.01,0,1.88,0.21,2.61,0.64c0.73,0.43,1.27,0.98,1.63,1.66
					c0.36,0.68,0.54,1.37,0.54,2.07c0,0.65-0.19,1.08-0.56,1.27C-113.87,768.36-114.4,768.46-115.07,768.46z M-120.15,766.98h4.7
					c-0.06-0.89-0.3-1.55-0.72-1.99c-0.42-0.44-0.96-0.66-1.64-0.66c-0.65,0-1.18,0.22-1.59,0.67
					C-119.81,765.45-120.06,766.11-120.15,766.98z"/>
				<path class="st0" d="M-103.26,769.7c0,0.71-0.17,1.33-0.52,1.84c-0.35,0.51-0.86,0.9-1.54,1.16c-0.68,0.26-1.51,0.39-2.48,0.39
					c-0.93,0-1.73-0.14-2.39-0.43c-0.66-0.28-1.16-0.64-1.47-1.07c-0.32-0.43-0.48-0.86-0.48-1.29c0-0.29,0.1-0.53,0.3-0.73
					c0.2-0.2,0.46-0.3,0.77-0.3c0.27,0,0.48,0.07,0.63,0.2c0.15,0.13,0.29,0.32,0.42,0.56c0.27,0.46,0.58,0.81,0.96,1.04
					c0.37,0.23,0.87,0.34,1.52,0.34c0.52,0,0.94-0.12,1.28-0.35c0.33-0.23,0.5-0.5,0.5-0.79c0-0.46-0.17-0.79-0.52-1
					c-0.35-0.21-0.91-0.41-1.71-0.6c-0.89-0.22-1.62-0.46-2.18-0.7c-0.56-0.24-1.01-0.56-1.34-0.96c-0.34-0.4-0.5-0.89-0.5-1.47
					c0-0.52,0.15-1.01,0.47-1.47c0.31-0.46,0.77-0.83,1.37-1.11c0.6-0.28,1.33-0.41,2.19-0.41c0.67,0,1.27,0.07,1.81,0.21
					c0.54,0.14,0.98,0.33,1.34,0.56c0.36,0.23,0.63,0.49,0.82,0.78c0.19,0.29,0.28,0.56,0.28,0.84c0,0.3-0.1,0.54-0.3,0.73
					c-0.2,0.19-0.48,0.29-0.85,0.29c-0.27,0-0.49-0.08-0.68-0.23c-0.19-0.15-0.4-0.38-0.64-0.68c-0.2-0.25-0.43-0.46-0.69-0.61
					c-0.27-0.15-0.63-0.23-1.08-0.23c-0.47,0-0.86,0.1-1.17,0.3c-0.31,0.2-0.47,0.45-0.47,0.74c0,0.27,0.11,0.5,0.34,0.67
					c0.23,0.18,0.54,0.32,0.92,0.43c0.39,0.11,0.92,0.25,1.6,0.42c0.8,0.2,1.46,0.43,1.97,0.7c0.51,0.27,0.9,0.59,1.16,0.96
					C-103.39,768.8-103.26,769.22-103.26,769.7z"/>
				<path class="st0" d="M-100.61,761.34c-0.36,0-0.67-0.11-0.93-0.33c-0.26-0.22-0.38-0.54-0.38-0.94c0-0.37,0.13-0.67,0.39-0.91
					c0.26-0.24,0.57-0.36,0.92-0.36c0.34,0,0.63,0.11,0.89,0.32c0.26,0.21,0.39,0.53,0.39,0.94c0,0.4-0.13,0.71-0.38,0.94
					C-99.96,761.23-100.26,761.34-100.61,761.34z M-99.33,764.02v7.49c0,0.52-0.12,0.91-0.37,1.18c-0.25,0.27-0.56,0.4-0.94,0.4
					c-0.38,0-0.69-0.13-0.93-0.41c-0.24-0.27-0.36-0.66-0.36-1.17v-7.42c0-0.51,0.12-0.9,0.36-1.16c0.24-0.26,0.55-0.39,0.93-0.39
					c0.38,0,0.69,0.13,0.94,0.39C-99.45,763.2-99.33,763.56-99.33,764.02z"/>
				<path class="st0" d="M-87.97,764.45v7.53c0,0.86-0.09,1.6-0.28,2.22c-0.18,0.62-0.48,1.13-0.88,1.54
					c-0.41,0.4-0.94,0.71-1.59,0.9c-0.66,0.2-1.47,0.29-2.45,0.29c-0.89,0-1.69-0.13-2.39-0.38c-0.7-0.25-1.24-0.57-1.62-0.97
					c-0.38-0.4-0.57-0.8-0.57-1.22c0-0.32,0.11-0.58,0.32-0.77c0.21-0.2,0.48-0.3,0.78-0.3c0.38,0,0.71,0.17,1,0.5
					c0.14,0.17,0.28,0.34,0.43,0.52c0.15,0.18,0.31,0.32,0.49,0.45c0.18,0.12,0.4,0.21,0.65,0.28c0.25,0.06,0.55,0.09,0.87,0.09
					c0.67,0,1.19-0.09,1.56-0.28c0.37-0.19,0.63-0.45,0.78-0.78c0.15-0.33,0.24-0.69,0.26-1.08c0.03-0.38,0.04-1,0.06-1.85
					c-0.4,0.56-0.86,0.98-1.38,1.27c-0.52,0.29-1.14,0.44-1.87,0.44c-0.87,0-1.63-0.22-2.28-0.67c-0.65-0.44-1.15-1.06-1.5-1.86
					c-0.35-0.8-0.52-1.72-0.52-2.76c0-0.78,0.11-1.48,0.32-2.11c0.21-0.63,0.52-1.16,0.91-1.59c0.39-0.43,0.85-0.75,1.36-0.97
					c0.51-0.22,1.08-0.33,1.69-0.33c0.73,0,1.37,0.14,1.91,0.42c0.54,0.28,1.04,0.72,1.5,1.33v-0.35c0-0.45,0.11-0.8,0.33-1.04
					c0.22-0.25,0.51-0.37,0.86-0.37c0.5,0,0.83,0.16,1,0.49C-88.05,763.36-87.97,763.83-87.97,764.45z M-95.48,767.73
					c0,1.05,0.23,1.85,0.69,2.38c0.46,0.54,1.05,0.81,1.78,0.81c0.43,0,0.84-0.12,1.22-0.35c0.38-0.23,0.7-0.58,0.94-1.04
					c0.24-0.46,0.36-1.03,0.36-1.7c0-1.06-0.23-1.88-0.7-2.47c-0.47-0.59-1.08-0.88-1.84-0.88c-0.74,0-1.33,0.28-1.78,0.85
					C-95.26,765.89-95.48,766.69-95.48,767.73z"/>
				<path class="st0" d="M-83.85,763.98v0.31c0.45-0.6,0.95-1.04,1.5-1.32c0.54-0.28,1.16-0.42,1.87-0.42
					c0.68,0,1.29,0.15,1.83,0.45c0.54,0.3,0.94,0.72,1.21,1.26c0.17,0.32,0.28,0.66,0.33,1.03c0.05,0.37,0.08,0.84,0.08,1.41v4.82
					c0,0.52-0.12,0.91-0.36,1.18c-0.24,0.27-0.55,0.4-0.93,0.4c-0.39,0-0.7-0.13-0.94-0.41c-0.24-0.27-0.36-0.66-0.36-1.17v-4.32
					c0-0.85-0.12-1.51-0.36-1.96c-0.24-0.45-0.71-0.68-1.42-0.68c-0.46,0-0.88,0.14-1.26,0.41c-0.38,0.28-0.66,0.65-0.84,1.13
					c-0.13,0.39-0.19,1.11-0.19,2.17v3.25c0,0.53-0.12,0.92-0.37,1.18c-0.24,0.26-0.56,0.39-0.94,0.39c-0.37,0-0.68-0.13-0.92-0.41
					c-0.24-0.27-0.36-0.66-0.36-1.17v-7.49c0-0.49,0.11-0.86,0.32-1.11c0.22-0.24,0.51-0.37,0.88-0.37c0.23,0,0.43,0.05,0.62,0.16
					c0.18,0.11,0.33,0.27,0.44,0.48C-83.9,763.41-83.85,763.67-83.85,763.98z"/>
				<path class="st0" d="M-68.07,768.46h-5.07c0.01,0.59,0.12,1.11,0.36,1.56c0.23,0.45,0.54,0.79,0.92,1.02
					c0.38,0.23,0.81,0.34,1.27,0.34c0.31,0,0.59-0.04,0.85-0.11c0.26-0.07,0.5-0.19,0.75-0.34c0.24-0.15,0.46-0.32,0.67-0.5
					c0.2-0.18,0.46-0.42,0.79-0.72c0.13-0.11,0.32-0.17,0.57-0.17c0.27,0,0.48,0.07,0.65,0.22c0.16,0.15,0.25,0.35,0.25,0.62
					c0,0.23-0.09,0.51-0.28,0.82c-0.18,0.31-0.46,0.62-0.83,0.9c-0.37,0.29-0.83,0.53-1.4,0.72c-0.56,0.19-1.21,0.29-1.93,0.29
					c-1.67,0-2.96-0.47-3.89-1.42c-0.92-0.95-1.39-2.24-1.39-3.87c0-0.77,0.11-1.48,0.34-2.13c0.23-0.66,0.56-1.22,1-1.69
					c0.44-0.47,0.98-0.83,1.61-1.08s1.35-0.38,2.13-0.38c1.01,0,1.88,0.21,2.61,0.64c0.73,0.43,1.27,0.98,1.63,1.66
					c0.36,0.68,0.54,1.37,0.54,2.07c0,0.65-0.19,1.08-0.56,1.27C-66.87,768.36-67.4,768.46-68.07,768.46z M-73.14,766.98h4.7
					c-0.06-0.89-0.3-1.55-0.72-1.99c-0.42-0.44-0.96-0.66-1.64-0.66c-0.65,0-1.18,0.22-1.59,0.67
					C-72.81,765.45-73.06,766.11-73.14,766.98z"/>
				<path class="st0" d="M-57.5,771.61v-0.26c-0.35,0.4-0.69,0.72-1.03,0.97c-0.34,0.25-0.71,0.44-1.1,0.57
					c-0.4,0.13-0.83,0.2-1.3,0.2c-0.62,0-1.2-0.13-1.72-0.39c-0.53-0.26-0.99-0.64-1.37-1.13c-0.39-0.49-0.68-1.06-0.88-1.72
					c-0.2-0.66-0.3-1.37-0.3-2.14c0-1.62,0.4-2.88,1.19-3.79c0.79-0.9,1.83-1.36,3.12-1.36c0.75,0,1.38,0.13,1.89,0.38
					c0.51,0.26,1.01,0.65,1.5,1.18v-3.83c0-0.53,0.11-0.93,0.32-1.21c0.21-0.27,0.51-0.41,0.91-0.41c0.39,0,0.69,0.13,0.91,0.38
					c0.21,0.25,0.32,0.62,0.32,1.11v11.44c0,0.49-0.11,0.86-0.34,1.11c-0.23,0.25-0.52,0.37-0.88,0.37c-0.35,0-0.65-0.13-0.88-0.38
					C-57.39,772.45-57.5,772.08-57.5,771.61z M-62.6,767.8c0,0.7,0.11,1.3,0.33,1.79c0.22,0.49,0.52,0.87,0.9,1.12
					c0.38,0.25,0.79,0.38,1.24,0.38c0.46,0,0.87-0.12,1.25-0.36c0.38-0.24,0.68-0.6,0.9-1.09c0.23-0.49,0.34-1.11,0.34-1.84
					c0-0.69-0.11-1.29-0.34-1.78c-0.22-0.5-0.53-0.88-0.91-1.14c-0.38-0.26-0.8-0.39-1.26-0.39c-0.47,0-0.9,0.13-1.27,0.4
					c-0.37,0.27-0.66,0.65-0.87,1.16C-62.5,766.55-62.6,767.13-62.6,767.8z"/>
				<path class="st0" d="M-46.91,760.17v3.96c0.49-0.51,0.98-0.89,1.49-1.16c0.51-0.27,1.13-0.4,1.88-0.4c0.86,0,1.62,0.2,2.27,0.61
					c0.65,0.41,1.15,1,1.51,1.78c0.36,0.78,0.54,1.7,0.54,2.76c0,0.79-0.1,1.5-0.3,2.16c-0.2,0.66-0.49,1.22-0.87,1.71
					c-0.38,0.48-0.84,0.85-1.38,1.12c-0.54,0.26-1.14,0.39-1.79,0.39c-0.4,0-0.77-0.05-1.13-0.14c-0.35-0.09-0.65-0.22-0.9-0.38
					c-0.25-0.15-0.46-0.31-0.63-0.48c-0.17-0.16-0.4-0.41-0.69-0.74v0.26c0,0.49-0.12,0.86-0.35,1.11
					c-0.23,0.25-0.53,0.37-0.89,0.37c-0.37,0-0.66-0.12-0.88-0.37c-0.22-0.25-0.33-0.62-0.33-1.11v-11.32
					c0-0.53,0.11-0.92,0.32-1.19c0.21-0.27,0.51-0.4,0.89-0.4c0.4,0,0.71,0.13,0.92,0.38C-47.01,759.33-46.91,759.7-46.91,760.17z
					 M-46.78,767.88c0,1.03,0.24,1.82,0.71,2.38c0.47,0.55,1.09,0.83,1.86,0.83c0.65,0,1.21-0.28,1.69-0.85
					c0.47-0.57,0.71-1.38,0.71-2.44c0-0.68-0.1-1.27-0.29-1.77c-0.2-0.49-0.47-0.88-0.84-1.14c-0.36-0.27-0.78-0.4-1.26-0.4
					c-0.49,0-0.93,0.13-1.32,0.4c-0.39,0.27-0.69,0.66-0.91,1.17C-46.67,766.56-46.78,767.17-46.78,767.88z"/>
				<path class="st0" d="M-35.86,773.41l0.24-0.58l-3.19-8.04c-0.2-0.46-0.29-0.8-0.29-1.01c0-0.22,0.06-0.43,0.17-0.62
					c0.11-0.19,0.27-0.34,0.47-0.46c0.2-0.12,0.41-0.17,0.62-0.17c0.37,0,0.65,0.12,0.85,0.36c0.19,0.24,0.36,0.58,0.5,1.02
					l2.19,6.38l2.08-5.94c0.16-0.48,0.31-0.86,0.45-1.13c0.13-0.27,0.27-0.46,0.42-0.55c0.15-0.1,0.36-0.14,0.63-0.14
					c0.2,0,0.38,0.05,0.57,0.16c0.18,0.1,0.32,0.24,0.42,0.42c0.1,0.18,0.15,0.36,0.15,0.56c-0.03,0.12-0.07,0.29-0.12,0.51
					c-0.06,0.22-0.13,0.45-0.21,0.67l-3.38,8.85c-0.29,0.78-0.58,1.39-0.86,1.83c-0.28,0.44-0.65,0.79-1.11,1.02
					c-0.46,0.24-1.08,0.36-1.86,0.36c-0.76,0-1.33-0.08-1.71-0.25c-0.38-0.17-0.57-0.47-0.57-0.9c0-0.3,0.09-0.53,0.27-0.69
					c0.18-0.16,0.45-0.24,0.8-0.24c0.14,0,0.28,0.02,0.41,0.06c0.16,0.04,0.31,0.06,0.43,0.06c0.3,0,0.53-0.04,0.7-0.13
					c0.17-0.09,0.32-0.24,0.46-0.46C-36.19,774.16-36.04,773.84-35.86,773.41z"/>
			</g>
			<g>
				<path class="st0" d="M1.7,762.77h0.62v-0.78c0-0.81,0.1-1.46,0.31-1.94c0.2-0.48,0.56-0.83,1.05-1.04
					c0.49-0.22,1.16-0.33,2.02-0.33c1.52,0,2.27,0.37,2.27,1.11c0,0.24-0.08,0.45-0.24,0.62c-0.15,0.17-0.34,0.26-0.56,0.26
					c-0.1,0-0.28-0.02-0.53-0.06c-0.24-0.03-0.45-0.06-0.62-0.06c-0.47,0-0.77,0.14-0.91,0.42c-0.13,0.28-0.2,0.67-0.2,1.18v0.62
					h0.63c0.99,0,1.48,0.3,1.48,0.9c0,0.42-0.13,0.69-0.39,0.8c-0.26,0.11-0.62,0.17-1.09,0.17H4.91v6.87c0,0.51-0.12,0.9-0.37,1.17
					c-0.24,0.27-0.55,0.41-0.94,0.41c-0.37,0-0.67-0.13-0.92-0.41c-0.24-0.27-0.36-0.66-0.36-1.17v-6.87H1.61
					c-0.39,0-0.68-0.08-0.89-0.26c-0.21-0.17-0.31-0.4-0.31-0.68C0.4,763.08,0.83,762.77,1.7,762.77"/>
				<path class="st0" d="M10.19,769.34v2.17c0,0.52-0.13,0.92-0.37,1.18c-0.25,0.27-0.56,0.39-0.94,0.39c-0.38,0-0.69-0.13-0.93-0.4
					c-0.24-0.26-0.36-0.66-0.36-1.17v-7.22c0-1.17,0.42-1.75,1.26-1.75c0.43,0,0.74,0.13,0.93,0.41c0.19,0.27,0.29,0.67,0.32,1.21
					c0.31-0.53,0.62-0.93,0.95-1.21c0.33-0.27,0.76-0.41,1.31-0.41c0.55,0,1.07,0.13,1.58,0.41c0.52,0.27,0.77,0.64,0.77,1.08
					c0,0.31-0.11,0.58-0.33,0.78c-0.22,0.21-0.45,0.31-0.71,0.31c-0.1,0-0.33-0.06-0.69-0.18c-0.37-0.11-0.69-0.17-0.96-0.17
					c-0.38,0-0.69,0.1-0.93,0.3c-0.24,0.2-0.43,0.5-0.56,0.89c-0.13,0.39-0.22,0.87-0.27,1.4C10.21,767.9,10.19,768.57,10.19,769.34
					"/>
				<path class="st0" d="M22.11,768.45h-5.07c0.01,0.59,0.12,1.11,0.35,1.56c0.24,0.45,0.54,0.79,0.92,1.02
					c0.38,0.23,0.8,0.34,1.27,0.34c0.31,0,0.59-0.03,0.85-0.11c0.25-0.07,0.5-0.19,0.75-0.34c0.24-0.15,0.46-0.32,0.66-0.5
					c0.2-0.17,0.47-0.42,0.79-0.72c0.13-0.11,0.32-0.17,0.57-0.17c0.27,0,0.48,0.07,0.65,0.22c0.17,0.15,0.24,0.35,0.24,0.62
					c0,0.23-0.09,0.51-0.27,0.82c-0.19,0.32-0.46,0.62-0.84,0.91c-0.37,0.29-0.84,0.53-1.4,0.71c-0.56,0.19-1.21,0.29-1.93,0.29
					c-1.67,0-2.96-0.47-3.89-1.42c-0.92-0.95-1.39-2.24-1.39-3.87c0-0.77,0.12-1.48,0.35-2.13c0.22-0.66,0.56-1.22,1-1.69
					c0.44-0.47,0.97-0.83,1.61-1.08c0.64-0.25,1.35-0.38,2.13-0.38c1.01,0,1.88,0.21,2.61,0.65c0.72,0.42,1.27,0.98,1.63,1.65
					c0.36,0.68,0.54,1.37,0.54,2.07c0,0.65-0.19,1.07-0.56,1.27C23.32,768.36,22.79,768.45,22.11,768.45 M17.04,766.98h4.7
					c-0.06-0.88-0.3-1.55-0.71-1.99c-0.42-0.44-0.96-0.66-1.64-0.66c-0.65,0-1.18,0.22-1.59,0.67
					C17.38,765.45,17.13,766.1,17.04,766.98"/>
				<path class="st0" d="M32.9,768.45h-5.07c0.01,0.59,0.13,1.11,0.35,1.56c0.23,0.45,0.54,0.79,0.92,1.02
					c0.38,0.23,0.81,0.34,1.27,0.34c0.31,0,0.59-0.03,0.84-0.11c0.26-0.07,0.51-0.19,0.75-0.34c0.24-0.15,0.46-0.32,0.66-0.5
					c0.2-0.17,0.46-0.42,0.79-0.72c0.13-0.11,0.33-0.17,0.57-0.17c0.27,0,0.48,0.07,0.65,0.22c0.17,0.15,0.24,0.35,0.24,0.62
					c0,0.23-0.09,0.51-0.27,0.82c-0.18,0.32-0.45,0.62-0.83,0.91c-0.37,0.29-0.84,0.53-1.4,0.71c-0.56,0.19-1.21,0.29-1.93,0.29
					c-1.67,0-2.96-0.47-3.89-1.42c-0.92-0.95-1.39-2.24-1.39-3.87c0-0.77,0.12-1.48,0.35-2.13c0.23-0.66,0.56-1.22,1-1.69
					c0.44-0.47,0.97-0.83,1.61-1.08c0.64-0.25,1.35-0.38,2.13-0.38c1.01,0,1.88,0.21,2.61,0.65c0.72,0.42,1.27,0.98,1.62,1.65
					c0.36,0.68,0.54,1.37,0.54,2.07c0,0.65-0.19,1.07-0.56,1.27C34.1,768.36,33.58,768.45,32.9,768.45 M27.83,766.98h4.7
					c-0.06-0.88-0.3-1.55-0.71-1.99c-0.42-0.44-0.96-0.66-1.64-0.66c-0.65,0-1.18,0.22-1.59,0.67
					C28.17,765.45,27.91,766.1,27.83,766.98"/>
				<path class="st0" d="M38.58,764v0.31c0.49-0.6,0.99-1.04,1.52-1.32c0.52-0.29,1.12-0.43,1.78-0.43c0.79,0,1.54,0.21,2.21,0.62
					c0.67,0.41,1.2,1.02,1.59,1.81c0.39,0.79,0.59,1.73,0.59,2.81c0,0.79-0.11,1.53-0.34,2.2c-0.22,0.67-0.54,1.23-0.93,1.68
					c-0.39,0.45-0.86,0.8-1.39,1.05c-0.54,0.24-1.11,0.36-1.73,0.36c-0.74,0-1.36-0.15-1.87-0.45c-0.5-0.29-0.98-0.73-1.44-1.3v3.89
					c0,1.13-0.42,1.71-1.24,1.71c-0.49,0-0.81-0.15-0.97-0.44c-0.15-0.3-0.23-0.72-0.23-1.29v-11.19c0-0.49,0.11-0.86,0.32-1.11
					c0.21-0.24,0.51-0.36,0.88-0.36c0.37,0,0.67,0.13,0.9,0.37C38.47,763.17,38.58,763.53,38.58,764 M43.66,767.77
					c0-0.69-0.11-1.27-0.31-1.76c-0.21-0.49-0.5-0.87-0.87-1.13c-0.37-0.26-0.78-0.4-1.23-0.4c-0.71,0-1.32,0.28-1.81,0.84
					c-0.49,0.57-0.74,1.39-0.74,2.49c0,1.03,0.24,1.83,0.74,2.41c0.49,0.57,1.09,0.86,1.81,0.86c0.43,0,0.83-0.13,1.2-0.37
					c0.37-0.25,0.67-0.63,0.88-1.13C43.55,769.08,43.66,768.47,43.66,767.77"/>
				<path class="st0" d="M48.88,761.33c-0.36,0-0.67-0.12-0.92-0.34c-0.26-0.22-0.39-0.53-0.39-0.94c0-0.37,0.13-0.67,0.4-0.91
					c0.26-0.23,0.57-0.36,0.91-0.36c0.34,0,0.64,0.11,0.89,0.32c0.26,0.22,0.39,0.54,0.39,0.95c0,0.4-0.13,0.71-0.38,0.94
					C49.53,761.22,49.23,761.33,48.88,761.33 M50.16,764.01v7.5c0,0.52-0.12,0.91-0.37,1.17c-0.25,0.27-0.56,0.4-0.94,0.4
					c-0.38,0-0.68-0.13-0.93-0.41c-0.23-0.28-0.36-0.66-0.36-1.17v-7.43c0-0.51,0.12-0.89,0.36-1.15c0.24-0.26,0.55-0.39,0.93-0.39
					c0.38,0,0.69,0.13,0.94,0.39C50.04,763.19,50.16,763.55,50.16,764.01"/>
				<path class="st0" d="M58.52,771.9l-2.28-3.77l-1.41,1.33v2.07c0,0.5-0.13,0.88-0.4,1.15c-0.26,0.27-0.57,0.41-0.91,0.41
					c-0.4,0-0.71-0.13-0.94-0.4c-0.23-0.26-0.34-0.66-0.34-1.17v-11.06c0-0.57,0.11-1.01,0.33-1.31c0.22-0.3,0.54-0.45,0.95-0.45
					c0.4,0,0.71,0.14,0.95,0.41c0.23,0.27,0.35,0.67,0.35,1.2v6.29l2.92-3.06c0.36-0.38,0.63-0.64,0.83-0.78
					c0.19-0.14,0.42-0.21,0.69-0.21c0.33,0,0.59,0.1,0.82,0.31c0.21,0.21,0.32,0.46,0.32,0.77c0,0.38-0.35,0.89-1.05,1.52
					l-1.38,1.26l2.66,4.18c0.19,0.31,0.34,0.54,0.42,0.71c0.08,0.16,0.13,0.32,0.13,0.46c0,0.41-0.11,0.73-0.34,0.97
					c-0.22,0.24-0.52,0.35-0.89,0.35c-0.32,0-0.56-0.08-0.73-0.26C59.05,772.66,58.81,772.35,58.52,771.9"/>
				<path class="st0" d="M64.16,773.09c-0.39,0-0.73-0.13-1.01-0.38c-0.28-0.25-0.43-0.61-0.43-1.06c0-0.38,0.14-0.72,0.41-0.99
					c0.27-0.28,0.61-0.42,1.01-0.42c0.4,0,0.74,0.14,1.02,0.41c0.28,0.28,0.42,0.61,0.42,1c0,0.45-0.14,0.81-0.42,1.06
					C64.87,772.96,64.54,773.09,64.16,773.09"/>
				<path class="st0" d="M77.06,769.88c0,0.32-0.1,0.67-0.29,1.03c-0.19,0.37-0.49,0.72-0.89,1.05c-0.39,0.33-0.89,0.6-1.5,0.8
					c-0.6,0.2-1.28,0.31-2.03,0.31c-1.61,0-2.86-0.47-3.76-1.4c-0.9-0.94-1.35-2.19-1.35-3.76c0-1.07,0.2-2.01,0.62-2.82
					c0.41-0.81,1-1.45,1.78-1.89c0.78-0.45,1.72-0.67,2.79-0.67c0.67,0,1.29,0.1,1.85,0.29c0.56,0.2,1.03,0.45,1.42,0.76
					c0.39,0.31,0.69,0.64,0.89,0.99c0.21,0.35,0.31,0.68,0.31,0.99c0,0.31-0.11,0.57-0.34,0.79c-0.24,0.21-0.52,0.32-0.84,0.32
					c-0.22,0-0.4-0.06-0.54-0.17c-0.14-0.11-0.3-0.29-0.48-0.54c-0.32-0.48-0.65-0.84-1-1.08c-0.34-0.24-0.78-0.36-1.31-0.36
					c-0.76,0-1.38,0.3-1.85,0.9c-0.47,0.6-0.7,1.42-0.7,2.45c0,0.49,0.06,0.94,0.18,1.35c0.12,0.41,0.29,0.76,0.52,1.04
					c0.23,0.29,0.5,0.51,0.83,0.65c0.32,0.15,0.68,0.23,1.06,0.23c0.52,0,0.97-0.12,1.34-0.36c0.38-0.24,0.7-0.61,0.99-1.1
					c0.16-0.29,0.33-0.52,0.51-0.68c0.18-0.16,0.41-0.25,0.68-0.25c0.32,0,0.58,0.12,0.79,0.36
					C76.95,769.35,77.06,769.61,77.06,769.88"/>
				<path class="st0" d="M88.25,767.82c0,0.77-0.12,1.48-0.36,2.14c-0.25,0.65-0.59,1.21-1.05,1.68c-0.46,0.47-1,0.83-1.63,1.08
					c-0.64,0.25-1.35,0.38-2.14,0.38c-0.79,0-1.49-0.13-2.12-0.38c-0.62-0.25-1.17-0.61-1.63-1.08c-0.46-0.48-0.81-1.03-1.05-1.68
					c-0.23-0.64-0.35-1.36-0.35-2.13c0-0.79,0.12-1.51,0.36-2.16c0.24-0.65,0.59-1.21,1.04-1.67c0.45-0.46,0.99-0.82,1.63-1.07
					c0.64-0.25,1.35-0.37,2.12-0.37c0.78,0,1.5,0.13,2.14,0.38c0.64,0.25,1.18,0.62,1.64,1.08c0.46,0.47,0.8,1.03,1.04,1.67
					C88.13,766.32,88.25,767.03,88.25,767.82 M85.64,767.82c0-1.06-0.23-1.88-0.7-2.47c-0.46-0.6-1.09-0.89-1.87-0.89
					c-0.51,0-0.96,0.13-1.34,0.39c-0.39,0.26-0.68,0.65-0.89,1.16c-0.21,0.51-0.32,1.11-0.32,1.8c0,0.68,0.1,1.27,0.31,1.77
					c0.21,0.51,0.5,0.9,0.89,1.17c0.39,0.27,0.83,0.4,1.35,0.4c0.78,0,1.41-0.3,1.87-0.89C85.41,769.68,85.64,768.86,85.64,767.82"
					/>
				<path class="st0" d="M98.14,768.01v3.45c0,0.55-0.12,0.95-0.37,1.23c-0.25,0.27-0.57,0.41-0.98,0.41
					c-0.39,0-0.71-0.13-0.95-0.41c-0.25-0.28-0.37-0.68-0.37-1.23v-4.13c0-0.65-0.02-1.16-0.06-1.53c-0.05-0.35-0.17-0.65-0.36-0.88
					c-0.2-0.23-0.51-0.35-0.93-0.35c-0.85,0-1.41,0.29-1.68,0.88c-0.27,0.58-0.41,1.41-0.41,2.51v3.5c0,0.54-0.12,0.95-0.36,1.22
					c-0.25,0.27-0.57,0.41-0.96,0.41c-0.4,0-0.72-0.14-0.97-0.41c-0.25-0.28-0.38-0.69-0.38-1.22v-7.42c0-0.49,0.11-0.86,0.33-1.11
					c0.23-0.26,0.53-0.38,0.89-0.38c0.36,0,0.65,0.12,0.89,0.36c0.24,0.24,0.35,0.57,0.35,0.98v0.24c0.45-0.54,0.93-0.93,1.44-1.18
					c0.52-0.26,1.08-0.39,1.71-0.39c0.65,0,1.21,0.13,1.68,0.39c0.47,0.26,0.85,0.65,1.16,1.18c0.44-0.53,0.91-0.92,1.41-1.18
					c0.5-0.26,1.05-0.39,1.66-0.39c0.71,0,1.32,0.14,1.83,0.42c0.51,0.28,0.89,0.68,1.15,1.2c0.22,0.47,0.33,1.21,0.33,2.22v5.06
					c0,0.55-0.12,0.95-0.37,1.23c-0.25,0.27-0.58,0.41-0.98,0.41c-0.39,0-0.71-0.14-0.96-0.41c-0.25-0.28-0.38-0.69-0.38-1.22v-4.36
					c0-0.56-0.02-1-0.07-1.34c-0.05-0.34-0.18-0.62-0.38-0.85c-0.21-0.23-0.53-0.34-0.95-0.34c-0.34,0-0.67,0.11-0.97,0.31
					c-0.31,0.2-0.55,0.48-0.72,0.81C98.24,766.12,98.14,766.9,98.14,768.01"/>
			</g>
			<g>
				<path class="st0" d="M-22.56,767.19c0,0,0-0.01,0-0.02C-22.57,767.18-22.57,767.18-22.56,767.19z"/>
				<path class="st0" d="M-22.43,768.02C-22.43,768.02-22.43,768.02-22.43,768.02c-0.05-0.24-0.09-0.47-0.12-0.7
					C-22.52,767.55-22.48,767.78-22.43,768.02z"/>
				<path class="st0" d="M-21.58,770.42c-0.01-0.01-0.01-0.02-0.02-0.03C-21.59,770.4-21.58,770.41-21.58,770.42z"/>
				<path class="st0" d="M-21.66,770.26c-0.02-0.04-0.04-0.09-0.07-0.13C-21.7,770.18-21.68,770.22-21.66,770.26z"/>
				<path class="st0" d="M-22.19,768.94c0.13,0.4,0.28,0.79,0.46,1.16C-21.92,769.72-22.07,769.34-22.19,768.94
					C-22.19,768.94-22.19,768.94-22.19,768.94z"/>
				<path class="st0" d="M-12.53,757.25c0.5,0,0.87,0.04,1.29,0.11l0.12-0.76c0,0-1.17-0.36-2.71-0.23l-0.12-0.41
					c0.48-0.1,0.84-0.53,0.84-1.04c0-0.58-0.47-1.05-1.06-1.05c-0.58,0-1.06,0.47-1.06,1.05c0,0.51,0.36,0.93,0.84,1.04l0.13,0.46
					c-1.63,0.22-2.94,0.86-2.94,0.86l0.23,0.71c0.99-0.33,1.85-0.53,2.62-0.61C-13.57,757.29-12.99,757.25-12.53,757.25z"/>
				<path class="st0" d="M-21.6,761.11L-21.6,761.11c0.04-0.06,0.08-0.1,0.12-0.15l-0.31-0.22l-0.49-0.36
					c-0.03,0.04-0.79,0.74-1.4,2.05c-0.03-0.04-0.06-0.08-0.09-0.12c-0.18-0.2-0.44-0.3-0.76-0.29c0,0-0.01,0-0.01,0
					c-0.2,0-0.34-0.07-0.43-0.15c0.09-0.11,0.14-0.26,0.14-0.41c0-0.37-0.3-0.67-0.67-0.67c-0.37,0-0.67,0.3-0.67,0.67
					c0,0.37,0.3,0.67,0.67,0.67c0.06,0,0.11-0.01,0.17-0.02c0.16,0.18,0.43,0.34,0.81,0.33c0.2,0,0.34,0.05,0.44,0.16
					c0.11,0.12,0.15,0.3,0.16,0.43c0,0,0,0,0,0c-0.44,1.19-0.31,2.67-0.31,2.67l1.06,0.04c0.02-0.54,0.1-1.48,0.37-2.23
					C-22.28,762.05-21.62,761.15-21.6,761.11z"/>
				<path class="st0" d="M-3.33,758.13c-0.37,0-0.67,0.3-0.67,0.67c0,0.06,0.01,0.11,0.02,0.16c-0.18,0.17-0.34,0.43-0.34,0.81
					c0,0.2-0.05,0.34-0.15,0.44c-0.09,0.07-0.19,0.12-0.3,0.14c-0.79-1.1-1.76-1.78-1.76-1.78l-0.76,0.81
					c0.57,0.52,1.16,1.18,1.73,1.99c0.39,0.56,0.8,1.29,1.14,2.02l1.02-0.49c0,0-0.47-1.16-1.13-2.19c0.11-0.04,0.23-0.1,0.33-0.19
					c0.2-0.18,0.3-0.44,0.29-0.76c0-0.21,0.07-0.35,0.15-0.44c0.11,0.09,0.26,0.14,0.41,0.14c0.37,0,0.67-0.3,0.67-0.67
					C-2.66,758.43-2.96,758.13-3.33,758.13z"/>
				<path class="st0" d="M-5.99,767.34c-1.41,0.69-3.73,1.59-6.78,2.02c-1.2,0.17-2.36,0.23-3.43,0.23c-1.39,0-2.62-0.1-3.56-0.22
					c-1.08-0.13-1.92-0.3-2.43-0.42c0.12,0.39,0.27,0.78,0.45,1.16c0,0.01,0.01,0.02,0.01,0.03c0.02,0.04,0.04,0.09,0.07,0.13
					c0.02,0.04,0.04,0.09,0.06,0.13c0.01,0.01,0.01,0.02,0.02,0.03c0.3,0.57,0.67,1.09,1.08,1.55c1.44,1.57,2.91,1.82,2.92,1.83
					l0.02,0l0.02,0.01c0.01,0.01,1.31,0.43,3.29,0.43c1.95,0,3.85-0.39,5.67-1.17c1.35-0.69,2.62-1.74,3.25-2.67
					c0.49-0.72,0.84-1.49,1.05-2.29c0.11-0.43,0.2-1.11,0.15-1.83C-4.51,766.54-5.14,766.92-5.99,767.34z"/>
				<path class="st0" d="M-21.14,761.44c-0.04,0.06-0.65,0.93-1.14,2.25c-0.36,0.99-0.35,2.44-0.35,2.46v0
					c0,0.34,0.02,0.68,0.06,1.01c0,0.01,0,0.01,0,0.02c0,0.04,0.01,0.08,0.02,0.13c0.03,0.23,0.07,0.47,0.12,0.7
					c0.7,0.18,4.88,1.15,9.55,0.5c2.93-0.41,5.15-1.27,6.5-1.93c1.12-0.54,1.84-1.04,2.12-1.24c-0.28-1.03-1.04-2.64-1.74-3.65
					c-2-2.87-4.17-3.6-5.28-3.78c-0.42-0.07-0.76-0.11-1.24-0.11c-0.45,0-1,0.04-1.74,0.12c-0.74,0.08-1.57,0.27-2.53,0.6
					c-1.35,0.45-2.57,1.16-3.53,2.05l-0.03,0.03C-20.5,760.73-20.8,761.01-21.14,761.44z M-8.87,760.78c0.96,0,1.74,0.78,1.74,1.74
					c0,0.96-0.78,1.74-1.74,1.74c-0.96,0-1.74-0.78-1.74-1.74C-10.62,761.56-9.84,760.78-8.87,760.78z M-17.11,760.71
					c1.56,0,2.82,1.26,2.82,2.82c0,1.55-1.26,2.81-2.82,2.81c-1.55,0-2.82-1.26-2.82-2.81C-19.93,761.97-18.67,760.71-17.11,760.71z
					"/>
			</g>
		</g>
		<g>
			<g>
				<path class="st1" d="M-181,243.9c0,4.47-3.63,8.1-8.1,8.1h-125.8c-4.47,0-8.1-3.63-8.1-8.1V89.1c0-4.47,3.63-8.1,8.1-8.1h125.8
					c4.47,0,8.1,3.63,8.1,8.1V243.9z"/>
				<path class="st2" d="M-309.5,229h127.88c0.4-0.96,0.62-2,0.62-3.1V71.1c0-4.47-3.63-8.1-8.1-8.1h-125.8
					c-4.47,0-8.1,3.63-8.1,8.1v154.8c0,4.47,3.63,8.1,8.1,8.1h5.4V229z"/>
				<path class="st3" d="M-189.1,63H-246v166h64.38c0.4-0.96,0.62-2,0.62-3.1V71.1C-181,66.63-184.63,63-189.1,63z"/>
				<path class="st4" d="M-308,63h-6.9c-4.47,0-8.1,3.63-8.1,8.1v172.8c0,4.47,3.63,8.1,8.1,8.1h6.9V63z"/>
				<path class="st5" d="M-186.5,229h-123c-4.69,0-8.5,3.81-8.5,8.5s3.81,8.5,8.5,8.5h123V229z"/>
			</g>
			<rect x="-292" y="85" class="st5" width="92" height="9"/>
			<rect x="-292" y="200" class="st5" width="92" height="9"/>
			<rect x="-270" y="104" class="st5" width="48" height="9"/>
		</g>
		<g>
			<g>
				<path class="st4" d="M-172.08,719V537.66c0-5.33-4.32-9.66-9.66-9.66h-11.09c-5.33,0-9.66,4.32-9.66,9.66V719H-172.08z"/>
				<rect x="-202.48" y="540.14" class="st6" width="30.4" height="20.98"/>
				<rect x="-202.48" y="590.37" class="st6" width="30.4" height="19.87"/>
				<rect x="-202.48" y="703.54" class="st6" width="30.4" height="15.46"/>
			</g>
			<g>
				<path class="st7" d="M-202.48,719V551.39c0-4.17-3.38-7.55-7.55-7.55h-14.72c-4.17,0-7.55,3.38-7.55,7.55V719H-202.48z"/>
				<rect x="-232.29" y="573.65" class="st8" width="29.81" height="13.04"/>
				<rect x="-232.29" y="656.58" class="st8" width="29.81" height="12.11"/>
				<rect x="-232.29" y="690.12" class="st8" width="29.81" height="28.88"/>
			</g>
			<g>
				<path class="st1" d="M-297.92,719l23.59-165.95c0.59-4.13-2.28-7.95-6.41-8.53l-23.8-3.38c-4.13-0.59-7.95,2.28-8.53,6.41
					l-23.59,165.95L-297.92,719z"/>
				
					<rect x="-330.61" y="629.8" transform="matrix(0.1407 -0.99 0.99 0.1407 -907.383 253.2673)" class="st9" width="45.65" height="39.13"/>
				
					<rect x="-305.55" y="584.61" transform="matrix(0.1407 -0.9901 0.9901 0.1407 -857.1257 220.8074)" class="st9" width="8.39" height="39.13"/>
				
					<rect x="-318.27" y="674.08" transform="matrix(0.1407 -0.99 0.99 0.1407 -956.6275 285.0839)" class="st9" width="8.39" height="39.13"/>
				<path class="st9" d="M-305.4,572.75c0.65-4.59,4.9-7.77,9.48-7.12c4.59,0.65,7.77,4.9,7.12,9.48c-0.65,4.59-4.9,7.77-9.48,7.12
					C-302.87,581.58-306.05,577.33-305.4,572.75z"/>
			</g>
			<g>
				<path class="st10" d="M-231.03,719V538.01c0-4.5-3.65-8.15-8.15-8.15h-25.96c-4.5,0-8.15,3.65-8.15,8.15V719H-231.03z"/>
				<rect x="-273.29" y="564.34" class="st6" width="42.25" height="12.11"/>
				<rect x="-273.29" y="670.55" class="st6" width="42.25" height="12.11"/>
				<rect x="-273.29" y="695.71" class="st6" width="42.25" height="12.11"/>
				<path class="st6" d="M-245,651.08c0,4.37-3.55,7.92-7.92,7.92h-0.16c-4.37,0-7.92-3.55-7.92-7.92v-47.16
					c0-4.37,3.55-7.92,7.92-7.92h0.16c4.37,0,7.92,3.55,7.92,7.92V651.08z"/>
			</g>
		</g>
		<g>
			<g>
				<path class="st9" d="M420.63,583.02c0,5.87-4.76,10.64-10.64,10.64H257.64c-5.88,0-10.64-4.76-10.64-10.64V379.16
					c0-5.87,4.77-10.64,10.64-10.64h152.35c5.88,0,10.64,4.76,10.64,10.64V583.02z"/>
				<path class="st9" d="M567,583.02c0,5.87-4.76,10.64-10.64,10.64H404.01c-5.88,0-10.64-4.76-10.64-10.64V379.16
					c0-5.87,4.77-10.64,10.64-10.64h152.35c5.88,0,10.64,4.76,10.64,10.64V583.02z"/>
			</g>
			<path class="st9" d="M427.81,587.21c0,11.48-9.32,20.79-20.81,20.79l0,0c-11.49,0-20.81-9.31-20.81-20.79v-20.08
				c0-11.48,9.32-20.79,20.81-20.79l0,0c11.49,0,20.81,9.31,20.81,20.79V587.21z"/>
			<rect x="257.04" y="380" class="st11" width="297.04" height="203.62"/>
			<g>
				<path class="st5" d="M406.9,571c-51.89-14.82-88.3-14.81-140.19,0c0-65.06,0-130.12,0-195.19c51.92-23.03,88.16-22.41,140.19,0
					C406.9,440.88,406.9,505.94,406.9,571z"/>
			</g>
			<polygon class="st9" points="406.28,570.72 549.06,570.72 547.96,375.7 406.28,376.42 			"/>
			<path class="st12" d="M406.15,571c51.89-14.82,88.3-14.81,140.18,0c0-65.06,0-130.12,0-195.19c-51.92-23.03-88.16-22.41-140.18,0
				C406.15,440.88,406.14,505.94,406.15,571z"/>
			<path class="st5" d="M406.28,570.72c0,0,45.92-58.79,134.89-79.58V304c0,0-87.53,0-134.89,72.42V570.72z"/>
			<path class="st12" d="M406.28,570.72V377.13c0,0-20.09-12.19-44.48-15.06C361.8,362.08,390.5,366.38,406.28,570.72z"/>
		</g>
		<g>
			<g>
				<path class="st5" d="M-297.77,425h-15.58c-7.65,0-13.64,4.53-13.64,9.93v13.03c0,5.4,5.99,10.04,13.64,10.04h15.58H-185v-33
					H-297.77z"/>
				<path class="st9" d="M-313.36,458c-7.65,0-13.64-4.64-13.64-10.04v-13.03c0-5.4,5.99-9.93,13.64-9.93h127.9h3.71
					c2.53,0,4.74-1.89,4.74-4.42v-0.28c0-2.53-2.21-4.3-4.74-4.3h-34.87h-106.32c-8.52,0-15.08,6.63-15.08,15.16v20.58
					c0,8.52,6.55,15.27,15.08,15.27h106.32h34.87c2.53,0,4.74-1.88,4.74-4.41v-0.29c0-2.53-2.21-4.31-4.74-4.31h-3.71H-313.36z"/>
				<path class="st2" d="M-308.35,457.74h-5.01c-7.65,0-13.85-4.38-13.85-9.77v-13.03c0-5.4,6.2-9.77,13.85-9.77h5.01v-9.43h-14.58
					c-8.52,0-15.43,6.91-15.43,15.43v20.58c0,8.52,6.91,15.43,15.43,15.43h14.58V457.74z"/>
			</g>
			<g>
				<path class="st5" d="M-297.77,322h-15.58c-7.65,0-13.64,4.64-13.64,10.04v13.03c0,5.4,5.99,9.93,13.64,9.93h15.58H-185v-33
					H-297.77z"/>
				<path class="st2" d="M-313.36,355c-7.65,0-13.64-4.53-13.64-9.93v-13.03c0-5.4,5.99-10.04,13.64-10.04h127.9h3.71
					c2.53,0,4.74-1.78,4.74-4.31v-0.28c0-2.53-2.21-4.41-4.74-4.41h-34.87h-106.32c-8.52,0-15.08,6.74-15.08,15.27v20.58
					c0,8.52,6.55,15.16,15.08,15.16h106.32h34.87c2.53,0,4.74-1.77,4.74-4.3v-0.28c0-2.53-2.21-4.42-4.74-4.42h-3.71H-313.36z"/>
				<path class="st7" d="M-308.35,354.85h-5.01c-7.65,0-13.85-4.38-13.85-9.77v-13.03c0-5.4,6.2-9.78,13.85-9.78h5.01v-9.43h-14.58
					c-8.52,0-15.43,6.91-15.43,15.43v20.58c0,8.52,6.91,15.43,15.43,15.43h14.58V354.85z"/>
			</g>
			<g>
				<path class="st5" d="M-216.04,406h15.58c7.65,0,14.45-4.08,14.45-9.48v-13.03c0-5.4-6.8-9.48-14.45-9.48h-15.58H-328v32H-216.04
					z"/>
				<path class="st10" d="M-200.45,374c7.65,0,14.45,4.08,14.45,9.48v13.03c0,5.4-6.8,9.48-14.45,9.48h-127.9h-3.71
					c-2.53,0-3.93,2.34-3.93,4.86v0.29c0,2.53,1.4,4.85,3.93,4.85h34.87h106.32c8.52,0,15.88-7.19,15.88-15.71v-20.58
					c0-8.52-7.36-15.71-15.88-15.71H-297.2h-34.87c-2.53,0-3.93,2.32-3.93,4.85v0.28c0,2.53,1.4,4.86,3.93,4.86h3.71H-200.45z"/>
				<path class="st13" d="M-205.46,373.71h5.01c7.65,0,13.85,4.38,13.85,9.77v13.03c0,5.4-6.2,9.78-13.85,9.78h-5.01v9.43h14.58
					c8.52,0,15.43-6.91,15.43-15.43v-20.58c0-8.52-6.91-15.43-15.43-15.43h-14.58V373.71z"/>
			</g>
		</g>
	</g>
</g>
</svg>
