<?xml version="1.0" encoding="utf-8"?>
<!-- Generator: Adobe Illustrator 23.0.5, SVG Export Plug-In . SVG Version: 6.00 Build 0)  -->
<svg version="1.1" xmlns="http://www.w3.org/2000/svg" xmlns:xlink="http://www.w3.org/1999/xlink" x="0px" y="0px"
	 viewBox="0 0 500 500" style="enable-background:new 0 0 500 500;" xml:space="preserve">
<style type="text/css">
	.st0{display:none;}
	.st1{display:inline;fill:#F7E2BC;}
	.st2{opacity:0.1;fill:#1F142A;}
	.st3{fill:#F7986A;}
	.st4{fill:#1F142A;}
	.st5{fill:#2D0C0A;}
	.st6{fill:#BA6349;}
	.st7{fill:#FF7694;}
	.st8{fill:#33CCFF;}
	.st9{fill:#FFFFFF;}
	.st10{fill:#E5852E;}
	.st11{fill:none;stroke:#000000;stroke-linecap:round;stroke-linejoin:round;stroke-miterlimit:10;}
	.st12{fill:#F79E40;}
	.st13{fill:#E0DEDF;}
	.st14{fill:none;}
</style>
<g id="BACKGROUND" class="st0">
	<rect x="0" y="0" class="st1" width="500" height="500"/>
</g>
<g id="OBJECTS">
	<g>
		<path class="st2" d="M269.71,348.45c-7.87,0-17.41,1.51-17.41,5.52c0,4.02,20.33,11.8,24.18,8.62c3.85-3.18-0.25,2.59,6.28-1.92
			C289.29,356.15,282.43,348.45,269.71,348.45z"/>
		<path class="st2" d="M234.97,348.45c7.23,0,15.99,1.51,15.99,5.52c0,4.02-18.68,11.8-22.22,8.62c-3.54-3.18,0.23,2.59-5.77-1.92
			C216.98,356.15,223.29,348.45,234.97,348.45z"/>
		<g>
			<path class="st3" d="M253.29,180.24l0.12,6.7c-6.32-0.27-10.68-2.96-10.68-2.96l0.26-8.87c2.65,2.24,5.83,4.02,8.29,4.75
				C252.04,180.09,252.71,180.22,253.29,180.24z"/>
			<path class="st3" d="M250.07,150.27c12.67-0.08,12.1,7.08,12.1,7.08s1.21,9.92,0.46,14.75c-0.65,4.19-3.85,6.99-7.31,7.87
				c-0.53,0.13-1.07,0.23-1.6,0.27c-0.14,0.01-0.28,0.01-0.43,0c-0.58-0.02-1.25-0.14-2-0.36c-2.46-0.74-5.64-2.51-8.29-4.75
				c-2.43-2.06-4.43-4.51-5.01-6.91C236.52,162.2,237.4,150.35,250.07,150.27z"/>
			<path class="st4" d="M242.4,172.98c0,0-5.26-2.71-2.44-5.48c1.27-1.25,2.39-0.19,3.25,1.36l0.89-0.01c0,0,0.2-6.13,2.96-6.79
				c0,0-0.78-5.83,3.34-6.15c4.13-0.32,10.8-4.05,12,4.31c0,0,5.64-5.44,4.28-8.56c-1.36-3.12-5.89-2.22-5.89-2.22
				s2.67-1.76,1.36-2.77c-1.31-1.01-5.17,1.4-8.33-0.36c-3.16-1.76-16.78-2.27-17.17,8.66c0,0-4.73,4.14-2.41,9.53
				C236.55,169.88,237.45,177.26,242.4,172.98z"/>
			<g>
				<g>
					<path class="st5" d="M253.22,166.78c-0.07,0.72-0.71,1.25-1.44,1.19c-0.73-0.07-1.26-0.7-1.2-1.42
						c0.07-0.72,0.71-1.25,1.44-1.19C252.75,165.42,253.29,166.06,253.22,166.78z"/>
					<path class="st5" d="M260.94,165.94c-0.07,0.72-0.71,1.25-1.44,1.19c-0.73-0.07-1.26-0.7-1.2-1.42
						c0.07-0.72,0.71-1.25,1.44-1.19C260.48,164.58,261.01,165.22,260.94,165.94z"/>
					<path class="st4" d="M256.59,163.5c-0.11,0-0.23-0.03-0.32-0.1c-0.25-0.18-0.31-0.51-0.14-0.76c0.07-0.1,1.74-2.4,5.48-1.14
						c0.29,0.1,0.45,0.41,0.35,0.7c-0.1,0.29-0.41,0.44-0.71,0.35c-2.92-0.98-4.16,0.66-4.21,0.73
						C256.93,163.42,256.76,163.5,256.59,163.5z"/>
					<path class="st4" d="M249.05,164.08c-0.11,0-0.23-0.03-0.32-0.1c-0.25-0.18-0.31-0.51-0.14-0.76c0.07-0.1,1.74-2.4,5.48-1.14
						c0.29,0.1,0.45,0.41,0.35,0.7c-0.1,0.29-0.41,0.44-0.71,0.35c-2.92-0.98-4.16,0.66-4.21,0.73
						C249.39,164,249.22,164.08,249.05,164.08z"/>
					<path class="st6" d="M256.63,173.78C256.63,173.78,256.63,173.78,256.63,173.78c-0.79,0.38-1.54,0.46-2.22,0.22
						c-1.08-0.37-1.58-1.38-1.6-1.43c-0.13-0.27,0.02-0.59,0.26-0.74c0.28-0.13,0.61-0.02,0.74,0.26c0.12,0.25,0.81,1.43,2.33,0.7
						c0.28-0.13,0.61-0.02,0.74,0.25C257.01,173.31,256.9,173.64,256.63,173.78z"/>
					<path class="st6" d="M255.15,171.2c-0.03,0-0.05,0-0.05,0c-0.31-0.01-0.55-0.27-0.54-0.57c0.01-0.3,0.29-0.54,0.58-0.53
						c0.03,0.01,0.74,0,1.05-0.42c0.3-0.41,0.13-1.13-0.07-1.66c-1.14-3.07-0.51-4.33-0.43-4.46c0.15-0.27,0.49-0.36,0.76-0.21
						c0.27,0.15,0.36,0.49,0.21,0.75l0,0c0,0-0.44,1,0.51,3.54c0.42,1.14,0.4,2.04-0.08,2.69
						C256.48,171.14,255.4,171.2,255.15,171.2z"/>
					<path class="st7" d="M249.88,170.47c0,0,1.06-1.24,1.72-0.47c0.79,0.92-2.31,2.45-2.31,2.45s-1.85-2.72-0.67-3.17
						C249.8,168.82,249.88,170.47,249.88,170.47z"/>
					<path class="st7" d="M260.4,169.67c0,0-1.39-0.86-1.78,0.07c-0.47,1.12,2.96,1.63,2.96,1.63s0.92-3.16-0.34-3.22
						C259.97,168.08,260.4,169.67,260.4,169.67z"/>
				</g>
				<path class="st6" d="M240.66,169.62c-0.03-0.01-0.07-0.02-0.1-0.03c-0.15-0.08-0.21-0.27-0.13-0.42
					c0.33-0.61,0.88-0.62,1.12-0.54c0.16,0.05,0.25,0.23,0.2,0.39c-0.05,0.16-0.23,0.25-0.39,0.2c-0.05-0.01-0.24-0.03-0.39,0.24
					C240.92,169.58,240.79,169.64,240.66,169.62z"/>
				<path class="st6" d="M242.32,170.48c-0.05,0.02-0.11,0.03-0.17,0.02c-1.02-0.16-1.44-1.36-1.46-1.41
					c-0.06-0.16,0.02-0.34,0.19-0.4c0.16-0.06,0.34,0.03,0.4,0.19c0,0.01,0.32,0.89,0.97,0.99c0.17,0.03,0.29,0.19,0.26,0.36
					C242.49,170.35,242.42,170.44,242.32,170.48z"/>
			</g>
			<g>
				<path class="st6" d="M251.29,179.87c0.74,0.22,1.42,0.35,2,0.36l0.06,2.24c-0.55-0.03-1.19-0.15-1.88-0.36
					c-2.46-0.74-5.64-2.51-8.29-4.76c-0.08-0.07-0.17-0.14-0.25-0.22l0.08-2.04C245.65,177.36,248.83,179.14,251.29,179.87z"/>
			</g>
			<path class="st8" d="M227.99,350.28C227.99,350.28,228,350.28,227.99,350.28c8.29,3.27,8.8-1.12,13.31-0.62
				c2.73,0.3,5.18,1.79,6.53,2.32c-0.13,0.08-0.26,0.16-0.39,0.24c-0.03,0.02-0.07,0.04-0.1,0.06c-0.12,0.07-0.24,0.14-0.37,0.22
				c-0.06,0.03-0.11,0.07-0.17,0.1c-0.12,0.07-0.24,0.13-0.36,0.2c-0.08,0.04-0.15,0.08-0.23,0.13c-0.11,0.06-0.23,0.13-0.35,0.19
				c-0.09,0.05-0.18,0.1-0.28,0.15c-0.11,0.06-0.23,0.12-0.35,0.18c-0.11,0.05-0.21,0.11-0.32,0.16c-0.12,0.06-0.24,0.12-0.36,0.17
				c-0.12,0.06-0.24,0.11-0.36,0.17c-0.12,0.06-0.24,0.11-0.37,0.17c-0.13,0.06-0.26,0.12-0.4,0.18c-0.12,0.05-0.25,0.11-0.37,0.16
				c-0.14,0.06-0.28,0.12-0.43,0.18c-0.13,0.05-0.25,0.1-0.38,0.16c-0.15,0.06-0.31,0.12-0.46,0.18c-0.13,0.05-0.26,0.1-0.39,0.15
				c-0.16,0.06-0.33,0.12-0.49,0.18c-0.13,0.05-0.27,0.09-0.4,0.14c-0.17,0.06-0.35,0.12-0.53,0.17c-0.14,0.04-0.27,0.09-0.41,0.13
				c-0.19,0.06-0.38,0.11-0.57,0.17c-0.14,0.04-0.27,0.08-0.41,0.12c-0.2,0.06-0.41,0.11-0.61,0.17c-0.13,0.04-0.26,0.07-0.4,0.11
				c-0.23,0.06-0.46,0.11-0.7,0.17c-0.12,0.03-0.23,0.06-0.35,0.08c-0.36,0.08-0.72,0.15-1.09,0.22c-4.25,0.81-7.43,0.62-9.62,0.19
				C223.86,354.42,225.6,352.18,227.99,350.28z"/>
			<path class="st9" d="M235.43,356.77c0.37-0.07,0.73-0.15,1.09-0.22c0.12-0.03,0.23-0.06,0.35-0.08c0.24-0.05,0.47-0.11,0.7-0.17
				c0.14-0.03,0.27-0.07,0.4-0.11c0.21-0.05,0.41-0.11,0.61-0.17c0.14-0.04,0.27-0.08,0.41-0.12c0.19-0.06,0.38-0.11,0.57-0.17
				c0.14-0.04,0.27-0.09,0.41-0.13c0.18-0.06,0.35-0.11,0.53-0.17c0.14-0.05,0.27-0.09,0.4-0.14c0.17-0.06,0.33-0.12,0.49-0.18
				c0.13-0.05,0.26-0.1,0.39-0.15c0.15-0.06,0.31-0.12,0.46-0.18c0.13-0.05,0.26-0.1,0.38-0.16c0.14-0.06,0.29-0.12,0.43-0.18
				c0.13-0.05,0.25-0.11,0.37-0.16c0.13-0.06,0.27-0.12,0.4-0.18c0.12-0.06,0.24-0.11,0.37-0.17c0.12-0.06,0.24-0.11,0.36-0.17
				c0.12-0.06,0.24-0.12,0.36-0.17c0.11-0.05,0.22-0.11,0.32-0.16c0.12-0.06,0.24-0.12,0.35-0.18c0.09-0.05,0.19-0.1,0.28-0.15
				c0.12-0.06,0.24-0.13,0.35-0.19c0.08-0.04,0.15-0.08,0.23-0.13c0.12-0.07,0.24-0.13,0.36-0.2c0.06-0.03,0.12-0.07,0.17-0.1
				c0.13-0.07,0.25-0.14,0.37-0.22c0.03-0.02,0.07-0.04,0.1-0.06c0.14-0.08,0.27-0.16,0.39-0.24c0.24,0.09,0.44,0.15,0.61,0.17
				c-0.13,1.34-0.46,2.52-1.13,3.03c-2.01,1.51-15.82,7.11-20.67,2.68c-0.33-0.3-0.61-0.61-0.83-0.9
				C228,357.39,231.18,357.58,235.43,356.77z"/>
			<path class="st10" d="M218.13,216.69c0.5-7.87,9.04-5.52,6.36-15.9c-2.68-10.38,5.86-13.56,7.7-13.89
				c0.65,1.86,0.01,21.42-0.69,38.42c-1.46,1.26-3.12,2.06-4.83,1.75C221.14,226.06,217.62,224.56,218.13,216.69z"/>
			<path class="st10" d="M231.5,225.31c0.7-17,1.34-36.55,0.69-38.42l7.87-3.68l3.64,7.78l2.32-1.64l3.33,5.85
				c0,0,1.84-3.88,2.48-6.82l1.67,1.11l1.63-6.11c1,0.5,9.2,1.34,10.04,3.35c0,0,1.39,7.86,1.65,19.66
				c0.08,3.51,0.05,7.37-0.14,11.47c-0.84,17.91-0.33,33.47-0.33,33.47s-20.75,6.36-35.98-0.5
				C230.34,250.83,230.94,238.89,231.5,225.31z"/>
			<path class="st3" d="M286.49,182.09c0,0-2.7,0.19-5.52-1.13c0,0,0.31-4.46-0.69-6.03c-1-1.57-1.69-2.26-1.63-3.26
				c0.06-1-0.38-2.2-2.32-3.26c-1.95-1.07-0.88-3.77,2.01-2.13c2.89,1.63,2.95,3.83,4.02,2.89c1.07-0.94,6.34-14,9.79-10.04
				c0,0,2.57-1.76,3.26,1.51c0,0,2.32,0.13,0.75,3.08c0,0,1.63,0.94,0.25,3.26c-1.38,2.32-3.39,4.46-4.46,6.72
				c-1.07,2.26-4.48,6.27-5.21,6.09C286.49,179.7,286.49,182.09,286.49,182.09z"/>
			<path class="st11" d="M286.18,187.99c-0.19,0.13-3.33,0.56-5.9-1.19"/>
			<path class="st11" d="M292.14,159.12c0,0-3.6,5.19-4.69,6.95"/>
			<line class="st11" x1="295.41" y1="160.62" x2="289.34" y2="167.4"/>
			<line class="st11" x1="296.16" y1="163.7" x2="291.1" y2="168.91"/>
			<path class="st11" d="M284.11,170.96c0,0,1.97,1.72,1.63,3.77"/>
			<path class="st12" d="M276.45,196.77c0.75,0,2.26-11.55,2.26-11.55s0.5-5.27,1.26-5.52c0.75-0.25,7.53,2.01,7.53,2.01
				s0.51,3.01,0.38,6.02c-0.13,2.76,2.38,26.36-5.9,26.36c-5.08,0-11.2-4.35-15.17-7.71c-0.26-11.8-1.65-19.66-1.65-19.66
				C267.67,186.52,275.7,196.77,276.45,196.77z"/>
			<g>
				<path class="st13" d="M251.82,188.38c-0.64,2.94-2.41,6.82-2.41,6.82l-3.4-5.85l3.52-2.5L251.82,188.38z"/>
				<polygon class="st9" points="242.25,180.39 249.34,186.04 253.73,180.89 255.11,183.38 253.48,189.49 251.82,188.38 
					249.53,186.86 246.01,189.36 243.69,191 240.05,183.22 				"/>
			</g>
			<line class="st11" x1="230.68" y1="214.43" x2="226.41" y2="218.4"/>
			<line class="st11" x1="232.35" y1="215.69" x2="227.88" y2="220.04"/>
			<g>
				<path class="st12" d="M223.76,212.85c-0.07,0.14-0.13,0.27-0.2,0.41c-3.51,7.87,3.35,9.29,4.1,9.71
					c0.43,0.24,1.65-0.86,2.85-2.19c0.03-0.01,0.06-0.02,0.06-0.02c0.56,0.44,0.63,3.2-1.13,4.39c-1.76,1.19-5.1,0.36-7.22-1.26
					C218.52,221.06,218.3,212.95,223.76,212.85z"/>
				<path class="st3" d="M223.57,213.26c0.06-0.15,0.13-0.28,0.2-0.41c1.76-3.64,3.93-4.32,4.57-3.35c0.67,1-2.43,5.02-2.43,5.77
					c0,0.75,3.6-4.35,5.1-3.43c1.51,0.92-0.33,2.59-0.33,2.59s2.59-0.08,1.67,1.26c0,0,1.67,0.25,0.5,2.09
					c-0.51,0.8-1.42,1.97-2.34,2.99c-1.2,1.33-2.42,2.43-2.85,2.19C226.91,222.55,220.05,221.12,223.57,213.26z"/>
			</g>
			<g>
				<path class="st9" d="M255.87,222.88c-0.63-2.38-17.2-23.35-17.2-23.35s7.53,3.14,4.64-3.64c1.88,1.26,15.06,25.1,15.06,26.61
					c0,1.51-2.26,1.38-2.26,1.38l-0.24-0.12C255.95,223.48,255.95,223.18,255.87,222.88z"/>
				<path class="st9" d="M221.98,199.79c0,0-1,0-0.88-2.26s3.77,1,9.16-2.26c5.4-3.26,11.17-0.63,13.05,0.63
					c2.89,6.78-4.64,3.64-4.64,3.64s-0.88,3.89-4.39,4.14c-3.51,0.25-18.95-0.5-18.95-0.5
					C214.95,199.53,221.98,199.79,221.98,199.79z"/>
				<path class="st13" d="M234.28,203.68c3.51-0.25,4.39-4.14,4.39-4.14s16.57,20.96,17.2,23.35c0.08,0.3,0.08,0.6,0.01,0.88
					c-0.47,1.99-4.27,3.53-8.55,2.76c-4.9-0.88-15.56,0.13-15.56,0.13l-16.44-23.47C215.32,203.17,230.76,203.93,234.28,203.68z"/>
			</g>
			<path class="st13" d="M221.98,199.79c4.14,0.25,10.1,1.51,11.55-0.06c1.44-1.57,1.44-3.33,4.02-2.95
				c2.57,0.38,4.58,0.88,4.39-0.06c-0.19-0.94-4.71-2.32-6.78-0.88c-2.07,1.44-2.51,3.77-5.27,3.45c-2.76-0.31-6.28-0.44-6.65,0.56"
				/>
			<path class="st8" d="M270.34,356.77c-6.04-1.15-10.46-3.53-12.79-5.03c1.13-0.13,2.7-0.8,4.84-2.58
				c6.02-5.02,7.28,4.02,12.8-0.25c0.09-0.07,0.18-0.17,0.26-0.29c3.28,2.2,7.06,5.02,4.51,8.34
				C277.77,357.39,274.59,357.58,270.34,356.77z"/>
			<path class="st9" d="M279.13,357.86c-4.85,4.43-18.66-1.17-20.67-2.68c-0.74-0.56-1.06-1.92-1.17-3.42
				c0.09,0,0.18-0.01,0.27-0.02c2.32,1.5,6.74,3.88,12.79,5.03c4.25,0.81,7.43,0.62,9.62,0.19
				C279.74,357.25,279.46,357.55,279.13,357.86z"/>
			<path class="st14" d="M247.44,352.22c0.14-0.08,0.27-0.16,0.39-0.24l0,0C247.71,352.06,247.58,352.14,247.44,352.22z"/>
			<path class="st4" d="M230.34,250.83c15.23,6.86,35.98,0.5,35.98,0.5s13.91,90.2,9.13,97.28c-0.08,0.12-0.17,0.22-0.26,0.29
				c-5.52,4.27-6.78-4.77-12.8,0.25c-2.14,1.78-3.7,2.45-4.84,2.58l-0.27,0.02c-0.75,0.03-1.29-0.18-1.67-0.45
				c-0.55-0.39-0.84-1.19-0.84-1.19s1.09-32.34-2.18-48.41c-3.26-16.07-4.52-28.12-4.52-28.12s0,74.81,0.75,77.57
				c0.22,0.8,0.05,1.05-0.39,0.99c-0.17-0.02-0.37-0.08-0.61-0.17c-1.35-0.53-3.8-2.02-6.53-2.32c-4.52-0.5-5.02,3.89-13.31,0.63
				c0,0-0.01,0-0.01-0.01C224.51,348.73,230.34,250.83,230.34,250.83z"/>
		</g>
	</g>
</g>
<g id="DESIGNED_BY_FREEPIK">
</g>
</svg>
