<?xml version="1.0" encoding="utf-8"?>
<!-- Generator: Adobe Illustrator 23.0.5, SVG Export Plug-In . SVG Version: 6.00 Build 0)  -->
<svg version="1.1" xmlns="http://www.w3.org/2000/svg" xmlns:xlink="http://www.w3.org/1999/xlink" x="0px" y="0px"
	 viewBox="0 0 500 500" style="enable-background:new 0 0 500 500;" xml:space="preserve">
<style type="text/css">
	.st0{display:none;}
	.st1{display:inline;fill:#F7E2BC;}
	.st2{opacity:0.1;fill:#1F142A;}
	.st3{fill:#DD8562;}
	.st4{fill:#1F142A;}
	.st5{fill:#F7986A;}
	.st6{fill:none;stroke:#7A251E;stroke-linecap:round;stroke-linejoin:round;stroke-miterlimit:10;}
	.st7{fill:#FFFFFF;}
	.st8{fill:#F9DB55;}
	.st9{fill:#A52B94;}
	.st10{fill:#2D0C0A;}
	.st11{fill:#34404C;}
	.st12{fill:#7A251E;}
	.st13{fill:#FF7694;}
	.st14{fill:#BA6349;}
</style>
<g id="BACKGROUND" class="st0">
	<rect x="0" y="0" class="st1" width="500" height="500"/>
</g>
<g id="OBJECTS">
	<g>
		<path class="st2" d="M240.92,369.39c-5.38,1.15-12.15,1.35-12.82-1.82c-0.68-3.17,14.47-12.33,19.69-9.72
			C253,360.47,249.61,367.54,240.92,369.39z"/>
		<path class="st2" d="M253.28,374.21c-5.38,1.15-12.15,1.35-12.82-1.82c-0.68-3.17,14.47-12.33,19.69-9.72
			C265.37,365.28,261.97,372.36,253.28,374.21z"/>
		<g>
			<g>
				<path class="st3" d="M251.43,314.63c0.74-3.59,0.95-7.01,0.9-10.01c-0.83,0.06-1.66,0.11-2.5,0.14
					c-4.1,0.17-8.39,0.07-12.67-0.44c0.61,6.05,1.41,13.91,2.17,21.44l10.39-0.26C250.22,321.48,250.81,317.66,251.43,314.63z"/>
				<path class="st4" d="M249.18,353.94c0.12-10.77,2.35-28.49,2.35-28.49l-1.81,0.04l-10.39,0.26l-1.01,0.02
					c0,0,3.32,22.58,1.76,25.97c-1.56,3.38-6.73,9.95-6.73,9.95c-1.77,1.68-3.17,3.04-3.35,3.81c-0.54,2.32,4.46,2.5,7.67,1.96
					c2.71-0.45,4.41-2.82,7.13-5.69l0.09,1.86h2.41c1.25-3.91,1.66-6.4,1.8-7.64l0.07-0.08c0-0.12,0-0.24,0-0.36
					C249.26,355.01,249.25,354.48,249.18,353.94z"/>
			</g>
			<g>
				<path class="st5" d="M191.84,219.37c0.4-0.93,1.46-2.07,2.29-2.95l5.25,12.72c0.83,0,21.69-2.59,21.69-2.59
					c0.17-0.86,0.48-2.35,0.91-4.21c6.16,0.73,10.01,3.62,11.31,4.76c-1.07,10.48-2.11,13.33-5.71,12.87
					c-2.29,0.04-13.15-5.6-19.72-6.29c-6.87-0.71-13.12-2.86-13.56-6.07l-0.09-1.87c0,0-1.29,0-1.03-1.78c0,0-1.07-1.61-0.4-2.63
					C192.78,221.33,191.22,220.84,191.84,219.37z"/>
				<path class="st6" d="M221.07,226.55c0,0,3.19,0.04,4.24,4.29"/>
				<path class="st7" d="M226.75,206.89c3.69-8.68,11.9-8.63,11.9-8.63s-3.02,2.25-4.21,16.03c-0.45,5.18-0.8,9.4-1.15,12.81
					c-1.3-1.14-5.15-4.03-11.31-4.76C222.96,218.12,224.59,211.98,226.75,206.89z"/>
			</g>
			<path class="st7" d="M244.33,195.69c0,0-2.74,0.04-7.03,2.73c-4.56,2.86-13.54,15.23-10.67,23.17c2.88,7.99,1.69,5.47,1.56,11.84
				c-0.13,6.38-2.21,18.22-2.21,18.22s1.95,1.69,8.72,0.13L244.33,195.69z"/>
			<path class="st7" d="M208.19,194.4l12.88,32.15l0.8,1.99c0,0-21.65,0.59-22.49,0.59l-5.25-12.72l-9.03-21.9L208.19,194.4z"/>
			<path class="st5" d="M199.38,229.14l-5.25-12.72c0.48-0.51,0.89-0.94,1.05-1.2c0.45-0.71,2.9,0.67,1.03,3.35
				c0,0,3.52-0.71,3.12,0.76c-0.4,1.47-1.43,1.87-1.43,1.87s2.81-0.54,3.17,0.45c0.36,0.98-2.19,1.83-2.19,1.83s2.9,0.04,2.86,0.76
				c-0.04,0.71-0.71,2.28-2.94,1.96c0,0,1.16,0.49,0.22,1.87"/>
			<path class="st8" d="M244.33,195.69c-2.15,0.55-11.39,4.72-16.03,17.75c-4.43,12.43,2.56,9.07,1.72,15.57
				c-8.35,64.45-11.12,73.84-10.64,70.15c5.59,2.86,11.69,4.43,17.79,5.16c4.29,0.51,8.57,0.61,12.67,0.44
				c0.84-0.04,1.68-0.09,2.5-0.14c4.57-0.32,8.85-0.94,12.6-1.65c8.38-1.59,14.05-3.63,14.05-3.63
				c-2.5-13.38-18.02-40.93-14.81-65.91c3.21-24.98-1.48-33.44-2.5-34.44c-1.28-1.26-3.76-2.96-7.23-3.86
				C251.49,194.38,244.33,195.69,244.33,195.69z"/>
			<g>
				<path class="st9" d="M260.44,165.54c-4.03-4-11.17-3.48-11.17-3.48s-7.98-4.69-14.94,2.9c-10.75,11.72-0.43,13.04-1.31,16.54
					c-1.28,5.04-2.67,7.29-2.32,11.98c0,0,20.48,2.6,35.92-1.04C266.63,192.43,267.62,172.67,260.44,165.54z"/>
				<path class="st5" d="M258.1,180.96c-0.22-3.81-5.06-0.77-5.06-0.77s0.86-6.16-6.4-7.86c-3.7-0.87-2.05-4.75-2.05-4.75
					s-7.41-2.84-8.97,8.33c-0.58,4.17-2.13,12.76,3.83,15.46c0.87,0.39,1.75,0.64,2.64,0.77c0.27,0.04,0.54,0.07,0.81,0.09
					c4.9,0.31,9.58-2.92,10.78-5.89C253.67,186.33,258.32,184.77,258.1,180.96z"/>
				<g>
					<path class="st10" d="M244.06,180.07c0.18,0.6,0.81,0.95,1.42,0.77c0.6-0.18,0.95-0.81,0.77-1.42
						c-0.18-0.6-0.81-0.95-1.42-0.77C244.23,178.83,243.89,179.47,244.06,180.07z"/>
					<path class="st10" d="M237.39,180.66c0.18,0.6,0.81,0.95,1.42,0.77c0.6-0.18,0.95-0.81,0.77-1.42
						c-0.18-0.6-0.81-0.95-1.42-0.77C237.56,179.42,237.22,180.05,237.39,180.66z"/>
					<path class="st11" d="M240.66,177.84c0.09-0.02,0.19-0.07,0.26-0.14c0.18-0.19,0.18-0.49-0.01-0.67
						c-0.07-0.07-1.87-1.75-4.82-0.05c-0.23,0.13-0.31,0.43-0.18,0.66c0.13,0.23,0.43,0.31,0.66,0.18c2.3-1.32,3.63-0.14,3.68-0.08
						C240.36,177.83,240.52,177.87,240.66,177.84z"/>
					<path class="st11" d="M247.13,177.07c0.09-0.02,0.18-0.07,0.26-0.14c0.18-0.19,0.18-0.49-0.01-0.67
						c-0.08-0.07-1.87-1.75-4.82-0.05c-0.23,0.13-0.31,0.43-0.18,0.66c0.13,0.23,0.43,0.31,0.66,0.18c2.3-1.32,3.63-0.14,3.68-0.08
						C246.83,177.06,246.99,177.1,247.13,177.07z"/>
					<path class="st12" d="M242.36,186.61C242.36,186.61,242.36,186.61,242.36,186.61c0.73,0.19,1.38,0.13,1.92-0.19
						c0.85-0.5,1.1-1.45,1.11-1.49c0.07-0.26-0.12-0.5-0.35-0.58c-0.26-0.07-0.52,0.09-0.58,0.34c-0.06,0.23-0.45,1.36-1.85,0.99
						c-0.26-0.07-0.52,0.09-0.59,0.34C241.96,186.28,242.11,186.54,242.36,186.61z"/>
					<path class="st12" d="M243.18,184.16c0.02,0,0.04-0.01,0.04-0.01c0.26-0.06,0.42-0.32,0.36-0.58
						c-0.06-0.26-0.34-0.41-0.58-0.36c-0.03,0.01-0.63,0.13-0.96-0.18c-0.32-0.3-0.3-0.94-0.22-1.43c0.44-2.81-0.3-3.78-0.39-3.88
						c-0.17-0.2-0.48-0.23-0.68-0.05c-0.2,0.17-0.23,0.47-0.05,0.68l0,0c0,0,0.54,0.77,0.17,3.11c-0.16,1.04,0.01,1.81,0.52,2.28
						C242.04,184.34,242.96,184.2,243.18,184.16z"/>
					<path class="st13" d="M247.51,182.66c0,0-1.1-0.88-1.53-0.12c-0.51,0.92,2.37,1.7,2.37,1.7s1.1-2.63,0.03-2.82
						C247.3,181.24,247.51,182.66,247.51,182.66z"/>
					<path class="st13" d="M238.49,183.75c0,0,1.03-0.96,1.52-0.24c0.58,0.87-2.22,1.88-2.22,1.88s-1.31-2.54-0.25-2.81
						C238.58,182.32,238.49,183.75,238.49,183.75z"/>
				</g>
				<path class="st14" d="M256.79,182.18c0.06-0.01,0.12-0.02,0.18-0.05c0.28-0.13,0.41-0.46,0.29-0.74
					c-0.5-1.14-1.49-1.24-1.94-1.13c-0.3,0.07-0.49,0.38-0.42,0.68c0.07,0.3,0.37,0.48,0.67,0.42c0.1-0.02,0.43-0.03,0.66,0.49
					C256.33,182.07,256.55,182.2,256.79,182.18z"/>
				<path class="st14" d="M253.68,183.48c0.09,0.05,0.19,0.07,0.3,0.06c1.85-0.14,2.78-2.23,2.82-2.31
					c0.12-0.28,0.02-0.61-0.29-0.74c-0.28-0.12-0.62,0-0.74,0.29c-0.01,0.02-0.7,1.56-1.88,1.64c-0.31,0.02-0.54,0.29-0.52,0.6
					C253.4,183.22,253.52,183.39,253.68,183.48z"/>
				<g>
					<g>
						<g>
							<g>
								<path class="st5" d="M253.77,186.12c-1.06,2.83-5.22,5.96-9.8,6.1c0,0,0.64,2.92,0.48,4.33c0,0,4.24,3.76,9.5-1.21
									C254.73,194.61,253.77,186.12,253.77,186.12z"/>
							</g>
						</g>
					</g>
					<path class="st3" d="M243.97,192.23c0,0,0.15,0.7,0.29,1.58c0.02,0,0.05,0,0.07,0.01c0.21,0.01,0.41,0,0.62,0
						c3.85-0.09,7.41-2.29,9.11-4.67c-0.13-1.67-0.29-3.01-0.29-3.01C252.72,188.95,248.55,192.08,243.97,192.23z"/>
				</g>
			</g>
			<path class="st7" d="M245.98,222.28c-0.51,12.58,1.74,31.93,1.74,31.93c8.5,4.16,18.05,0.17,18.05,0.17
				c-5.21-13.71-0.17-51.19-4.09-55.41c-3.92-4.21-7.49-4.42-7.49-4.42S246.76,203.11,245.98,222.28z"/>
			<g>
				<path class="st5" d="M228.65,215.34c1.07-1.07,3.93-5.12,9.87-0.83c5.95,4.28,7.26,6.66,9.87,7.85
					c2.62,1.19,11.18,3.57,13.56,6.9c0,0-0.78-1.46-2.45-2.29c0,0,0.12-0.94,0.25-2.45c3.11,1.68,7.81,4.83,10.97,9.79
					c-0.76,5.39-2.16,9.59-4.43,10.19c-6.07,1.61-21.77-18.2-24.98-18.2s-4.82-2.14-4.82-2.14s-3.33,2.38-3.69-1.9
					c0,0-1.19,0.48-1.31-1.9c0,0-1.43-1.19-0.71-2.74c0.71-1.55,2.74-1.67,2.74-1.67s-1.43-0.71-3.09,1.07
					C228.77,218.79,227.58,216.41,228.65,215.34z"/>
				<path class="st7" d="M259.76,224.52c0.28-3.24,0.63-9.14,0.06-14.17c-0.83-7.38-1.67-9.99,0.59-11.01
					c3.42-1.53,8.21,1.61,9.99,8.92c1.12,4.58,1.61,17,0.32,26.04C267.57,229.35,262.87,226.2,259.76,224.52z"/>
			</g>
			<path class="st6" d="M231.51,220.34c0,0,0.79-2.94,3.95-2.25"/>
			<g>
				<path class="st5" d="M249.83,304.75c5.5-0.23,10.68-0.95,15.1-1.79c0.55,3.88,0.92,9.77-0.41,16.18
					c-0.64,3.08-1.23,6.96-1.74,11.03l-10.35,0.25C251.48,321.02,250.47,311.06,249.83,304.75z"/>
				<path class="st4" d="M246.45,366.38c0,0,5.16-6.57,6.73-9.95c1.56-3.38-1.76-25.97-1.76-25.97l1.01-0.02
					c1.15,11.38,2.22,21.94,2.45,24.22C255.24,358.25,250.06,362.97,246.45,366.38z"/>
				<path class="st4" d="M243.11,370.19c0.18-0.76,1.57-2.13,3.35-3.81c3.61-3.42,8.79-8.13,8.43-11.72
					c-0.23-2.28-1.3-12.84-2.45-24.22l10.35-0.25l1.85-0.05c0,0-2.22,17.72-2.35,28.49c0.07,0.54,0.07,1.07,0,1.61
					c0,0.12,0,0.24,0,0.36l-0.07,0.08c-0.14,1.23-0.56,3.72-1.8,7.64h-2.41l-0.09-1.86c-2.72,2.88-4.42,5.24-7.13,5.69
					C247.57,372.69,242.57,372.51,243.11,370.19z"/>
			</g>
			<path class="st6" d="M232.81,222.24c0,0,0.43-2.03,2.95-1.38"/>
			<path class="st6" d="M259.51,226.97c0,0,2.76,1.01,4.41,5.26"/>
		</g>
	</g>
</g>
<g id="DESIGNED_BY_FREEPIK">
</g>
</svg>
