<?xml version="1.0" encoding="utf-8"?>
<!-- Generator: Adobe Illustrator 23.0.5, SVG Export Plug-In . SVG Version: 6.00 Build 0)  -->
<svg version="1.1" xmlns="http://www.w3.org/2000/svg" xmlns:xlink="http://www.w3.org/1999/xlink" x="0px" y="0px"
	 viewBox="0 0 500 500" style="enable-background:new 0 0 500 500;" xml:space="preserve">
<style type="text/css">
	.st0{display:none;}
	.st1{display:inline;fill:#F7E2BC;}
	.st2{opacity:0.1;fill:#1F142A;}
	.st3{fill:#B5597A;}
	.st4{fill:#F79E40;}
	.st5{fill:#EAEAEA;}
	.st6{fill:#CC6283;}
	.st7{fill:#D8D8D8;}
	.st8{fill:#FFFFFF;}
	.st9{fill:#28D8E5;}
	.st10{fill:none;stroke:#34404C;stroke-linecap:round;stroke-linejoin:round;stroke-miterlimit:10;}
	.st11{fill:#F7986A;}
	.st12{fill:none;stroke:#7A251E;stroke-linecap:round;stroke-linejoin:round;stroke-miterlimit:10;}
	.st13{fill:#DB6E95;}
	.st14{fill:none;}
	.st15{fill:#34404C;}
	.st16{fill:#2D0C0A;}
	.st17{fill:#7A251E;}
	.st18{fill:#FF7694;}
	.st19{fill:#BA6349;}
	.st20{fill:#DD8562;}
</style>
<g id="BACKGROUND" class="st0">
	<rect x="0" y="0" class="st1" width="500" height="500"/>
</g>
<g id="OBJECTS">
	<g>
		<g>
			<path class="st2" d="M200.31,319.44c-20.34,6.95-21.83,31.25,51.1,27.78c72.92-3.47,69.45-24.31,69.45-24.31L200.31,319.44z"/>
			<path class="st2" d="M359.04,330.06c10.05,1.41,21.44,1.54,20.96,5c-0.48,3.46-31.31,8.24-39.11,3.19
				C333.08,333.19,342.78,327.79,359.04,330.06z"/>
		</g>
		<g>
			<path class="st3" d="M227.44,229.33c6.83-2.67,12.49,2.24,17.51,9.4c2.87,4.09,7.05,10.47,7.05,10.47s2.64-5.26,6.25-5.02
				c3.13,0.21,2.51-2.03,5.29-1.17c2.78,0.85,7.69,4.7,7.26,7.69c-0.43,2.99-2.56,4.49-2.56,4.49s0,2.56-2.56,5.77
				c-2.56,3.2-8.97,8.33-15.16,5.77c-6.19-2.56-15.59-16.87-16.66-19.65c-1.07-2.78-6.19-9.82-11.96-10.68
				C221.89,236.38,223.05,231.05,227.44,229.33z"/>
			<path class="st4" d="M262.42,268.69c1.71-0.97,1.08-2.39-0.82-3.98c1.73-1.2,3.16-2.61,4.08-3.76c1.22-1.52,1.85-2.89,2.19-3.92
				c7.07,4.28,13.52,8.03,18.9,10.53c-5.25,0.62-11.68,1.41-19.7,2.25L262.42,268.69z"/>
			<path class="st5" d="M248.77,276.21c2.08,1.14,5.18,2.47,8.36,2.47c5.55,0,30.76-2.78,40.79-1.5
				c10.04,1.28,51.47,45.28,51.47,45.28s0.32,10.15-13.78,11.11c-14.1,0.96-44.85-33.64-56.39-33.96
				c-11.53-0.32-10.25,1.92-19.22-1.92c-8.97-3.84-20.82-10.25-24.19-9.61C237.79,283,243.08,279.09,248.77,276.21z"/>
			<path class="st6" d="M202.77,233.5c13.83-6.03,24.4-0.37,24.4-0.37c5.93,2.72,9.45,19.22,17.94,22.91
				c8.49,3.68,22.11,9.93,17.3,12.65l4.65,1.12c0,0-0.54,0.11-1.47,0.34c-0.99,0.24-2.44,0.62-4.16,1.13
				c-0.41,0.12-0.84,0.25-1.28,0.39c-0.05,0.02-0.1,0.03-0.15,0.05c-0.9,0.28-1.85,0.6-2.84,0.95c-0.1,0.03-0.19,0.07-0.29,0.1
				c-0.39,0.14-0.78,0.28-1.18,0.43c-0.13,0.05-0.25,0.1-0.38,0.14c-0.48,0.18-0.96,0.37-1.44,0.56c-0.02,0.01-0.04,0.02-0.06,0.02
				c-0.5,0.2-1,0.41-1.5,0.63c-0.14,0.06-0.28,0.12-0.42,0.19c-0.38,0.17-0.76,0.34-1.14,0.51c-0.15,0.07-0.3,0.14-0.45,0.21
				c-0.51,0.24-1.01,0.48-1.52,0.74c-5.68,2.88-10.98,6.8-12.94,11.86c0,0-0.25-0.02-0.7-0.06c-3.62-0.32-20.78-2.27-31.34-10.84
				C191.93,267.57,184.29,241.56,202.77,233.5z"/>
			<path class="st4" d="M183.54,226.06c0.01,1.17,0.19,2.34,0.54,3.48c1.28,4.11,4.48,7.95,9.45,10.28
				c-1.49,2.96-2.64,7.08-3.26,12.47c-2.08,18.33,17.26,32.08,27.63,32.16c7.73,2.55,15.01,3.36,17.22,3.56
				c0.18,0.09,0.4,0.11,0.7,0.06c3.36-0.64,15.22,5.77,24.19,9.61c8.97,3.84,7.69,1.6,19.22,1.92c7.33,0.2,22.44,14.27,36.1,24.24
				c-3.01,6.09-6.09,17.73-70.38,17.73c-65.04,0-78.81-50.62-79.45-57.35C164.86,277.52,159.45,241.84,183.54,226.06z"/>
			<path class="st7" d="M261.43,271.28c1.72-0.51,3.17-0.89,4.16-1.13l1.47-0.34c27.45-2.88,36.42-5.23,42.4-1.6
				c5.98,3.63,48.06,42.5,48.7,43.14c0.64,0.64-1.28,10.68-8.76,11.11c0,0-41.44-44-51.47-45.28c-10.04-1.28-35.24,1.5-40.79,1.5
				c-3.18,0-6.28-1.33-8.36-2.47C253.23,273.95,257.92,272.32,261.43,271.28z"/>
			<path class="st3" d="M222.53,238.09c0,0,20.93-18.58-9.4-24.99c-22.82-4.82-32.04,6.83-29.05,16.45
				C187.07,239.16,200.53,247.28,222.53,238.09z"/>
			<g>
				<path class="st8" d="M275.07,221.91c0,0-12.17-4.33-27.23-1.6c10.15-6.67,26.16-1.66,26.16-1.66
					c6.19-7.37,12.12-4.43,12.12-4.43S276.99,216.95,275.07,221.91z"/>
				<path class="st9" d="M247.84,220.31c15.06-2.72,27.23,1.6,27.23,1.6c1.92-4.97,11.05-7.69,11.05-7.69l-3.52,25.47l-10.09,6.57
					l-26.75,1.28L247.84,220.31z"/>
			</g>
			<line class="st10" x1="274.96" y1="223.78" x2="272.83" y2="243.22"/>
			<path class="st11" d="M244.74,235.85c14.8-0.72,10.74,5.28,9.5,4.49c0,0,3.63,2.14-0.11,3.95c0,0,0.64,2.03-1.39,2.14
				c0,0,2.46,2.99-0.75,2.78c-3.2-0.21-6.3-2.46-8.76-0.11c-2.46,2.35-5.87,2.67-5.87,2.67l-1.92,2.56c0,0-5.65-1.92-5.02-2.99
				C233.85,245.57,233.74,236.38,244.74,235.85z"/>
			<path class="st12" d="M254.25,240.33c0,0-3.84-2.08-8.57-1.04"/>
			<path class="st12" d="M254.14,244.28c0,0-4.62-3.47-9.5-1.23"/>
			<path class="st12" d="M252.75,246.42c0,0-2.78-2.19-7.9-0.69"/>
			<g>
				<path class="st3" d="M229.47,248.66c0,0,6.94,0.11,9.61,6.94C233.31,254,229.47,248.66,229.47,248.66z"/>
				<path class="st13" d="M190.28,252.29c2.14-18.8,10.79-22.21,17.83-14.42c7.05,7.8,4.16,21.47,6.41,22.85
					c2.24,1.39,8.76-7.05,10.89-7.05c0,0-0.11-3.1,4.06-5.02c0,0,3.84,5.34,9.61,6.94c0,0-1.17,4.38-2.99,5.23
					c0,0-7.26,22.96-17.41,23.6C208.54,285.08,188.14,271.09,190.28,252.29z"/>
			</g>
			<path class="st10" d="M225.41,253.68c0,0,1.67,2.93,5.55,5.17"/>
			<path class="st10" d="M268.24,255.18c0,0-3.58,0.93-8.7-5.47"/>
			<path class="st14" d="M267.06,269.81l-1.47,0.34C266.52,269.92,267.06,269.81,267.06,269.81z"/>
			<path class="st10" d="M255.3,273.35c0.13-0.05,0.26-0.1,0.38-0.14C255.56,273.25,255.43,273.3,255.3,273.35z"/>
			<path class="st10" d="M256.87,272.77c0.1-0.03,0.19-0.07,0.29-0.1C257.06,272.7,256.97,272.74,256.87,272.77z"/>
			<path class="st10" d="M253.8,273.93c0.02-0.01,0.04-0.02,0.06-0.02C253.84,273.92,253.82,273.92,253.8,273.93z"/>
			<path class="st10" d="M250.29,275.47c0.15-0.07,0.3-0.14,0.45-0.21C250.58,275.33,250.43,275.4,250.29,275.47z"/>
			<path class="st10" d="M251.87,274.75c0.14-0.06,0.28-0.12,0.42-0.19C252.15,274.62,252.01,274.69,251.87,274.75z"/>
			<path class="st10" d="M260,271.72c0.05-0.02,0.1-0.03,0.15-0.05C260.1,271.69,260.05,271.7,260,271.72z"/>
			<path class="st10" d="M252.29,274.56c0.5-0.22,1.01-0.43,1.5-0.63C253.3,274.13,252.8,274.35,252.29,274.56z"/>
			<path class="st10" d="M250.73,275.26c0.38-0.18,0.76-0.35,1.14-0.51C251.49,274.91,251.11,275.09,250.73,275.26z"/>
			<path class="st10" d="M248.77,276.21c0.5-0.26,1.01-0.5,1.52-0.74C249.78,275.71,249.27,275.95,248.77,276.21z"/>
			<path class="st10" d="M261.43,271.28c-0.41,0.12-0.84,0.25-1.28,0.39C260.59,271.53,261.02,271.4,261.43,271.28L261.43,271.28z"
				/>
			<path class="st10" d="M255.69,273.2c0.4-0.15,0.79-0.29,1.18-0.43C256.48,272.91,256.09,273.05,255.69,273.2z"/>
			<path class="st10" d="M257.16,272.67c0.99-0.35,1.94-0.67,2.84-0.95C259.1,272,258.15,272.32,257.16,272.67z"/>
			<path class="st10" d="M253.86,273.91c0.49-0.2,0.97-0.38,1.44-0.56C254.83,273.53,254.35,273.71,253.86,273.91z"/>
			<path class="st10" d="M207.43,236.37"/>
			<g>
				<path class="st15" d="M231.77,212.09c-2.43-3.71,8.09-5.22-4.96-19.81s-23.61-0.47-23.61-0.47s-6.48-0.33-7.96,6.5
					c-0.39,1.8-6.94,31.89,22.7,30.25C235.97,227.57,231.77,212.09,231.77,212.09z"/>
				<path class="st11" d="M201.22,216.55c-0.51-4.66,5.99-1.97,5.99-1.97s-2.3-7.3,6.17-10.85c4.31-1.81-0.21-7.43-0.21-7.43
					s10.15-3.7,14.31,9.54c1.56,4.95,5.18,15.05-1.49,19.54c-0.97,0.65-2,1.13-3.04,1.47c-0.32,0.1-0.64,0.19-0.96,0.27
					c-5.88,1.38-12.22-1.59-14.28-4.96C207.7,222.16,201.73,221.21,201.22,216.55z"/>
				<g>
					<path class="st16" d="M218.08,212.61c-0.09,0.77-0.79,1.32-1.56,1.22c-0.77-0.09-1.32-0.79-1.22-1.56
						c0.09-0.77,0.79-1.32,1.56-1.22C217.63,211.14,218.17,211.84,218.08,212.61z"/>
					<path class="st16" d="M226.3,211.96c-0.09,0.77-0.79,1.32-1.56,1.22c-0.77-0.09-1.32-0.79-1.22-1.56
						c0.09-0.77,0.79-1.32,1.56-1.22C225.84,210.49,226.39,211.19,226.3,211.96z"/>
					<path class="st15" d="M221.75,209.21c-0.12,0-0.24-0.04-0.34-0.12c-0.26-0.2-0.31-0.56-0.12-0.82c0.08-0.1,1.92-2.51,5.84-1.05
						c0.31,0.11,0.46,0.45,0.35,0.76c-0.11,0.31-0.45,0.46-0.76,0.35c-3.06-1.14-4.43,0.57-4.49,0.65
						C222.12,209.14,221.94,209.22,221.75,209.21z"/>
					<path class="st15" d="M213.74,209.59c-0.12,0-0.24-0.04-0.34-0.12c-0.26-0.2-0.31-0.56-0.12-0.82c0.08-0.1,1.92-2.51,5.84-1.05
						c0.31,0.11,0.46,0.45,0.35,0.76c-0.11,0.31-0.45,0.46-0.76,0.35c-3.06-1.14-4.43,0.57-4.49,0.65
						C214.11,209.51,213.93,209.59,213.74,209.59z"/>
					<path class="st17" d="M221.48,220.2C221.48,220.2,221.48,220.2,221.48,220.2c-0.85,0.39-1.64,0.44-2.36,0.16
						c-1.13-0.43-1.63-1.53-1.65-1.58c-0.13-0.3,0.04-0.63,0.3-0.78c0.3-0.13,0.65,0,0.78,0.3c0.12,0.27,0.82,1.56,2.44,0.82
						c0.3-0.13,0.65,0,0.78,0.29C221.9,219.72,221.77,220.06,221.48,220.2z"/>
					<path class="st17" d="M219.99,217.39c-0.03,0-0.05,0-0.06,0c-0.32-0.02-0.57-0.3-0.55-0.63c0.02-0.32,0.32-0.57,0.63-0.55
						c0.04,0.01,0.79,0.02,1.12-0.42c0.33-0.43,0.17-1.2-0.02-1.78c-1.11-3.32-0.41-4.65-0.32-4.79c0.17-0.28,0.53-0.37,0.81-0.2
						c0.28,0.17,0.37,0.53,0.2,0.81l0,0c0,0-0.5,1.05,0.43,3.81c0.41,1.23,0.36,2.2-0.17,2.88
						C221.4,217.38,220.26,217.4,219.99,217.39z"/>
					<path class="st18" d="M214.42,216.45c0,0,1.16-1.29,1.83-0.45c0.81,1.01-2.53,2.55-2.53,2.55s-1.87-2.97-0.61-3.42
						C214.39,214.68,214.42,216.45,214.42,216.45z"/>
					<path class="st18" d="M225.6,215.93c0,0-1.45-0.96-1.89,0.02c-0.53,1.18,3.08,1.83,3.08,1.83s1.07-3.35-0.26-3.46
						C225.19,214.22,225.6,215.93,225.6,215.93z"/>
				</g>
				<path class="st19" d="M203.07,217.76c-0.07,0.01-0.15,0-0.23-0.02c-0.37-0.09-0.59-0.47-0.5-0.84c0.38-1.49,1.56-1.8,2.12-1.77
					c0.38,0.03,0.67,0.36,0.64,0.74c-0.03,0.38-0.35,0.66-0.72,0.64c-0.12,0-0.53,0.06-0.7,0.73
					C203.61,217.54,203.36,217.74,203.07,217.76z"/>
				<path class="st19" d="M207.1,218.7c-0.1,0.07-0.22,0.12-0.35,0.14c-2.28,0.21-3.83-2.13-3.9-2.23c-0.21-0.32-0.15-0.73,0.2-0.96
					c0.32-0.21,0.75-0.12,0.96,0.2c0.01,0.02,1.17,1.75,2.61,1.61c0.38-0.03,0.72,0.25,0.75,0.63
					C207.4,218.34,207.28,218.57,207.1,218.7z"/>
				<g>
					<g>
						<g>
							<g>
								<path class="st11" d="M207.53,221.93c1.86,3.22,7.55,6.17,13.14,5.41c0,0-0.18,3.68,0.3,5.36c0,0-4.38,5.43-11.78,0.47
									C208.1,232.43,207.53,221.93,207.53,221.93z"/>
							</g>
						</g>
					</g>
					<path class="st20" d="M220.67,227.34c0,0-0.04,0.88-0.03,1.97c-0.03,0.01-0.05,0.01-0.08,0.02c-0.25,0.05-0.5,0.09-0.75,0.12
						c-4.69,0.68-9.46-1.27-12.01-3.81c-0.18-2.05-0.27-3.71-0.27-3.71C209.39,225.15,215.08,228.1,220.67,227.34z"/>
				</g>
			</g>
			<path class="st7" d="M355.43,311.42c0,0,1.76,2.08,3.36,1.6c1.6-0.48-0.32-10.73,3.2-12.66c3.52-1.92,9.77-8.81,12.17-6.73
				c2.4,2.08,0.48,6.41,0.48,6.41s1.76,5.93-2.24,10.73c-4,4.81-7.05,12.82-8.81,14.1c-1.76,1.28-4.81,3.84-13.3-4.65
				C350.31,320.23,349.02,314.15,355.43,311.42z"/>
			<path class="st5" d="M347.8,321.71c0,0,1.76,2.08,3.36,1.6c1.6-0.48-0.32-10.73,3.2-12.65c3.52-1.92,9.77-8.81,12.17-6.73
				c2.4,2.08,0.48,6.41,0.48,6.41s1.76,5.93-2.24,10.73c-4,4.81-7.05,12.82-8.81,14.1c-1.76,1.28-4.81,3.84-13.3-4.65
				C342.67,330.52,341.39,324.43,347.8,321.71z"/>
			<path class="st10" d="M342.35,319.25c0,0-9.13,7.05-1.28,13.14"/>
			<path class="st10" d="M262.42,268.69c0,0-22.05,1.01-29.31,12.55"/>
			<path class="st11" d="M267.62,250.19c3.14,0.46,9.93-0.48,11.61-3.44c1.68-2.96,5.53-4.81,4.08-5.93c0,0,2.8-1.84,1.28-3.04
				c0,0,1.68-2.64,0.4-3.44c0,0,3.28-3.92-0.4-4.49c-3.68-0.56-6.41,3.68-5.45,4.49c0.96,0.8-2.72,1.52-1.04,4.08
				c0,0-1.8,1.04-0.48,2.88c0,0-1.68,2,0,2.56c1.68,0.56-2.96-0.88-3.52,0.24c-0.56,1.12-3.76-1.36-5.85-0.56
				c-2.08,0.8-4.33,3.44-4.33,3.44S263.22,249.54,267.62,250.19z"/>
			<path class="st12" d="M279.22,234.39c0,0,1.67,1.54,5.78-0.07"/>
			<path class="st12" d="M278.11,238.41c0,0,2.42,1.5,6.49-0.64"/>
			<path class="st12" d="M277.63,241.29c0.08,0.03,2.11,1.31,5.69-0.48"/>
			<g>
				<path class="st15" d="M222.46,229.26c0.23,0.63,0.22,1.35,0.03,2.02c-0.19,0.67-0.58,1.26-1.01,1.78
					c-0.43,0.53-0.94,0.97-1.47,1.38c-0.54,0.4-1.09,0.75-1.71,1.06l-0.01,0c-0.03,0.02-0.06,0.03-0.09,0.03
					c-1.46,0.25-2.84,0.19-4.23-0.01c-1.38-0.19-2.73-0.57-4.02-1.06c-2.59-1-4.98-2.46-7.05-4.28c-2.05-1.8-4.02-3.84-5.12-6.43
					c-0.53-1.29-0.78-2.72-0.54-4.11c0.22-1.39,0.95-2.66,1.99-3.58c0.04-0.04,0.1-0.03,0.14,0.01c0.04,0.04,0.03,0.1,0,0.14
					l-0.01,0.01c-0.47,0.46-0.86,1.02-1.14,1.61c-0.3,0.59-0.49,1.23-0.57,1.88c-0.17,1.3,0.13,2.63,0.68,3.81
					c1.11,2.41,3.05,4.34,5.1,6.04c2.07,1.69,4.36,3.11,6.85,4.03c1.24,0.46,2.52,0.81,3.83,0.98c1.29,0.18,2.66,0.2,3.87-0.01
					l-0.1,0.04c0.53-0.26,1.08-0.59,1.58-0.93c0.51-0.34,0.99-0.73,1.42-1.16c0.42-0.43,0.82-0.89,1.07-1.44
					c0.27-0.53,0.36-1.13,0.32-1.76l0-0.01c0-0.05,0.04-0.1,0.09-0.11C222.41,229.19,222.45,229.22,222.46,229.26z"/>
			</g>
		</g>
	</g>
</g>
<g id="DESIGNED_BY_FREEPIK">
</g>
</svg>
