<?xml version="1.0" encoding="utf-8"?>
<!-- Generator: Adobe Illustrator 23.0.5, SVG Export Plug-In . SVG Version: 6.00 Build 0)  -->
<svg version="1.1" xmlns="http://www.w3.org/2000/svg" xmlns:xlink="http://www.w3.org/1999/xlink" x="0px" y="0px"
	 viewBox="0 0 800 800" style="enable-background:new 0 0 800 800;" xml:space="preserve">
<style type="text/css">
	.st0{display:none;}
	.st1{display:inline;}
	.st2{fill:#FAF3E8;}
	.st3{clip-path:url(#SVGID_2_);}
	.st4{opacity:0.1;fill:url(#SVGID_3_);}
	.st5{opacity:0.1;fill:url(#SVGID_4_);}
	.st6{opacity:0.1;fill:url(#SVGID_5_);}
	.st7{opacity:0.1;fill:url(#SVGID_6_);}
	.st8{opacity:0.1;fill:url(#SVGID_7_);}
	.st9{opacity:0.1;fill:url(#SVGID_8_);}
	.st10{opacity:0.1;fill:url(#SVGID_9_);}
	.st11{opacity:0.1;fill:url(#SVGID_10_);}
	.st12{fill:#E4B099;}
	.st13{fill:#1EA5B0;}
	.st14{fill:#C4E1D8;}
	.st15{fill:#FFFFFF;}
	.st16{fill:#DCEDE8;}
	.st17{fill:#FF5D10;}
	.st18{clip-path:url(#XMLID_2_);fill:#FFD01F;}
	.st19{clip-path:url(#XMLID_3_);fill:#FFFFFF;}
	.st20{fill:#BC0D26;}
	.st21{clip-path:url(#XMLID_7_);fill:#752228;}
	.st22{fill:#5E3027;}
	.st23{fill:#A6D7B2;}
	.st24{fill:#9C2D35;}
	.st25{fill:#FFC0AD;}
	.st26{fill:#F4563C;}
	.st27{fill:#FEBD34;}
	.st28{opacity:0.5;fill:#FFECA5;}
	.st29{fill:#FFF6D2;}
</style>
<g id="Background" class="st0">
	<g class="st1">
		<rect class="st2" width="800" height="800"/>
		<g>
			<defs>
				<rect id="SVGID_1_" width="800" height="800"/>
			</defs>
			<clipPath id="SVGID_2_">
				<use xlink:href="#SVGID_1_"  style="overflow:visible;"/>
			</clipPath>
			<g class="st3">
				<linearGradient id="SVGID_3_" gradientUnits="userSpaceOnUse" x1="404.2992" y1="489.7589" x2="158.657" y2="125.5793">
					<stop  offset="0.3193" style="stop-color:#FFFFFF"/>
					<stop  offset="0.3942" style="stop-color:#EBEBEB"/>
					<stop  offset="0.5485" style="stop-color:#B6B6B6"/>
					<stop  offset="0.7692" style="stop-color:#606060"/>
					<stop  offset="1" style="stop-color:#000000"/>
				</linearGradient>
				<polygon class="st4" points="94.43,258.64 271.99,436 484,436 377,221 230.5,77.12 				"/>
				<linearGradient id="SVGID_4_" gradientUnits="userSpaceOnUse" x1="883.0468" y1="488.231" x2="648.909" y2="141.1074">
					<stop  offset="0.3193" style="stop-color:#FFFFFF"/>
					<stop  offset="0.3942" style="stop-color:#EBEBEB"/>
					<stop  offset="0.5485" style="stop-color:#B6B6B6"/>
					<stop  offset="0.7692" style="stop-color:#606060"/>
					<stop  offset="1" style="stop-color:#000000"/>
				</linearGradient>
				<polygon class="st5" points="569.43,259.64 746.99,437 959,437 871,234 724.5,90.12 				"/>
				<linearGradient id="SVGID_5_" gradientUnits="userSpaceOnUse" x1="397.2339" y1="947.7323" x2="139.1825" y2="565.1553">
					<stop  offset="0.3193" style="stop-color:#FFFFFF"/>
					<stop  offset="0.3942" style="stop-color:#EBEBEB"/>
					<stop  offset="0.5485" style="stop-color:#B6B6B6"/>
					<stop  offset="0.7692" style="stop-color:#606060"/>
					<stop  offset="1" style="stop-color:#000000"/>
				</linearGradient>
				<polygon class="st6" points="78.43,722.64 255.99,900 468,900 387,685 240.5,541.12 200,568 132,570 				"/>
				<linearGradient id="SVGID_6_" gradientUnits="userSpaceOnUse" x1="888.1091" y1="713.2361" x2="643.8467" y2="351.1023">
					<stop  offset="0.3193" style="stop-color:#FFFFFF"/>
					<stop  offset="0.3942" style="stop-color:#EBEBEB"/>
					<stop  offset="0.5485" style="stop-color:#B6B6B6"/>
					<stop  offset="0.7692" style="stop-color:#606060"/>
					<stop  offset="1" style="stop-color:#000000"/>
				</linearGradient>
				<polygon class="st7" points="580.43,480.64 757.99,658 970,658 860,448 713.5,304.12 				"/>
				<linearGradient id="SVGID_7_" gradientUnits="userSpaceOnUse" x1="392.9554" y1="707.6653" x2="167.0004" y2="372.6732">
					<stop  offset="0.3193" style="stop-color:#FFFFFF"/>
					<stop  offset="0.3942" style="stop-color:#EBEBEB"/>
					<stop  offset="0.5485" style="stop-color:#B6B6B6"/>
					<stop  offset="0.7692" style="stop-color:#606060"/>
					<stop  offset="1" style="stop-color:#000000"/>
				</linearGradient>
				<polygon class="st8" points="84.43,475.64 261.99,653 474,653 384,469 237.5,325.12 				"/>
				<linearGradient id="SVGID_8_" gradientUnits="userSpaceOnUse" x1="868.8636" y1="939.7036" x2="663.0924" y2="634.6352">
					<stop  offset="0.3193" style="stop-color:#FFFFFF"/>
					<stop  offset="0.3942" style="stop-color:#EBEBEB"/>
					<stop  offset="0.5485" style="stop-color:#B6B6B6"/>
					<stop  offset="0.7692" style="stop-color:#606060"/>
					<stop  offset="1" style="stop-color:#000000"/>
				</linearGradient>
				<polygon class="st9" points="557.43,709.64 734.99,887 947,887 883,729 736.5,585.12 				"/>
				<linearGradient id="SVGID_9_" gradientUnits="userSpaceOnUse" x1="621.8682" y1="938.2104" x2="416.0878" y2="633.1284">
					<stop  offset="0.3193" style="stop-color:#FFFFFF"/>
					<stop  offset="0.3942" style="stop-color:#EBEBEB"/>
					<stop  offset="0.5485" style="stop-color:#B6B6B6"/>
					<stop  offset="0.7692" style="stop-color:#606060"/>
					<stop  offset="1" style="stop-color:#000000"/>
				</linearGradient>
				<polygon class="st10" points="290.43,721.64 467.99,899 680,899 656,714 509.5,570.12 				"/>
				<linearGradient id="SVGID_10_" gradientUnits="userSpaceOnUse" x1="621.8682" y1="457.2104" x2="416.0878" y2="152.1284">
					<stop  offset="0.3193" style="stop-color:#FFFFFF"/>
					<stop  offset="0.3942" style="stop-color:#EBEBEB"/>
					<stop  offset="0.5485" style="stop-color:#B6B6B6"/>
					<stop  offset="0.7692" style="stop-color:#606060"/>
					<stop  offset="1" style="stop-color:#000000"/>
				</linearGradient>
				<polygon class="st11" points="290.43,240.64 467.99,418 680,418 656,233 509.5,89.12 				"/>
			</g>
		</g>
	</g>
</g>
<g id="Objects">
	<g>
		<g>
			<g>
				<path class="st12" d="M305.49,1110.61v-0.26c-0.35,0.4-0.69,0.72-1.03,0.97c-0.34,0.25-0.71,0.44-1.1,0.57
					c-0.4,0.13-0.83,0.2-1.3,0.2c-0.62,0-1.2-0.13-1.72-0.39c-0.53-0.26-0.99-0.64-1.37-1.13c-0.39-0.49-0.68-1.06-0.88-1.72
					c-0.2-0.66-0.3-1.37-0.3-2.14c0-1.62,0.4-2.88,1.19-3.79c0.79-0.9,1.83-1.36,3.13-1.36c0.75,0,1.38,0.13,1.89,0.38
					c0.51,0.26,1.01,0.65,1.5,1.18v-3.83c0-0.53,0.11-0.93,0.32-1.21c0.21-0.27,0.51-0.41,0.91-0.41c0.39,0,0.69,0.13,0.91,0.38
					c0.21,0.25,0.32,0.62,0.32,1.11v11.44c0,0.49-0.11,0.86-0.34,1.11c-0.23,0.25-0.52,0.37-0.88,0.37c-0.35,0-0.65-0.13-0.88-0.38
					C305.61,1111.45,305.49,1111.08,305.49,1110.61z M300.39,1106.8c0,0.7,0.11,1.3,0.33,1.79c0.22,0.49,0.52,0.87,0.9,1.12
					c0.38,0.25,0.79,0.38,1.24,0.38c0.46,0,0.87-0.12,1.25-0.36c0.38-0.24,0.68-0.6,0.9-1.09c0.23-0.49,0.34-1.11,0.34-1.84
					c0-0.69-0.11-1.29-0.34-1.78c-0.22-0.5-0.53-0.88-0.91-1.14c-0.38-0.26-0.8-0.39-1.26-0.39c-0.47,0-0.9,0.13-1.27,0.4
					c-0.37,0.27-0.66,0.65-0.87,1.16C300.49,1105.55,300.39,1106.13,300.39,1106.8z"/>
				<path class="st12" d="M316.93,1107.46h-5.07c0.01,0.59,0.12,1.11,0.36,1.56c0.23,0.45,0.54,0.79,0.92,1.02
					c0.38,0.23,0.81,0.34,1.27,0.34c0.31,0,0.59-0.04,0.85-0.11c0.26-0.07,0.5-0.19,0.75-0.34c0.24-0.15,0.46-0.32,0.66-0.5
					c0.2-0.18,0.46-0.42,0.79-0.72c0.13-0.11,0.32-0.17,0.57-0.17c0.27,0,0.48,0.07,0.64,0.22c0.16,0.15,0.25,0.35,0.25,0.62
					c0,0.23-0.09,0.51-0.28,0.82c-0.18,0.31-0.46,0.62-0.83,0.9c-0.37,0.29-0.84,0.53-1.4,0.72c-0.56,0.19-1.2,0.29-1.93,0.29
					c-1.66,0-2.96-0.47-3.88-1.42c-0.92-0.95-1.39-2.24-1.39-3.87c0-0.77,0.11-1.48,0.34-2.13c0.23-0.66,0.56-1.22,1-1.69
					c0.44-0.47,0.98-0.83,1.62-1.08c0.64-0.25,1.35-0.38,2.13-0.38c1.01,0,1.88,0.21,2.61,0.64c0.73,0.43,1.27,0.98,1.63,1.66
					c0.36,0.68,0.54,1.37,0.54,2.07c0,0.65-0.19,1.08-0.56,1.27C318.13,1107.36,317.6,1107.46,316.93,1107.46z M311.85,1105.98h4.7
					c-0.06-0.89-0.3-1.55-0.72-1.99c-0.42-0.44-0.96-0.66-1.64-0.66c-0.65,0-1.18,0.22-1.59,0.67
					C312.19,1104.45,311.94,1105.11,311.85,1105.98z"/>
				<path class="st12" d="M328.74,1108.7c0,0.71-0.17,1.33-0.52,1.84c-0.35,0.51-0.86,0.9-1.54,1.16c-0.68,0.26-1.51,0.39-2.48,0.39
					c-0.93,0-1.73-0.14-2.39-0.43c-0.66-0.28-1.16-0.64-1.47-1.07c-0.32-0.43-0.48-0.86-0.48-1.29c0-0.29,0.1-0.53,0.3-0.73
					c0.2-0.2,0.46-0.3,0.77-0.3c0.27,0,0.48,0.07,0.63,0.2s0.29,0.32,0.42,0.56c0.27,0.46,0.58,0.81,0.96,1.04
					c0.37,0.23,0.87,0.34,1.52,0.34c0.52,0,0.94-0.12,1.28-0.35c0.33-0.23,0.5-0.5,0.5-0.79c0-0.46-0.17-0.79-0.52-1
					c-0.35-0.21-0.91-0.41-1.71-0.6c-0.89-0.22-1.62-0.46-2.18-0.7c-0.56-0.24-1.01-0.56-1.34-0.96c-0.34-0.4-0.5-0.89-0.5-1.47
					c0-0.52,0.15-1.01,0.47-1.47c0.31-0.46,0.77-0.83,1.37-1.11c0.6-0.28,1.33-0.41,2.19-0.41c0.67,0,1.27,0.07,1.81,0.21
					c0.54,0.14,0.98,0.33,1.34,0.56c0.36,0.23,0.63,0.49,0.82,0.78c0.19,0.29,0.28,0.56,0.28,0.84c0,0.3-0.1,0.54-0.3,0.73
					c-0.2,0.19-0.48,0.29-0.85,0.29c-0.27,0-0.49-0.08-0.68-0.23c-0.19-0.15-0.4-0.38-0.64-0.68c-0.2-0.25-0.43-0.46-0.69-0.61
					c-0.27-0.15-0.63-0.23-1.08-0.23c-0.47,0-0.86,0.1-1.17,0.3c-0.31,0.2-0.47,0.45-0.47,0.74c0,0.27,0.11,0.5,0.34,0.67
					c0.23,0.18,0.54,0.32,0.92,0.43c0.39,0.11,0.92,0.25,1.6,0.42c0.8,0.2,1.46,0.43,1.97,0.7c0.51,0.27,0.9,0.59,1.16,0.96
					C328.61,1107.8,328.74,1108.22,328.74,1108.7z"/>
				<path class="st12" d="M331.39,1100.34c-0.36,0-0.67-0.11-0.93-0.33c-0.26-0.22-0.38-0.54-0.38-0.94c0-0.37,0.13-0.67,0.39-0.91
					s0.57-0.36,0.92-0.36c0.34,0,0.63,0.11,0.89,0.32c0.26,0.21,0.39,0.53,0.39,0.94c0,0.4-0.13,0.71-0.38,0.94
					C332.04,1100.23,331.74,1100.34,331.39,1100.34z M332.67,1103.02v7.49c0,0.52-0.12,0.91-0.37,1.18c-0.25,0.27-0.56,0.4-0.94,0.4
					c-0.38,0-0.69-0.13-0.93-0.41c-0.24-0.27-0.36-0.66-0.36-1.17v-7.42c0-0.51,0.12-0.9,0.36-1.16c0.24-0.26,0.55-0.39,0.93-0.39
					c0.38,0,0.69,0.13,0.94,0.39C332.55,1102.2,332.67,1102.56,332.67,1103.02z"/>
				<path class="st12" d="M344.03,1103.45v7.53c0,0.86-0.09,1.6-0.28,2.22c-0.18,0.62-0.48,1.13-0.88,1.54
					c-0.41,0.4-0.94,0.71-1.59,0.9c-0.66,0.2-1.47,0.29-2.45,0.29c-0.89,0-1.69-0.13-2.39-0.38c-0.7-0.25-1.24-0.57-1.62-0.97
					c-0.38-0.4-0.57-0.8-0.57-1.22c0-0.32,0.11-0.58,0.32-0.77c0.21-0.2,0.48-0.3,0.78-0.3c0.38,0,0.71,0.17,1,0.5
					c0.14,0.17,0.28,0.34,0.43,0.52c0.15,0.18,0.31,0.32,0.49,0.45c0.18,0.12,0.4,0.21,0.65,0.28c0.25,0.06,0.55,0.09,0.87,0.09
					c0.67,0,1.19-0.09,1.56-0.28c0.37-0.19,0.63-0.45,0.78-0.78c0.15-0.33,0.24-0.69,0.26-1.08c0.03-0.38,0.04-1,0.06-1.85
					c-0.4,0.56-0.86,0.98-1.38,1.27c-0.52,0.29-1.14,0.44-1.87,0.44c-0.87,0-1.63-0.22-2.28-0.67c-0.65-0.44-1.15-1.06-1.5-1.86
					c-0.35-0.8-0.52-1.72-0.52-2.76c0-0.78,0.11-1.48,0.32-2.11c0.21-0.63,0.52-1.16,0.91-1.59c0.39-0.43,0.85-0.75,1.36-0.97
					c0.51-0.22,1.08-0.33,1.69-0.33c0.73,0,1.37,0.14,1.91,0.42c0.54,0.28,1.04,0.72,1.5,1.33v-0.35c0-0.45,0.11-0.8,0.33-1.04
					c0.22-0.25,0.51-0.37,0.86-0.37c0.5,0,0.83,0.16,1,0.49C343.95,1102.36,344.03,1102.83,344.03,1103.45z M336.52,1106.73
					c0,1.05,0.23,1.85,0.69,2.38c0.46,0.54,1.05,0.81,1.78,0.81c0.43,0,0.84-0.12,1.22-0.35c0.38-0.23,0.7-0.58,0.94-1.04
					c0.24-0.46,0.36-1.03,0.36-1.7c0-1.06-0.23-1.88-0.7-2.47c-0.47-0.59-1.08-0.88-1.84-0.88c-0.74,0-1.33,0.28-1.78,0.85
					C336.74,1104.89,336.52,1105.69,336.52,1106.73z"/>
				<path class="st12" d="M348.15,1102.98v0.31c0.46-0.6,0.95-1.04,1.5-1.32s1.16-0.42,1.87-0.42c0.68,0,1.29,0.15,1.83,0.45
					c0.54,0.3,0.94,0.72,1.21,1.26c0.17,0.32,0.28,0.66,0.33,1.03c0.05,0.37,0.08,0.84,0.08,1.41v4.82c0,0.52-0.12,0.91-0.36,1.18
					c-0.24,0.27-0.55,0.4-0.93,0.4c-0.39,0-0.7-0.13-0.94-0.41c-0.24-0.27-0.36-0.66-0.36-1.17v-4.32c0-0.85-0.12-1.51-0.36-1.96
					c-0.24-0.45-0.71-0.68-1.42-0.68c-0.46,0-0.88,0.14-1.26,0.41s-0.66,0.65-0.84,1.13c-0.13,0.39-0.19,1.11-0.19,2.17v3.25
					c0,0.53-0.12,0.92-0.37,1.18c-0.24,0.26-0.56,0.39-0.94,0.39c-0.37,0-0.68-0.13-0.92-0.41c-0.24-0.27-0.36-0.66-0.36-1.17v-7.49
					c0-0.49,0.11-0.86,0.32-1.11c0.22-0.24,0.51-0.37,0.88-0.37c0.23,0,0.43,0.05,0.62,0.16c0.18,0.11,0.33,0.27,0.44,0.48
					C348.1,1102.41,348.15,1102.67,348.15,1102.98z"/>
				<path class="st12" d="M363.93,1107.46h-5.07c0.01,0.59,0.12,1.11,0.36,1.56c0.23,0.45,0.54,0.79,0.92,1.02
					c0.38,0.23,0.81,0.34,1.27,0.34c0.31,0,0.59-0.04,0.85-0.11c0.26-0.07,0.5-0.19,0.75-0.34c0.24-0.15,0.46-0.32,0.67-0.5
					c0.2-0.18,0.46-0.42,0.79-0.72c0.13-0.11,0.32-0.17,0.57-0.17c0.27,0,0.48,0.07,0.65,0.22c0.16,0.15,0.25,0.35,0.25,0.62
					c0,0.23-0.09,0.51-0.28,0.82c-0.18,0.31-0.46,0.62-0.83,0.9c-0.37,0.29-0.83,0.53-1.4,0.72c-0.56,0.19-1.21,0.29-1.93,0.29
					c-1.67,0-2.96-0.47-3.89-1.42c-0.92-0.95-1.39-2.24-1.39-3.87c0-0.77,0.11-1.48,0.34-2.13c0.23-0.66,0.56-1.22,1-1.69
					c0.44-0.47,0.98-0.83,1.61-1.08s1.35-0.38,2.13-0.38c1.01,0,1.88,0.21,2.61,0.64c0.73,0.43,1.27,0.98,1.63,1.66
					c0.36,0.68,0.54,1.37,0.54,2.07c0,0.65-0.19,1.08-0.56,1.27C365.13,1107.36,364.6,1107.46,363.93,1107.46z M358.86,1105.98h4.7
					c-0.06-0.89-0.3-1.55-0.72-1.99c-0.42-0.44-0.96-0.66-1.64-0.66c-0.65,0-1.18,0.22-1.59,0.67
					C359.19,1104.45,358.94,1105.11,358.86,1105.98z"/>
				<path class="st12" d="M374.5,1110.61v-0.26c-0.35,0.4-0.69,0.72-1.03,0.97c-0.34,0.25-0.71,0.44-1.1,0.57
					c-0.4,0.13-0.83,0.2-1.3,0.2c-0.62,0-1.2-0.13-1.72-0.39c-0.53-0.26-0.99-0.64-1.37-1.13c-0.39-0.49-0.68-1.06-0.88-1.72
					c-0.2-0.66-0.3-1.37-0.3-2.14c0-1.62,0.4-2.88,1.19-3.79c0.79-0.9,1.83-1.36,3.13-1.36c0.75,0,1.38,0.13,1.89,0.38
					s1.01,0.65,1.5,1.18v-3.83c0-0.53,0.11-0.93,0.32-1.21c0.21-0.27,0.51-0.41,0.91-0.41c0.39,0,0.69,0.13,0.91,0.38
					c0.21,0.25,0.32,0.62,0.32,1.11v11.44c0,0.49-0.11,0.86-0.34,1.11c-0.23,0.25-0.52,0.37-0.88,0.37c-0.35,0-0.65-0.13-0.88-0.38
					C374.61,1111.45,374.5,1111.08,374.5,1110.61z M369.4,1106.8c0,0.7,0.11,1.3,0.33,1.79c0.22,0.49,0.52,0.87,0.9,1.12
					c0.38,0.25,0.79,0.38,1.24,0.38c0.46,0,0.87-0.12,1.25-0.36c0.38-0.24,0.68-0.6,0.9-1.09c0.23-0.49,0.34-1.11,0.34-1.84
					c0-0.69-0.11-1.29-0.34-1.78c-0.22-0.5-0.53-0.88-0.91-1.14c-0.38-0.26-0.8-0.39-1.26-0.39c-0.47,0-0.9,0.13-1.27,0.4
					c-0.37,0.27-0.66,0.65-0.87,1.16C369.5,1105.55,369.4,1106.13,369.4,1106.8z"/>
				<path class="st12" d="M385.09,1099.17v3.96c0.49-0.51,0.98-0.89,1.49-1.16c0.51-0.27,1.13-0.4,1.88-0.4
					c0.86,0,1.62,0.21,2.27,0.61c0.65,0.41,1.15,1,1.51,1.78c0.36,0.78,0.54,1.7,0.54,2.76c0,0.79-0.1,1.5-0.3,2.16
					c-0.2,0.66-0.49,1.22-0.87,1.71c-0.38,0.48-0.84,0.85-1.38,1.12c-0.54,0.26-1.14,0.39-1.79,0.39c-0.4,0-0.77-0.05-1.13-0.14
					c-0.35-0.09-0.65-0.22-0.9-0.38c-0.25-0.15-0.46-0.31-0.63-0.48c-0.17-0.16-0.4-0.41-0.69-0.74v0.26c0,0.49-0.12,0.86-0.35,1.11
					c-0.23,0.25-0.53,0.37-0.89,0.37c-0.37,0-0.66-0.12-0.88-0.37c-0.22-0.25-0.33-0.62-0.33-1.11v-11.32
					c0-0.53,0.11-0.92,0.32-1.19c0.21-0.27,0.51-0.4,0.89-0.4c0.4,0,0.71,0.13,0.92,0.38
					C384.99,1098.33,385.09,1098.7,385.09,1099.17z M385.22,1106.88c0,1.03,0.24,1.82,0.71,2.38c0.47,0.55,1.09,0.83,1.86,0.83
					c0.65,0,1.21-0.28,1.69-0.85c0.47-0.57,0.71-1.38,0.71-2.44c0-0.68-0.1-1.27-0.29-1.77c-0.2-0.49-0.47-0.88-0.84-1.14
					c-0.36-0.27-0.78-0.4-1.26-0.4c-0.49,0-0.93,0.13-1.32,0.4c-0.39,0.27-0.69,0.66-0.91,1.17
					C385.33,1105.56,385.22,1106.17,385.22,1106.88z"/>
				<path class="st12" d="M396.14,1112.41l0.24-0.58l-3.19-8.04c-0.2-0.46-0.29-0.8-0.29-1.01c0-0.22,0.06-0.43,0.17-0.62
					c0.11-0.19,0.27-0.34,0.47-0.46c0.2-0.12,0.41-0.17,0.62-0.17c0.37,0,0.65,0.12,0.85,0.36c0.19,0.24,0.36,0.58,0.5,1.02
					l2.19,6.38l2.08-5.94c0.16-0.48,0.31-0.86,0.45-1.13c0.13-0.27,0.27-0.46,0.42-0.55c0.15-0.1,0.36-0.14,0.63-0.14
					c0.2,0,0.38,0.05,0.57,0.16c0.18,0.1,0.32,0.24,0.42,0.42c0.1,0.18,0.15,0.36,0.15,0.56c-0.03,0.12-0.07,0.29-0.12,0.51
					c-0.06,0.22-0.13,0.45-0.21,0.67l-3.38,8.85c-0.29,0.78-0.58,1.39-0.86,1.83c-0.28,0.44-0.65,0.79-1.11,1.02
					c-0.46,0.24-1.08,0.36-1.86,0.36c-0.76,0-1.33-0.08-1.71-0.25c-0.38-0.17-0.57-0.47-0.57-0.9c0-0.3,0.09-0.53,0.27-0.69
					c0.18-0.16,0.45-0.24,0.8-0.24c0.14,0,0.28,0.02,0.41,0.06c0.16,0.04,0.31,0.06,0.43,0.06c0.3,0,0.53-0.04,0.7-0.13
					c0.17-0.09,0.32-0.24,0.46-0.46C395.81,1113.16,395.96,1112.84,396.14,1112.41z"/>
			</g>
			<g>
				<path class="st12" d="M433.7,1101.77h0.62v-0.78c0-0.81,0.1-1.46,0.31-1.94c0.2-0.48,0.56-0.83,1.05-1.04
					c0.49-0.22,1.16-0.33,2.02-0.33c1.52,0,2.27,0.37,2.27,1.11c0,0.24-0.08,0.45-0.24,0.62c-0.15,0.17-0.34,0.26-0.56,0.26
					c-0.1,0-0.28-0.02-0.53-0.06c-0.24-0.03-0.45-0.06-0.62-0.06c-0.47,0-0.77,0.14-0.91,0.42c-0.13,0.28-0.2,0.67-0.2,1.18v0.62
					h0.63c0.99,0,1.48,0.3,1.48,0.9c0,0.42-0.13,0.69-0.39,0.8c-0.26,0.11-0.62,0.17-1.09,0.17h-0.63v6.87
					c0,0.51-0.12,0.9-0.37,1.17c-0.24,0.27-0.55,0.41-0.94,0.41c-0.37,0-0.67-0.13-0.92-0.41c-0.24-0.27-0.36-0.66-0.36-1.17v-6.87
					h-0.71c-0.39,0-0.68-0.08-0.89-0.26c-0.21-0.17-0.31-0.4-0.31-0.68C432.4,1102.08,432.83,1101.77,433.7,1101.77"/>
				<path class="st12" d="M442.19,1108.34v2.17c0,0.52-0.13,0.92-0.37,1.18c-0.25,0.27-0.56,0.39-0.94,0.39
					c-0.38,0-0.69-0.13-0.93-0.4c-0.24-0.26-0.36-0.66-0.36-1.17v-7.22c0-1.17,0.42-1.75,1.26-1.75c0.43,0,0.74,0.13,0.93,0.41
					c0.19,0.27,0.29,0.67,0.32,1.21c0.31-0.53,0.62-0.93,0.95-1.21c0.33-0.27,0.76-0.41,1.31-0.41c0.55,0,1.07,0.13,1.58,0.41
					c0.52,0.27,0.77,0.64,0.77,1.08c0,0.31-0.11,0.58-0.33,0.78c-0.22,0.21-0.45,0.31-0.71,0.31c-0.1,0-0.33-0.06-0.69-0.18
					c-0.37-0.11-0.69-0.17-0.96-0.17c-0.38,0-0.69,0.1-0.93,0.3c-0.24,0.21-0.43,0.5-0.56,0.89c-0.13,0.39-0.22,0.87-0.27,1.4
					C442.21,1106.9,442.19,1107.57,442.19,1108.34"/>
				<path class="st12" d="M454.11,1107.45h-5.07c0.01,0.59,0.12,1.11,0.35,1.56c0.24,0.45,0.54,0.79,0.92,1.02
					c0.38,0.23,0.8,0.34,1.27,0.34c0.31,0,0.59-0.03,0.85-0.11c0.25-0.07,0.5-0.19,0.75-0.34c0.24-0.15,0.46-0.32,0.66-0.5
					c0.2-0.17,0.47-0.42,0.79-0.72c0.13-0.11,0.32-0.17,0.57-0.17c0.27,0,0.48,0.07,0.65,0.22c0.17,0.15,0.24,0.35,0.24,0.62
					c0,0.23-0.09,0.51-0.27,0.82c-0.19,0.32-0.46,0.62-0.84,0.91c-0.37,0.29-0.84,0.53-1.4,0.71c-0.56,0.19-1.21,0.29-1.93,0.29
					c-1.67,0-2.96-0.47-3.89-1.42c-0.92-0.95-1.39-2.24-1.39-3.87c0-0.77,0.12-1.48,0.35-2.13c0.22-0.66,0.56-1.22,1-1.69
					c0.44-0.47,0.97-0.83,1.61-1.08c0.64-0.25,1.35-0.38,2.13-0.38c1.01,0,1.88,0.21,2.61,0.65c0.72,0.42,1.27,0.98,1.63,1.65
					c0.36,0.68,0.54,1.37,0.54,2.07c0,0.65-0.19,1.07-0.56,1.27C455.32,1107.36,454.79,1107.45,454.11,1107.45 M449.04,1105.98h4.7
					c-0.06-0.88-0.3-1.55-0.71-1.99c-0.42-0.44-0.96-0.66-1.64-0.66c-0.65,0-1.18,0.22-1.59,0.67
					C449.38,1104.45,449.13,1105.1,449.04,1105.98"/>
				<path class="st12" d="M464.9,1107.45h-5.07c0.01,0.59,0.13,1.11,0.35,1.56c0.23,0.45,0.54,0.79,0.92,1.02
					c0.38,0.23,0.81,0.34,1.27,0.34c0.31,0,0.59-0.03,0.84-0.11c0.26-0.07,0.51-0.19,0.75-0.34c0.24-0.15,0.46-0.32,0.66-0.5
					c0.2-0.17,0.46-0.42,0.79-0.72c0.13-0.11,0.33-0.17,0.57-0.17c0.27,0,0.48,0.07,0.65,0.22c0.17,0.15,0.24,0.35,0.24,0.62
					c0,0.23-0.09,0.51-0.27,0.82c-0.18,0.32-0.45,0.62-0.83,0.91c-0.37,0.29-0.84,0.53-1.4,0.71c-0.56,0.19-1.21,0.29-1.93,0.29
					c-1.67,0-2.96-0.47-3.89-1.42c-0.92-0.95-1.39-2.24-1.39-3.87c0-0.77,0.12-1.48,0.35-2.13c0.23-0.66,0.56-1.22,1-1.69
					c0.44-0.47,0.97-0.83,1.61-1.08c0.64-0.25,1.35-0.38,2.13-0.38c1.01,0,1.88,0.21,2.61,0.65c0.72,0.42,1.27,0.98,1.62,1.65
					c0.36,0.68,0.54,1.37,0.54,2.07c0,0.65-0.19,1.07-0.56,1.27C466.1,1107.36,465.58,1107.45,464.9,1107.45 M459.83,1105.98h4.7
					c-0.06-0.88-0.3-1.55-0.71-1.99c-0.42-0.44-0.96-0.66-1.64-0.66c-0.65,0-1.18,0.22-1.59,0.67
					C460.17,1104.45,459.91,1105.1,459.83,1105.98"/>
				<path class="st12" d="M470.58,1103v0.31c0.49-0.6,0.99-1.04,1.52-1.32c0.52-0.29,1.12-0.43,1.78-0.43
					c0.79,0,1.54,0.21,2.21,0.62c0.67,0.41,1.2,1.02,1.59,1.81c0.39,0.79,0.59,1.73,0.59,2.81c0,0.79-0.11,1.53-0.34,2.2
					c-0.22,0.67-0.54,1.23-0.93,1.68c-0.39,0.45-0.86,0.8-1.39,1.04c-0.54,0.24-1.11,0.36-1.73,0.36c-0.74,0-1.36-0.15-1.87-0.45
					c-0.5-0.29-0.98-0.73-1.44-1.3v3.89c0,1.13-0.42,1.71-1.24,1.71c-0.49,0-0.81-0.15-0.97-0.44c-0.15-0.3-0.23-0.72-0.23-1.29
					v-11.19c0-0.49,0.11-0.86,0.32-1.11c0.21-0.24,0.51-0.36,0.88-0.36c0.37,0,0.67,0.13,0.9,0.37
					C470.47,1102.17,470.58,1102.53,470.58,1103 M475.66,1106.77c0-0.69-0.11-1.27-0.31-1.76c-0.21-0.49-0.5-0.87-0.87-1.13
					c-0.37-0.26-0.78-0.4-1.23-0.4c-0.71,0-1.32,0.28-1.81,0.84c-0.49,0.57-0.74,1.39-0.74,2.49c0,1.03,0.24,1.83,0.74,2.41
					c0.49,0.57,1.09,0.86,1.81,0.86c0.43,0,0.83-0.13,1.2-0.37c0.37-0.25,0.67-0.63,0.88-1.13
					C475.55,1108.08,475.66,1107.47,475.66,1106.77"/>
				<path class="st12" d="M480.88,1100.33c-0.36,0-0.67-0.12-0.92-0.34c-0.26-0.22-0.39-0.53-0.39-0.94c0-0.37,0.13-0.67,0.4-0.91
					c0.26-0.23,0.57-0.36,0.91-0.36c0.34,0,0.64,0.11,0.89,0.32c0.26,0.22,0.39,0.54,0.39,0.95c0,0.4-0.13,0.71-0.38,0.94
					C481.53,1100.22,481.23,1100.33,480.88,1100.33 M482.16,1103.01v7.5c0,0.52-0.12,0.91-0.37,1.17c-0.25,0.27-0.56,0.4-0.94,0.4
					c-0.38,0-0.68-0.13-0.93-0.41c-0.23-0.28-0.36-0.66-0.36-1.17v-7.43c0-0.51,0.12-0.89,0.36-1.15c0.24-0.26,0.55-0.39,0.93-0.39
					c0.38,0,0.69,0.13,0.94,0.39C482.04,1102.19,482.16,1102.55,482.16,1103.01"/>
				<path class="st12" d="M490.52,1110.9l-2.28-3.77l-1.41,1.33v2.07c0,0.5-0.13,0.88-0.4,1.15c-0.26,0.27-0.57,0.41-0.91,0.41
					c-0.4,0-0.71-0.13-0.94-0.4c-0.23-0.26-0.34-0.66-0.34-1.17v-11.06c0-0.57,0.11-1.01,0.33-1.31c0.22-0.3,0.54-0.45,0.95-0.45
					c0.4,0,0.71,0.14,0.95,0.41c0.23,0.27,0.35,0.67,0.35,1.2v6.29l2.92-3.06c0.36-0.38,0.63-0.64,0.83-0.78
					c0.19-0.14,0.42-0.21,0.69-0.21c0.33,0,0.59,0.1,0.82,0.31c0.21,0.21,0.32,0.46,0.32,0.77c0,0.38-0.35,0.89-1.05,1.52
					l-1.38,1.26l2.66,4.18c0.19,0.31,0.34,0.54,0.42,0.71c0.08,0.16,0.13,0.32,0.13,0.46c0,0.41-0.11,0.73-0.34,0.97
					c-0.22,0.24-0.52,0.35-0.89,0.35c-0.32,0-0.56-0.08-0.73-0.26C491.05,1111.66,490.81,1111.35,490.52,1110.9"/>
				<path class="st12" d="M496.16,1112.09c-0.39,0-0.73-0.13-1.01-0.38c-0.28-0.25-0.43-0.61-0.43-1.06c0-0.38,0.14-0.72,0.41-0.99
					c0.27-0.28,0.61-0.42,1.01-0.42c0.4,0,0.74,0.14,1.02,0.41c0.28,0.28,0.42,0.61,0.42,1c0,0.45-0.14,0.81-0.42,1.06
					C496.87,1111.96,496.54,1112.09,496.16,1112.09"/>
				<path class="st12" d="M509.06,1108.88c0,0.32-0.1,0.67-0.29,1.03c-0.19,0.37-0.49,0.72-0.89,1.05c-0.39,0.33-0.89,0.6-1.5,0.8
					c-0.6,0.2-1.28,0.31-2.03,0.31c-1.61,0-2.86-0.47-3.76-1.4c-0.9-0.94-1.35-2.19-1.35-3.76c0-1.07,0.2-2.01,0.62-2.82
					c0.41-0.81,1-1.45,1.78-1.89c0.78-0.45,1.72-0.67,2.79-0.67c0.67,0,1.29,0.1,1.85,0.29c0.56,0.2,1.03,0.45,1.42,0.76
					c0.39,0.31,0.69,0.64,0.89,0.99c0.21,0.35,0.31,0.68,0.31,0.99c0,0.31-0.11,0.57-0.34,0.79c-0.24,0.21-0.52,0.32-0.84,0.32
					c-0.22,0-0.4-0.06-0.54-0.17c-0.14-0.11-0.3-0.29-0.48-0.54c-0.32-0.48-0.65-0.84-1-1.08c-0.34-0.24-0.78-0.36-1.31-0.36
					c-0.76,0-1.38,0.3-1.85,0.9c-0.47,0.6-0.7,1.42-0.7,2.46c0,0.49,0.06,0.94,0.18,1.35c0.12,0.41,0.29,0.76,0.52,1.04
					c0.23,0.29,0.5,0.51,0.83,0.65c0.32,0.15,0.68,0.23,1.06,0.23c0.52,0,0.97-0.12,1.34-0.36c0.38-0.24,0.7-0.61,0.99-1.1
					c0.16-0.29,0.33-0.52,0.51-0.68c0.18-0.16,0.41-0.25,0.68-0.25c0.32,0,0.58,0.12,0.79,0.36
					C508.95,1108.35,509.06,1108.61,509.06,1108.88"/>
				<path class="st12" d="M520.25,1106.82c0,0.77-0.12,1.48-0.36,2.14c-0.25,0.65-0.59,1.21-1.05,1.68c-0.46,0.47-1,0.83-1.63,1.08
					c-0.64,0.25-1.35,0.38-2.14,0.38c-0.79,0-1.49-0.13-2.12-0.38c-0.62-0.25-1.17-0.61-1.63-1.08c-0.46-0.48-0.81-1.03-1.05-1.68
					c-0.23-0.64-0.35-1.36-0.35-2.13c0-0.79,0.12-1.51,0.36-2.16c0.24-0.65,0.59-1.21,1.04-1.67c0.45-0.46,0.99-0.82,1.63-1.07
					c0.64-0.25,1.35-0.37,2.12-0.37c0.78,0,1.5,0.13,2.14,0.38c0.64,0.25,1.18,0.62,1.64,1.08c0.46,0.47,0.8,1.03,1.04,1.67
					C520.13,1105.32,520.25,1106.03,520.25,1106.82 M517.64,1106.82c0-1.06-0.23-1.88-0.7-2.47c-0.46-0.6-1.09-0.89-1.87-0.89
					c-0.51,0-0.96,0.13-1.34,0.39c-0.39,0.26-0.68,0.65-0.89,1.16c-0.21,0.51-0.32,1.11-0.32,1.8c0,0.68,0.1,1.27,0.31,1.77
					c0.21,0.51,0.5,0.9,0.89,1.17c0.39,0.27,0.84,0.4,1.35,0.4c0.78,0,1.41-0.3,1.87-0.89
					C517.41,1108.68,517.64,1107.86,517.64,1106.82"/>
				<path class="st12" d="M530.14,1107.01v3.45c0,0.55-0.12,0.95-0.37,1.23c-0.25,0.27-0.57,0.41-0.98,0.41
					c-0.39,0-0.71-0.13-0.95-0.41c-0.25-0.28-0.37-0.68-0.37-1.23v-4.13c0-0.65-0.02-1.16-0.06-1.53c-0.05-0.35-0.17-0.65-0.36-0.88
					c-0.2-0.23-0.51-0.35-0.93-0.35c-0.85,0-1.41,0.29-1.68,0.88c-0.27,0.58-0.41,1.41-0.41,2.51v3.5c0,0.54-0.12,0.95-0.36,1.22
					c-0.25,0.27-0.57,0.41-0.96,0.41c-0.4,0-0.72-0.14-0.97-0.41c-0.25-0.28-0.38-0.69-0.38-1.22v-7.42c0-0.49,0.11-0.86,0.34-1.11
					c0.23-0.26,0.53-0.38,0.89-0.38c0.36,0,0.65,0.12,0.89,0.36c0.24,0.24,0.35,0.57,0.35,0.98v0.24c0.45-0.54,0.93-0.93,1.44-1.18
					c0.52-0.26,1.08-0.39,1.71-0.39c0.65,0,1.21,0.13,1.68,0.39c0.47,0.26,0.85,0.65,1.16,1.18c0.44-0.53,0.91-0.92,1.41-1.18
					c0.5-0.26,1.05-0.39,1.66-0.39c0.71,0,1.32,0.14,1.83,0.42c0.51,0.28,0.89,0.68,1.15,1.2c0.22,0.47,0.33,1.21,0.33,2.22v5.06
					c0,0.55-0.12,0.95-0.37,1.23c-0.25,0.27-0.58,0.41-0.98,0.41c-0.39,0-0.71-0.14-0.96-0.41c-0.25-0.28-0.38-0.69-0.38-1.22v-4.36
					c0-0.56-0.02-1-0.07-1.34c-0.05-0.34-0.18-0.62-0.38-0.85c-0.21-0.23-0.53-0.34-0.95-0.34c-0.34,0-0.67,0.11-0.97,0.31
					c-0.31,0.2-0.55,0.48-0.72,0.81C530.24,1105.12,530.14,1105.9,530.14,1107.01"/>
			</g>
			<g>
				<path class="st12" d="M409.44,1106.19c0,0,0-0.01,0-0.02C409.43,1106.18,409.43,1106.18,409.44,1106.19z"/>
				<path class="st12" d="M409.57,1107.02C409.57,1107.02,409.57,1107.02,409.57,1107.02c-0.05-0.24-0.09-0.47-0.12-0.7
					C409.48,1106.55,409.52,1106.78,409.57,1107.02z"/>
				<path class="st12" d="M410.42,1109.42c-0.01-0.01-0.01-0.02-0.02-0.03C410.41,1109.4,410.42,1109.41,410.42,1109.42z"/>
				<path class="st12" d="M410.34,1109.26c-0.02-0.04-0.04-0.09-0.07-0.13C410.3,1109.18,410.32,1109.22,410.34,1109.26z"/>
				<path class="st12" d="M409.81,1107.94c0.13,0.4,0.28,0.79,0.46,1.16C410.08,1108.72,409.93,1108.34,409.81,1107.94
					C409.81,1107.94,409.81,1107.94,409.81,1107.94z"/>
				<path class="st12" d="M419.47,1096.25c0.5,0,0.87,0.04,1.29,0.11l0.12-0.76c0,0-1.17-0.36-2.71-0.23l-0.12-0.41
					c0.48-0.1,0.84-0.53,0.84-1.04c0-0.58-0.47-1.05-1.06-1.05s-1.06,0.47-1.06,1.05c0,0.51,0.36,0.93,0.84,1.04l0.13,0.46
					c-1.63,0.22-2.94,0.86-2.94,0.86l0.23,0.71c0.99-0.33,1.85-0.53,2.62-0.61C418.43,1096.29,419.01,1096.25,419.47,1096.25z"/>
				<path class="st12" d="M410.4,1100.11L410.4,1100.11c0.04-0.06,0.08-0.1,0.12-0.15l-0.31-0.22l-0.49-0.36
					c-0.03,0.04-0.79,0.74-1.4,2.05c-0.03-0.04-0.06-0.08-0.09-0.12c-0.18-0.2-0.44-0.3-0.76-0.29c0,0-0.01,0-0.01,0
					c-0.2,0-0.34-0.07-0.43-0.15c0.09-0.11,0.14-0.26,0.14-0.41c0-0.37-0.3-0.67-0.67-0.67c-0.37,0-0.67,0.3-0.67,0.67
					c0,0.37,0.3,0.67,0.67,0.67c0.06,0,0.11-0.01,0.17-0.02c0.16,0.18,0.43,0.34,0.81,0.33c0.2,0,0.34,0.05,0.44,0.16
					c0.11,0.12,0.15,0.29,0.16,0.43c0,0,0,0,0,0c-0.44,1.19-0.31,2.67-0.31,2.67l1.06,0.04c0.02-0.54,0.1-1.48,0.37-2.23
					C409.72,1101.05,410.38,1100.15,410.4,1100.11z"/>
				<path class="st12" d="M428.67,1097.13c-0.37,0-0.67,0.3-0.67,0.67c0,0.06,0.01,0.11,0.02,0.16c-0.18,0.17-0.34,0.43-0.34,0.81
					c0,0.2-0.05,0.34-0.15,0.44c-0.08,0.07-0.19,0.12-0.3,0.14c-0.79-1.1-1.76-1.78-1.76-1.78l-0.76,0.81
					c0.57,0.52,1.16,1.18,1.73,1.99c0.39,0.56,0.8,1.29,1.14,2.02l1.02-0.49c0,0-0.47-1.16-1.13-2.19c0.11-0.04,0.23-0.1,0.33-0.19
					c0.2-0.18,0.3-0.44,0.29-0.76c0-0.21,0.07-0.35,0.15-0.44c0.11,0.09,0.26,0.14,0.41,0.14c0.37,0,0.67-0.3,0.67-0.67
					C429.34,1097.43,429.04,1097.13,428.67,1097.13z"/>
				<path class="st12" d="M426.01,1106.34c-1.41,0.69-3.73,1.59-6.78,2.02c-1.2,0.17-2.36,0.23-3.43,0.23
					c-1.39,0-2.62-0.1-3.56-0.22c-1.08-0.13-1.92-0.3-2.43-0.42c0.12,0.39,0.27,0.78,0.45,1.16c0,0.01,0.01,0.02,0.01,0.03
					c0.02,0.04,0.04,0.09,0.07,0.13c0.02,0.04,0.04,0.09,0.06,0.13c0.01,0.01,0.01,0.02,0.02,0.03c0.3,0.57,0.67,1.09,1.08,1.55
					c1.44,1.57,2.91,1.82,2.92,1.83l0.02,0l0.02,0.01c0.01,0.01,1.31,0.43,3.29,0.43c1.95,0,3.85-0.39,5.67-1.17
					c1.35-0.69,2.62-1.74,3.25-2.67c0.49-0.72,0.84-1.49,1.05-2.29c0.11-0.43,0.2-1.11,0.15-1.83
					C427.49,1105.54,426.86,1105.92,426.01,1106.34z"/>
				<path class="st12" d="M410.86,1100.44c-0.04,0.06-0.65,0.93-1.14,2.25c-0.36,0.99-0.35,2.44-0.35,2.46v0
					c0,0.34,0.02,0.68,0.06,1.01c0,0.01,0,0.01,0,0.02c0,0.04,0.01,0.08,0.02,0.13c0.03,0.23,0.07,0.47,0.12,0.7
					c0.7,0.18,4.88,1.15,9.55,0.5c2.93-0.41,5.15-1.27,6.5-1.93c1.12-0.54,1.84-1.04,2.12-1.24c-0.28-1.03-1.04-2.64-1.74-3.65
					c-2-2.87-4.17-3.6-5.28-3.78c-0.42-0.07-0.76-0.11-1.24-0.11c-0.45,0-1,0.04-1.74,0.12c-0.74,0.08-1.57,0.27-2.53,0.6
					c-1.35,0.45-2.57,1.16-3.53,2.05l-0.03,0.03C411.5,1099.73,411.2,1100.01,410.86,1100.44z M423.13,1099.78
					c0.96,0,1.74,0.78,1.74,1.74c0,0.96-0.78,1.74-1.74,1.74c-0.96,0-1.74-0.78-1.74-1.74
					C421.38,1100.56,422.17,1099.78,423.13,1099.78z M414.89,1099.71c1.56,0,2.82,1.26,2.82,2.82c0,1.55-1.26,2.81-2.82,2.81
					c-1.55,0-2.82-1.26-2.82-2.81C412.07,1100.97,413.33,1099.71,414.89,1099.71z"/>
			</g>
		</g>
		<g>
			<g>
				<path class="st13" d="M446.23,483.29c0,12.4-8.29,22.45-18.53,22.45H162.53c-10.23,0-18.53-10.05-18.53-22.45V53.03
					c0-12.4,8.29-22.45,18.53-22.45H427.7c10.23,0,18.53,10.05,18.53,22.45V483.29z"/>
				<path class="st13" d="M701,483.29c0,12.4-8.29,22.45-18.53,22.45H417.3c-10.23,0-18.53-10.05-18.53-22.45V53.03
					c0-12.4,8.29-22.45,18.53-22.45h265.18c10.23,0,18.53,10.05,18.53,22.45V483.29z"/>
			</g>
			<path class="st13" d="M458.72,492.12c0,24.24-16.22,43.88-36.22,43.88l0,0c-20,0-36.22-19.65-36.22-43.88v-42.37
				c0-24.24,16.21-43.88,36.22-43.88l0,0c20,0,36.22,19.65,36.22,43.88V492.12z"/>
			<rect x="161.48" y="54.8" class="st14" width="517.04" height="429.75"/>
			<g>
				<path class="st15" d="M422.32,457.91c-90.32-31.27-153.69-31.26-244.01,0c0-137.32,0-274.63,0-411.95
					c90.38-48.61,153.46-47.29,244.01,0C422.32,183.28,422.33,320.59,422.32,457.91z"/>
			</g>
			<g>
				<path class="st15" d="M551.14,11.37c-2.94,1.68-6.49,4.21-11.23,7.92c-14.89,12.45-37.62,38.03-58.02,84.22
					c-16.09,36.43-27.63,78.1-36.07,119.83c-15.55,100.75-22.42,219.16-23.21,234.96c89.3-30.31,148.52-30.01,240.94,0.94
					c0-137.32,0-274.63,0-411.95C616.08,22.6,595.93,10.81,551.14,11.37z"/>
				<path class="st15" d="M423.27,45.23c-1.35,0.69-2.35,1.34-3.7,2.05c0,137.32-0.51,274.63-0.51,411.95c0.9-0.31,2.2-0.6,2.2-0.91
					V47.15C421.25,46.5,422.8,45.86,423.27,45.23z"/>
				<path class="st16" d="M540.28,19.28c4.51-3.77,8.3-6.35,11.04-7.92c-42.1,0.52-84.91,11.95-128.06,33.87
					c-0.47,0.63-2.01,1.27-2.01,1.92v411.17v1.76c0,0,0.71-0.62,0.77-1.79c0.89-17.6,1.59-126.44,23.55-234.96
					c8.44-41.72,20.25-83.4,36.34-119.83C502.31,57.31,525.4,31.73,540.28,19.28z"/>
			</g>
		</g>
		<g>
			<g>
				<path class="st17" d="M757.46,993.71l-99.94-18.44l-83.57,25.26c-1.04-0.08-1.99,0.64-2.17,1.69c-0.2,1.12,0.55,2.19,1.67,2.38
					l0.26,0.05l106.09,18.21c10.55,14.73,2.82,27.61,0.31,31.1L574.46,1035c-0.09-0.02-0.18-0.02-0.27-0.02
					c-1.02-0.04-1.94,0.65-2.12,1.68c-0.2,1.12,0.54,2.19,1.66,2.39l107.97,19.75l73.89-30.34
					C772.04,1009.47,757.46,993.71,757.46,993.71z"/>
				<g>
					<defs>
						<path id="XMLID_4_" d="M757.46,993.71l-77.66,29.15c8.56,11.96,4.98,24.73,0.79,31.25c0.31,2.46,1.57,4.77,1.57,4.77
							l74.41-30.56C773.02,1009.33,757.46,993.71,757.46,993.71z"/>
					</defs>
					<use xlink:href="#XMLID_4_"  style="overflow:visible;fill:#5E3027;"/>
					<clipPath id="XMLID_2_">
						<use xlink:href="#XMLID_4_"  style="overflow:visible;"/>
					</clipPath>
					<path class="st18" d="M737.59,998.04c0,0,17.22,21.4,2.64,42.03l-31.02,11.17c0,0,13.03-24.82-4.34-41.57L737.59,998.04z"/>
				</g>
				<path class="st15" d="M680.36,1054.34c2.52-3.49,9.99-16.75-0.56-31.48l-106.09-18.21l0.48,30.33c0.09,0,0.18,0,0.27,0.02
					L680.36,1054.34z"/>
			</g>
			<g>
				<path class="st13" d="M751.88,954.63l-99.94-18.44l-83.57,25.26c-1.04-0.08-1.99,0.64-2.18,1.69c-0.2,1.12,0.55,2.19,1.67,2.38
					l0.26,0.05l106.09,18.21c10.55,14.73,2.82,27.62,0.31,31.1l-105.65-18.96c-0.09-0.02-0.18-0.02-0.27-0.02
					c-1.02-0.04-1.94,0.65-2.12,1.68c-0.2,1.12,0.54,2.19,1.66,2.39l107.97,19.75l73.89-30.34
					C766.46,970.39,751.88,954.63,751.88,954.63z"/>
				<g>
					<defs>
						<path id="XMLID_5_" d="M751.88,954.63l-77.66,29.15c8.56,11.96,4.98,24.73,0.79,31.25c0.31,2.46,1.57,4.77,1.57,4.77
							L751,989.23C767.44,970.25,751.88,954.63,751.88,954.63z"/>
					</defs>
					<use xlink:href="#XMLID_5_"  style="overflow:visible;fill:#334C5E;"/>
					<clipPath id="XMLID_3_">
						<use xlink:href="#XMLID_5_"  style="overflow:visible;"/>
					</clipPath>
					<path class="st19" d="M732.01,958.96c0,0,17.22,21.4,2.64,42.03l-31.02,11.17c0,0,13.03-24.82-4.34-41.57L732.01,958.96z"/>
				</g>
				<path class="st15" d="M674.78,1015.25c2.52-3.49,9.99-16.75-0.56-31.48l-106.09-18.21l0.48,30.33c0.09,0,0.18,0,0.27,0.02
					L674.78,1015.25z"/>
			</g>
			<g>
				<path class="st20" d="M752.97,913.47l-99.94-18.44l-83.57,25.26c-1.04-0.08-1.99,0.64-2.18,1.69c-0.2,1.12,0.55,2.19,1.67,2.38
					l0.26,0.05l106.09,18.21c10.55,14.73,2.82,27.62,0.31,31.1l-105.65-18.96c-0.09-0.02-0.18-0.02-0.27-0.02
					c-1.02-0.04-1.94,0.65-2.12,1.68c-0.2,1.12,0.54,2.19,1.66,2.39l107.97,19.75l73.89-30.34
					C767.55,929.24,752.97,913.47,752.97,913.47z"/>
				<g>
					<defs>
						<path id="XMLID_6_" d="M752.97,913.47l-77.66,29.15c8.56,11.96,4.98,24.73,0.79,31.25c0.31,2.46,1.57,4.77,1.57,4.77
							l74.41-30.56C768.54,929.09,752.97,913.47,752.97,913.47z"/>
					</defs>
					<use xlink:href="#XMLID_6_"  style="overflow:visible;fill:#F4563C;"/>
					<clipPath id="XMLID_7_">
						<use xlink:href="#XMLID_6_"  style="overflow:visible;"/>
					</clipPath>
					<path class="st21" d="M733.11,917.8c0,0,17.22,21.4,2.64,42.03L704.73,971c0,0,13.03-24.82-4.34-41.57L733.11,917.8z"/>
				</g>
				<path class="st15" d="M675.88,974.1c2.52-3.49,9.99-16.75-0.56-31.48l-106.09-18.21l0.48,30.33c0.09,0,0.18,0,0.27,0.02
					L675.88,974.1z"/>
			</g>
		</g>
		<g>
			<g>
				<path class="st22" d="M259.92,1058V876.66c0-5.33-4.32-9.66-9.66-9.66h-11.09c-5.33,0-9.66,4.32-9.66,9.66V1058H259.92z"/>
				<rect x="229.52" y="879.14" class="st23" width="30.4" height="20.98"/>
				<rect x="229.52" y="929.37" class="st23" width="30.4" height="19.87"/>
				<rect x="229.52" y="1042.54" class="st23" width="30.4" height="15.46"/>
			</g>
			<g>
				<path class="st24" d="M229.52,1058V890.39c0-4.17-3.38-7.55-7.55-7.55h-14.72c-4.17,0-7.55,3.38-7.55,7.55V1058H229.52z"/>
				<rect x="199.71" y="912.65" class="st25" width="29.81" height="13.04"/>
				<rect x="199.71" y="995.58" class="st25" width="29.81" height="12.11"/>
				<rect x="199.71" y="1029.12" class="st25" width="29.81" height="28.88"/>
			</g>
			<g>
				<path class="st26" d="M134.08,1058l23.59-165.95c0.59-4.13-2.28-7.95-6.41-8.53l-23.8-3.38c-4.13-0.59-7.95,2.28-8.53,6.41
					l-23.59,165.95L134.08,1058z"/>
				
					<rect x="101.39" y="968.8" transform="matrix(0.1407 -0.99 0.99 0.1407 -871.8011 972.2642)" class="st27" width="45.65" height="39.13"/>
				
					<rect x="126.45" y="923.61" transform="matrix(0.1407 -0.9901 0.9901 0.1407 -821.5314 939.8173)" class="st27" width="8.39" height="39.13"/>
				
					<rect x="113.73" y="1013.08" transform="matrix(0.1407 -0.99 0.99 0.1407 -921.0447 1004.0817)" class="st27" width="8.39" height="39.13"/>
				<path class="st27" d="M126.6,911.75c0.65-4.59,4.9-7.77,9.48-7.12c4.59,0.65,7.77,4.9,7.12,9.48c-0.65,4.59-4.9,7.77-9.48,7.12
					C129.13,920.58,125.95,916.33,126.6,911.75z"/>
			</g>
			<g>
				<path class="st13" d="M200.97,1058V877.01c0-4.5-3.65-8.15-8.15-8.15h-25.96c-4.5,0-8.15,3.65-8.15,8.15V1058H200.97z"/>
				<rect x="158.71" y="903.34" class="st23" width="42.25" height="12.11"/>
				<rect x="158.71" y="1009.55" class="st23" width="42.25" height="12.11"/>
				<rect x="158.71" y="1034.71" class="st23" width="42.25" height="12.11"/>
				<path class="st23" d="M187,990.08c0,4.37-3.55,7.92-7.92,7.92h-0.16c-4.37,0-7.92-3.55-7.92-7.92v-47.16
					c0-4.37,3.55-7.92,7.92-7.92h0.16c4.37,0,7.92,3.55,7.92,7.92V990.08z"/>
			</g>
		</g>
		<g>
			<g>
				<path class="st27" d="M426,1045.58c0,4.1-3.32,7.42-7.42,7.42H312.42c-4.1,0-7.42-3.32-7.42-7.42V903.42
					c0-4.1,3.32-7.42,7.42-7.42h106.17c4.1,0,7.42,3.32,7.42,7.42V1045.58z"/>
				<path class="st27" d="M528,1045.58c0,4.1-3.32,7.42-7.42,7.42H414.42c-4.1,0-7.42-3.32-7.42-7.42V903.42
					c0-4.1,3.32-7.42,7.42-7.42h106.17c4.1,0,7.42,3.32,7.42,7.42V1045.58z"/>
			</g>
			<path class="st27" d="M431,1048.5c0,8.01-6.49,14.5-14.5,14.5l0,0c-8.01,0-14.5-6.49-14.5-14.5v-14c0-8.01,6.49-14.5,14.5-14.5
				l0,0c8.01,0,14.5,6.49,14.5,14.5V1048.5z"/>
			<rect x="312" y="904" class="st28" width="207" height="142"/>
			<g>
				<path class="st15" d="M416.43,1037.2c-36.16-10.33-61.53-10.33-97.69,0c0-45.37,0-90.74,0-136.12
					c36.18-16.06,61.44-15.63,97.69,0C416.43,946.45,416.43,991.82,416.43,1037.2z"/>
			</g>
			<polygon class="st27" points="416,1037 515.5,1037 514.73,901 416,901.5 			"/>
			<path class="st29" d="M415.9,1037.2c36.16-10.33,61.53-10.33,97.69,0c0-45.37,0-90.74,0-136.12c-36.18-16.06-61.44-15.63-97.69,0
				C415.9,946.45,415.9,991.82,415.9,1037.2z"/>
			<path class="st15" d="M416,1037c0,0,32-41,94-55.5V851c0,0-61,0-94,50.5V1037z"/>
			<path class="st29" d="M416,1037V902c0,0-14-8.5-31-10.5C385,891.5,405,894.5,416,1037z"/>
		</g>
	</g>
</g>
</svg>
